<?xml version="1.0" encoding="UTF-8"?>
<svg id="Layer_1" xmlns="http://www.w3.org/2000/svg" version="1.1" xmlns:xlink="http://www.w3.org/1999/xlink" viewBox="0 0 995.4 185.5">
  <!-- Generator: Adobe Illustrator 29.3.1, SVG Export Plug-In . SVG Version: 2.1.0 Build 151)  -->
  <defs>
    <style>
      .st0 {
        fill: none;
      }

      .st1 {
        fill: #030304;
      }

      .st2 {
        clip-path: url(#clippath);
      }
    </style>
    <clipPath id="clippath">
      <rect class="st0" x="0" width="995.4" height="185.5"/>
    </clipPath>
  </defs>
  <g class="st2">
    <g>
      <path class="st1" d="M201.5,181.5L234.7,10.1h40.3l-33.3,171.4h-40.3ZM280.4,125.5h-15l6.3-32h11.9c7.6,0,13.9-1.4,18.9-4.3,5.1-2.9,8.9-6.7,11.5-11.5,2.6-4.8,3.9-10.2,3.9-16.3s-1.9-10.8-5.8-14.2c-3.9-3.4-9.7-5.2-17.4-5.2h-36.5l6-32h36.5c18.2,0,32.6,4.3,43.2,12.9,10.7,8.6,16,20.7,16,36.5s-3.2,23.1-9.5,33c-6.3,9.9-15.4,17.9-27.3,23.9-11.9,6-26.2,9.1-42.8,9.1Z"/>
      <path class="st1" d="M471.9,181.5l-5.1-84.7.8-21.2h1.8l-7.8,21.2-38,84.7h-49.4l-8.3-135.6h41.1l.5,89.7-.3,22.7h-2l9.3-22.7,41.1-89.7h39.1l6,89.7.3,22.7h-2.3l8.3-22.7,35.8-89.7h39.6l-61.3,135.6h-49.1,0Z"/>
      <path class="st1" d="M562.1,181.5l26.2-135.6h38.6l-26.2,135.6h-38.6ZM615.5,103.6h-12.9c3.7-14.1,8.5-25.7,14.5-34.9,6-9.2,12.9-16,20.9-20.4,8-4.5,16.7-6.7,26.1-6.7s14.8,1.5,20.7,4.5c5.9,3,10.5,7.5,13.7,13.4,3.3,5.9,4.9,13.2,4.9,21.9s-.1,4.8-.4,7.4c-.3,2.6-.6,5.3-1.1,7.9l-16.6,84.7h-38.6l16.1-82.7c.3-1.7.6-3.2.8-4.7.2-1.4.3-2.8.3-4.2,0-5.7-1.4-10-4.2-12.9-2.8-2.9-7.1-4.3-13-4.3s-7.3.8-10.7,2.3c-3.4,1.5-6.6,3.6-9.3,6.4-2.8,2.8-5.1,6-6.9,9.8-1.8,3.8-3.3,7.8-4.3,12.2h0Z"/>
      <path class="st1" d="M823.4,99.3l-24.7,14.1c.5-3,.9-5.8,1.2-8.4.3-2.6.5-5.1.5-7.5,0-8.2-1.8-14.5-5.4-18.8-3.6-4.3-8.9-6.4-15.8-6.4s-10.6,1.5-15.1,4.7c-4.5,3.1-8.4,7.4-11.7,12.7-3.3,5.4-5.7,11.4-7.5,18-1.7,6.6-2.5,13.4-2.5,20.3s1.8,15.6,5.5,20c3.7,4.5,9.2,6.7,16.6,6.7s12.1-1.4,17.1-4.2c5.1-2.8,9-7.4,11.9-13.7h40.3c-4.2,10.8-10,19.7-17.5,27-7.5,7.2-15.9,12.6-25.3,16.3-9.4,3.6-19.2,5.4-29.5,5.4-18.2,0-32.5-4.9-43-14.7-10.5-9.8-15.8-23.6-15.8-41.5s1.9-22.7,5.7-33.2c3.8-10.5,9.2-19.9,16.4-28.1,7.1-8.2,15.6-14.7,25.4-19.4,9.8-4.7,20.6-7.1,32.4-7.1,17.8,0,31.6,5,41.3,15,9.7,10,14.6,23.4,14.6,40.2s-.1,5.5-.4,8.6c-.3,3-.6,6-1.1,9.1l-1.2,7.1h-116.9l4-22.2h100.4Z"/>
      <path class="st1" d="M886.5,185.5c-9.3,0-17.3-2.2-24.1-6.6-6.8-4.4-12-10.6-15.6-18.6-3.6-8.1-5.4-17.5-5.4-28.2s1.8-23.3,5.3-34.1c3.5-10.8,8.5-20.5,15-29,6.5-8.5,14.1-15.2,23-20,8.9-4.9,18.7-7.3,29.5-7.3s22.5,4.4,29.2,13.2,10.1,21.2,10.1,37.2-1.8,25.1-5.4,36.4c-3.6,11.3-8.6,21.3-15,29.9-6.4,8.6-13.6,15.2-21.5,20-8,4.8-16.3,7.2-25.1,7.2h0ZM900.6,154.2c5.5,0,10.5-1.8,15-5.4,4.5-3.6,8.2-8.3,11.3-14,3.1-5.7,5.4-11.9,6.9-18.5,1.5-6.6,2.3-13,2.3-19s-1.6-14-4.9-18.2c-3.3-4.2-8.1-6.3-14.5-6.3s-9.7,1.6-14,4.9c-4.3,3.3-8,7.6-11.2,13-3.2,5.4-5.7,11.5-7.4,18.3-1.8,6.8-2.7,13.7-2.7,20.8s1.6,14,4.8,18.2c3.2,4.2,8,6.3,14.4,6.3ZM921.5,181.5L956.8,0h38.6l-35.3,181.5h-38.6,0Z"/>
      <path class="st1" d="M199.6,125.5l6.2-32h-40.3l-6.2,32h40.3Z"/>
      <path class="st1" d="M146.5,125.5l6.2-32h-40.3l-6.2,32h40.3Z"/>
      <path class="st1" d="M82.6,181.5l8.4-43.2h-40.3l-8.4,43.2h40.3Z"/>
      <path class="st1" d="M40.3,125.5l16.2-83.4H16.2L0,125.5h40.3Z"/>
      <path class="st1" d="M93.4,125.5l8.4-43.2h-40.3l-8.4,43.2h40.3Z"/>
    </g>
  </g>
</svg>