<?xml version="1.0" encoding="UTF-8"?><svg xmlns="http://www.w3.org/2000/svg" viewBox="0 0 720 114"><defs><style>.c{fill:#fff;}.d{fill:#3290ce;stroke:#fff;stroke-width:5px;}</style></defs><g id="a"><rect class="d" x="2.5" y="2.5" width="715" height="109" rx="30" ry="30"/></g><g id="b"><g><path class="c" d="M37.18,42.14v4.46c0,.63-.07,1.14-.21,1.51-.14,.37-.35,.66-.63,.86-.28,.2-.63,.33-1.05,.4s-.92,.11-1.51,.11-1.09-.04-1.51-.11-.77-.2-1.04-.4c-.27-.2-.47-.49-.6-.86-.13-.37-.19-.88-.19-1.51,0-.7,.04-1.36,.11-1.97,.07-.61,.19-1.18,.35-1.72,.16-.54,.38-1.08,.65-1.61,.27-.54,.6-1.09,1-1.65l4.81-7.23c.12-.19,.25-.34,.39-.46,.14-.12,.32-.22,.54-.3,.22-.08,.48-.15,.77-.19,.29-.05,.65-.07,1.07-.07s.77,.02,1.04,.05c.27,.04,.47,.09,.6,.18,.13,.08,.19,.19,.19,.33s-.05,.3-.14,.49l-4.63,9.69Z"/><path class="c" d="M57.4,75.53c0,.73-.04,1.39-.11,2-.07,.61-.18,1.18-.33,1.72-.15,.54-.36,1.07-.63,1.6-.27,.53-.6,1.08-1,1.67l-4.77,7.16c-.12,.19-.25,.34-.4,.46-.15,.12-.33,.22-.54,.3-.21,.08-.46,.15-.75,.19-.29,.05-.65,.07-1.07,.07-.4,0-.73-.02-1-.05s-.46-.1-.58-.19c-.12-.09-.18-.21-.19-.33-.01-.13,.03-.3,.12-.51l4.6-9.58v-4.49c0-.63,.07-1.13,.21-1.51,.14-.37,.35-.65,.61-.84,.27-.19,.61-.32,1.04-.39s.92-.11,1.51-.11,1.05,.04,1.47,.11c.42,.07,.77,.2,1.04,.39,.27,.19,.47,.47,.6,.84,.13,.38,.19,.88,.19,1.51Zm0-23.06c0,.75-.05,1.38-.16,1.9-.1,.52-.3,.93-.6,1.25-.29,.32-.67,.54-1.14,.67-.47,.13-1.06,.19-1.79,.19s-1.36-.06-1.83-.19c-.47-.13-.84-.35-1.12-.67-.28-.32-.47-.73-.58-1.25-.11-.51-.16-1.15-.16-1.9,0-.8,.05-1.46,.16-1.98,.11-.53,.3-.95,.58-1.26,.28-.32,.66-.54,1.12-.67,.47-.13,1.08-.19,1.83-.19s1.32,.06,1.79,.19c.47,.13,.85,.35,1.14,.67,.29,.32,.49,.74,.6,1.26,.11,.53,.16,1.19,.16,1.98Z"/><path class="c" d="M82.29,62.82c0,.91-.1,1.54-.32,1.9-.21,.35-.52,.53-.91,.53h-14.67c-.42,0-.74-.18-.95-.54s-.32-.99-.32-1.88,.11-1.51,.32-1.86,.53-.53,.95-.53h14.67c.19,0,.36,.04,.51,.11,.15,.07,.28,.21,.39,.4,.11,.2,.19,.45,.25,.75s.09,.68,.09,1.12Z"/><path class="c" d="M104.3,62.82c0,.91-.1,1.54-.32,1.9-.21,.35-.52,.53-.91,.53h-14.67c-.42,0-.74-.18-.95-.54s-.32-.99-.32-1.88,.11-1.51,.32-1.86,.53-.53,.95-.53h14.67c.19,0,.36,.04,.51,.11,.15,.07,.28,.21,.39,.4,.11,.2,.19,.45,.25,.75s.09,.68,.09,1.12Z"/><path class="c" d="M139.3,79.67c0,.19-.05,.35-.14,.47-.09,.13-.25,.24-.46,.33-.21,.09-.5,.16-.88,.21-.37,.05-.84,.07-1.4,.07s-1.06-.02-1.44-.07c-.38-.05-.67-.12-.88-.21-.21-.09-.36-.2-.46-.33-.09-.13-.14-.29-.14-.47v-18.5c0-1.8-.14-3.25-.42-4.35-.28-1.1-.69-2.05-1.23-2.84-.54-.79-1.23-1.4-2.09-1.83-.85-.42-1.84-.63-2.97-.63-1.45,0-2.9,.52-4.35,1.54-1.45,1.03-2.97,2.54-4.56,4.53v22.08c0,.19-.05,.35-.14,.47-.09,.13-.25,.24-.46,.33-.21,.09-.5,.16-.88,.21-.37,.05-.85,.07-1.44,.07s-1.03-.02-1.4-.07c-.37-.05-.67-.12-.9-.21-.22-.09-.37-.2-.46-.33-.08-.13-.12-.29-.12-.47V32.77c0-.19,.04-.35,.12-.49,.08-.14,.23-.26,.46-.35,.22-.09,.52-.16,.9-.21,.37-.05,.84-.07,1.4-.07s1.06,.02,1.44,.07c.37,.05,.67,.12,.88,.21,.21,.09,.36,.21,.46,.35,.09,.14,.14,.3,.14,.49v18.92c1.66-1.76,3.33-3.06,5.02-3.91,1.69-.85,3.38-1.28,5.09-1.28,2.11,0,3.88,.36,5.32,1.07,1.44,.71,2.6,1.67,3.49,2.86,.89,1.19,1.53,2.59,1.91,4.2,.39,1.6,.58,3.54,.58,5.81v19.24Z"/><path class="c" d="M173.67,79.71c0,.28-.09,.49-.28,.63-.19,.14-.44,.25-.77,.32-.33,.07-.81,.1-1.44,.1s-1.09-.04-1.46-.1c-.36-.07-.63-.18-.79-.32-.16-.14-.25-.35-.25-.63v-3.16c-1.38,1.47-2.92,2.62-4.62,3.44-1.7,.82-3.49,1.23-5.39,1.23-1.66,0-3.17-.22-4.51-.65s-2.49-1.06-3.44-1.88c-.95-.82-1.69-1.83-2.21-3.02-.53-1.19-.79-2.55-.79-4.07,0-1.78,.36-3.32,1.09-4.63,.73-1.31,1.77-2.4,3.12-3.26,1.36-.87,3.02-1.52,4.98-1.95,1.97-.43,4.18-.65,6.64-.65h4.35v-2.46c0-1.22-.13-2.29-.39-3.23-.26-.94-.67-1.71-1.25-2.33-.57-.62-1.32-1.09-2.23-1.4-.91-.32-2.04-.47-3.37-.47-1.43,0-2.71,.17-3.84,.51-1.14,.34-2.13,.71-2.98,1.12-.85,.41-1.57,.78-2.14,1.12-.57,.34-1,.51-1.28,.51-.19,0-.35-.05-.49-.14-.14-.09-.26-.23-.37-.42-.11-.19-.18-.43-.23-.72-.05-.29-.07-.61-.07-.97,0-.58,.04-1.05,.12-1.39,.08-.34,.28-.66,.6-.97s.86-.66,1.63-1.07c.77-.41,1.66-.78,2.67-1.12,1.01-.34,2.11-.62,3.3-.84,1.19-.22,2.4-.33,3.62-.33,2.27,0,4.2,.26,5.79,.77,1.59,.52,2.88,1.27,3.86,2.26s1.7,2.23,2.14,3.7c.44,1.47,.67,3.19,.67,5.16v21.31Zm-5.76-14.43h-4.95c-1.59,0-2.97,.13-4.14,.4-1.17,.27-2.14,.67-2.91,1.19-.77,.53-1.34,1.16-1.7,1.9s-.54,1.59-.54,2.54c0,1.64,.52,2.94,1.56,3.91s2.5,1.46,4.37,1.46c1.52,0,2.93-.39,4.23-1.16s2.66-1.95,4.09-3.55v-6.71Z"/><path class="c" d="M209.02,48c0,.09,0,.19-.02,.3s-.03,.22-.05,.33c-.02,.12-.05,.25-.09,.39s-.08,.29-.12,.46l-10.78,30.02c-.09,.26-.22,.47-.37,.63-.15,.16-.38,.29-.68,.39-.3,.09-.69,.16-1.16,.19-.47,.03-1.05,.05-1.75,.05s-1.29-.02-1.75-.07c-.47-.05-.85-.12-1.14-.21s-.52-.22-.68-.39c-.16-.16-.29-.36-.39-.6l-10.74-30.02c-.09-.28-.17-.53-.23-.74-.06-.21-.09-.37-.11-.47-.01-.1-.02-.19-.02-.26,0-.19,.05-.35,.14-.49,.09-.14,.25-.25,.47-.33,.22-.08,.51-.13,.88-.16,.36-.02,.81-.04,1.35-.04,.68,0,1.22,.02,1.63,.05,.41,.04,.72,.1,.95,.19,.22,.09,.39,.21,.49,.35,.1,.14,.2,.32,.3,.53l8.92,26.05,.14,.42,.11-.42,8.81-26.05c.05-.21,.13-.39,.25-.53,.12-.14,.29-.26,.51-.35,.22-.09,.53-.16,.91-.19,.39-.04,.9-.05,1.53-.05,.54,0,.98,.01,1.33,.04,.35,.02,.63,.08,.83,.18,.2,.09,.34,.21,.42,.33,.08,.13,.12,.29,.12,.47Z"/><path class="c" d="M241.85,62.5c0,.91-.23,1.56-.69,1.95-.46,.39-.98,.58-1.57,.58h-20.81c0,1.76,.18,3.33,.53,4.74s.94,2.61,1.76,3.62c.82,1.01,1.89,1.78,3.21,2.32,1.32,.54,2.93,.81,4.83,.81,1.51,0,2.85-.12,4.02-.37s2.19-.52,3.05-.83c.86-.3,1.56-.58,2.12-.82s.97-.37,1.25-.37c.16,0,.31,.04,.44,.12,.13,.08,.23,.21,.3,.37s.12,.39,.16,.68c.04,.29,.05,.65,.05,1.07,0,.3-.01,.57-.04,.79-.02,.22-.05,.42-.09,.6-.04,.18-.09,.33-.17,.47-.08,.14-.19,.28-.32,.4-.13,.13-.51,.34-1.14,.63-.63,.29-1.45,.58-2.46,.86-1.01,.28-2.17,.53-3.49,.75-1.32,.22-2.73,.33-4.23,.33-2.6,0-4.87-.36-6.83-1.09s-3.6-1.8-4.93-3.23c-1.33-1.43-2.34-3.22-3.02-5.37-.68-2.15-1.02-4.66-1.02-7.51s.35-5.15,1.05-7.32c.7-2.16,1.71-4,3.04-5.51,1.32-1.51,2.92-2.67,4.79-3.48,1.87-.81,3.97-1.21,6.28-1.21,2.48,0,4.59,.4,6.34,1.19,1.74,.8,3.18,1.87,4.3,3.21,1.12,1.35,1.95,2.93,2.47,4.74,.53,1.81,.79,3.75,.79,5.81v1.05Zm-5.83-1.72c.07-3.04-.61-5.43-2.03-7.16-1.42-1.73-3.54-2.6-6.34-2.6-1.44,0-2.7,.27-3.78,.81-1.08,.54-1.99,1.25-2.72,2.14-.73,.89-1.29,1.93-1.7,3.11-.4,1.18-.62,2.42-.67,3.7h17.24Z"/><path class="c" d="M273.37,37.4c0,1.36-.26,2.28-.77,2.77-.52,.49-1.46,.74-2.84,.74s-2.29-.24-2.79-.72c-.5-.48-.76-1.39-.76-2.72s.26-2.28,.77-2.77c.51-.49,1.46-.74,2.84-.74s2.29,.24,2.79,.72c.5,.48,.75,1.39,.75,2.72Zm-.67,42.27c0,.19-.05,.35-.14,.47-.09,.13-.25,.24-.46,.33s-.5,.16-.88,.21c-.38,.05-.86,.07-1.44,.07s-1.03-.02-1.4-.07c-.38-.05-.67-.12-.9-.21s-.37-.2-.46-.33c-.08-.13-.12-.29-.12-.47v-31.6c0-.16,.04-.32,.12-.46,.08-.14,.23-.26,.46-.35,.22-.09,.52-.16,.9-.21,.37-.05,.84-.07,1.4-.07s1.06,.02,1.44,.07c.37,.05,.67,.12,.88,.21,.21,.09,.36,.21,.46,.35,.09,.14,.14,.29,.14,.46v31.6Z"/><path class="c" d="M328.73,63.45c0,2.74-.3,5.2-.89,7.39s-1.47,4.05-2.63,5.6c-1.16,1.54-2.58,2.73-4.27,3.55-1.69,.82-3.62,1.23-5.79,1.23-1.01,0-1.94-.1-2.79-.3-.85-.2-1.69-.52-2.51-.97-.82-.44-1.64-1.01-2.46-1.69s-1.69-1.5-2.6-2.46v3.86c0,.19-.05,.35-.14,.49-.09,.14-.25,.25-.46,.33-.21,.08-.47,.15-.79,.19-.32,.05-.72,.07-1.21,.07s-.87-.02-1.19-.07c-.33-.05-.6-.11-.81-.19-.21-.08-.35-.19-.42-.33-.07-.14-.11-.3-.11-.49V32.77c0-.19,.04-.35,.12-.49,.08-.14,.23-.26,.46-.35,.22-.09,.52-.16,.9-.21,.37-.05,.84-.07,1.4-.07s1.06,.02,1.44,.07c.37,.05,.67,.12,.88,.21,.21,.09,.36,.21,.46,.35,.09,.14,.14,.3,.14,.49v18.92c.94-.96,1.84-1.77,2.72-2.42,.88-.65,1.74-1.19,2.58-1.6,.84-.41,1.68-.71,2.53-.9,.84-.19,1.73-.28,2.67-.28,2.29,0,4.25,.46,5.88,1.37,1.63,.91,2.95,2.14,3.97,3.67,1.02,1.53,1.76,3.33,2.23,5.39,.47,2.06,.7,4.24,.7,6.53Zm-6,.67c0-1.61-.12-3.18-.37-4.7-.25-1.52-.68-2.87-1.29-4.04-.61-1.17-1.43-2.11-2.44-2.83-1.01-.71-2.27-1.07-3.78-1.07-.75,0-1.5,.1-2.22,.32-.73,.21-1.47,.56-2.23,1.05-.75,.49-1.54,1.12-2.35,1.9-.81,.77-1.68,1.74-2.59,2.91v12.6c1.6,1.94,3.13,3.42,4.59,4.44,1.46,1.02,2.98,1.53,4.56,1.53,1.46,0,2.71-.35,3.74-1.05,1.04-.7,1.88-1.63,2.53-2.79,.65-1.16,1.12-2.46,1.41-3.9,.29-1.44,.44-2.9,.44-4.37Z"/><path class="c" d="M364.4,62.5c0,.91-.23,1.56-.69,1.95-.46,.39-.98,.58-1.57,.58h-20.81c0,1.76,.18,3.33,.53,4.74,.35,1.4,.94,2.61,1.76,3.62,.82,1.01,1.89,1.78,3.21,2.32,1.32,.54,2.93,.81,4.83,.81,1.51,0,2.85-.12,4.02-.37s2.19-.52,3.05-.83c.86-.3,1.56-.58,2.12-.82s.97-.37,1.25-.37c.17,0,.31,.04,.44,.12s.23,.21,.3,.37,.12,.39,.16,.68c.04,.29,.05,.65,.05,1.07,0,.3-.01,.57-.04,.79-.02,.22-.05,.42-.09,.6-.04,.18-.09,.33-.18,.47-.08,.14-.19,.28-.32,.4-.13,.13-.51,.34-1.14,.63-.63,.29-1.45,.58-2.46,.86s-2.17,.53-3.49,.75c-1.32,.22-2.73,.33-4.23,.33-2.6,0-4.88-.36-6.83-1.09-1.96-.73-3.6-1.8-4.93-3.23-1.33-1.43-2.34-3.22-3.02-5.37-.68-2.15-1.02-4.66-1.02-7.51s.35-5.15,1.05-7.32c.7-2.16,1.71-4,3.04-5.51,1.32-1.51,2.92-2.67,4.79-3.48,1.87-.81,3.97-1.21,6.28-1.21,2.48,0,4.59,.4,6.34,1.19,1.74,.8,3.18,1.87,4.3,3.21,1.12,1.35,1.95,2.93,2.47,4.74,.53,1.81,.79,3.75,.79,5.81v1.05Zm-5.83-1.72c.07-3.04-.61-5.43-2.03-7.16-1.42-1.73-3.54-2.6-6.34-2.6-1.44,0-2.7,.27-3.78,.81-1.08,.54-1.99,1.25-2.72,2.14-.73,.89-1.29,1.93-1.7,3.11-.4,1.18-.62,2.42-.67,3.7h17.24Z"/><path class="c" d="M400.17,62.5c0,.91-.23,1.56-.69,1.95-.46,.39-.98,.58-1.57,.58h-20.81c0,1.76,.18,3.33,.53,4.74,.35,1.4,.94,2.61,1.76,3.62,.82,1.01,1.89,1.78,3.21,2.32,1.32,.54,2.93,.81,4.83,.81,1.51,0,2.85-.12,4.02-.37s2.19-.52,3.05-.83c.86-.3,1.56-.58,2.12-.82s.97-.37,1.25-.37c.16,0,.31,.04,.44,.12,.13,.08,.23,.21,.3,.37s.12,.39,.16,.68c.04,.29,.05,.65,.05,1.07,0,.3-.01,.57-.04,.79-.02,.22-.05,.42-.09,.6-.04,.18-.09,.33-.17,.47-.08,.14-.19,.28-.32,.4-.13,.13-.51,.34-1.14,.63-.63,.29-1.45,.58-2.46,.86-1.01,.28-2.17,.53-3.49,.75-1.32,.22-2.73,.33-4.23,.33-2.6,0-4.87-.36-6.83-1.09-1.95-.73-3.6-1.8-4.93-3.23-1.33-1.43-2.34-3.22-3.02-5.37-.68-2.15-1.02-4.66-1.02-7.51s.35-5.15,1.05-7.32c.7-2.16,1.71-4,3.04-5.51,1.32-1.51,2.92-2.67,4.79-3.48s3.97-1.21,6.29-1.21c2.48,0,4.59,.4,6.34,1.19,1.74,.8,3.18,1.87,4.3,3.21,1.12,1.35,1.95,2.93,2.47,4.74,.53,1.81,.79,3.75,.79,5.81v1.05Zm-5.83-1.72c.07-3.04-.61-5.43-2.03-7.16-1.43-1.73-3.54-2.6-6.34-2.6-1.44,0-2.7,.27-3.78,.81-1.08,.54-1.99,1.25-2.72,2.14-.73,.89-1.29,1.93-1.7,3.11-.4,1.18-.62,2.42-.67,3.7h17.24Z"/><path class="c" d="M436.19,79.67c0,.19-.05,.35-.14,.47-.09,.13-.25,.24-.46,.33s-.5,.16-.88,.21c-.38,.05-.84,.07-1.4,.07s-1.07-.02-1.44-.07c-.38-.05-.67-.12-.88-.21-.21-.09-.36-.2-.46-.33-.09-.13-.14-.29-.14-.47v-18.5c0-1.8-.14-3.25-.42-4.35-.28-1.1-.69-2.05-1.23-2.84-.54-.79-1.23-1.4-2.09-1.83-.86-.42-1.84-.63-2.97-.63-1.45,0-2.9,.52-4.35,1.54-1.45,1.03-2.97,2.54-4.56,4.53v22.08c0,.19-.05,.35-.14,.47-.09,.13-.25,.24-.46,.33s-.5,.16-.88,.21c-.38,.05-.86,.07-1.44,.07s-1.03-.02-1.4-.07c-.38-.05-.67-.12-.9-.21s-.37-.2-.46-.33c-.08-.13-.12-.29-.12-.47v-31.6c0-.19,.04-.35,.11-.47,.07-.13,.21-.25,.42-.35,.21-.1,.48-.18,.81-.21,.33-.04,.76-.05,1.3-.05s.94,.02,1.28,.05c.34,.04,.6,.11,.79,.21,.19,.11,.32,.22,.4,.35,.08,.13,.12,.29,.12,.47v4.18c1.78-1.99,3.55-3.45,5.32-4.37,1.77-.92,3.55-1.39,5.35-1.39,2.11,0,3.88,.36,5.32,1.07,1.44,.71,2.6,1.67,3.49,2.86,.89,1.19,1.53,2.59,1.91,4.2s.58,3.53,.58,5.77v19.27Z"/><path class="c" d="M492.08,63.38c0,2.76-.3,5.24-.89,7.44-.6,2.2-1.47,4.07-2.63,5.6-1.16,1.53-2.59,2.72-4.3,3.55s-3.66,1.25-5.86,1.25c-.94,0-1.8-.09-2.6-.28-.79-.19-1.57-.48-2.33-.88-.76-.4-1.52-.9-2.26-1.51-.75-.61-1.54-1.32-2.39-2.14v15.8c0,.19-.05,.35-.14,.49-.09,.14-.25,.26-.46,.35-.21,.09-.5,.16-.88,.21-.38,.05-.86,.07-1.44,.07s-1.03-.02-1.4-.07c-.38-.05-.67-.12-.9-.21-.22-.09-.37-.21-.46-.35-.08-.14-.12-.3-.12-.49V48.08c0-.21,.04-.38,.11-.51,.07-.13,.21-.24,.42-.33,.21-.09,.48-.16,.81-.19,.33-.04,.72-.05,1.19-.05,.49,0,.89,.02,1.21,.05s.58,.1,.79,.19c.21,.09,.36,.21,.44,.33,.08,.13,.12,.3,.12,.51v4.25c.96-.98,1.88-1.84,2.77-2.56,.89-.73,1.79-1.33,2.69-1.81,.9-.48,1.83-.84,2.77-1.09,.95-.25,1.95-.37,3-.37,2.29,0,4.25,.45,5.86,1.33,1.62,.89,2.93,2.11,3.95,3.65,1.02,1.54,1.76,3.34,2.23,5.39,.47,2.05,.7,4.22,.7,6.51Zm-6,.67c0-1.62-.12-3.18-.37-4.69-.25-1.51-.67-2.85-1.27-4.02-.6-1.17-1.41-2.11-2.42-2.81-1.01-.7-2.27-1.05-3.78-1.05-.75,0-1.5,.11-2.22,.33-.73,.22-1.47,.57-2.23,1.05-.75,.48-1.54,1.11-2.37,1.9-.82,.78-1.7,1.75-2.61,2.9v12.57c1.6,1.94,3.12,3.43,4.55,4.46,1.44,1.03,2.95,1.54,4.52,1.54,1.46,0,2.71-.35,3.76-1.05s1.9-1.64,2.54-2.81c.65-1.17,1.12-2.48,1.43-3.93,.3-1.45,.46-2.91,.46-4.39Z"/><path class="c" d="M544.63,48c0,.16-.02,.36-.07,.6-.05,.23-.13,.53-.25,.88l-9.3,30.02c-.07,.26-.18,.47-.33,.63-.15,.16-.36,.29-.63,.39s-.64,.16-1.11,.19c-.47,.03-1.05,.05-1.76,.05s-1.33-.02-1.83-.07c-.49-.05-.88-.12-1.18-.21s-.51-.22-.65-.39c-.14-.16-.25-.36-.32-.6l-6.63-22.92-.07-.32-.07,.32-6.14,22.92c-.07,.26-.18,.47-.33,.63-.15,.16-.38,.29-.69,.39s-.7,.16-1.18,.19c-.48,.03-1.07,.05-1.77,.05s-1.32-.02-1.77-.07c-.46-.05-.83-.12-1.12-.21-.29-.09-.51-.22-.65-.39-.14-.16-.25-.36-.32-.6l-9.23-30.02c-.12-.35-.2-.64-.25-.88-.05-.23-.07-.43-.07-.6,0-.21,.05-.38,.14-.51,.09-.13,.25-.23,.47-.32,.22-.08,.52-.13,.89-.16,.38-.02,.83-.04,1.37-.04,.66,0,1.18,.02,1.58,.05s.7,.09,.91,.18c.21,.08,.36,.2,.46,.35,.09,.15,.18,.33,.25,.54l7.62,26.05,.07,.32,.07-.32,6.99-26.05c.05-.21,.12-.39,.23-.54,.11-.15,.26-.27,.47-.35,.21-.08,.5-.14,.86-.18s.84-.05,1.42-.05,1.02,.02,1.39,.05c.36,.04,.65,.09,.86,.18,.21,.08,.36,.19,.46,.33,.09,.14,.16,.3,.21,.49l7.55,26.12,.07,.32,.04-.32,7.51-26.05c.05-.21,.12-.39,.23-.54,.11-.15,.27-.27,.49-.35,.22-.08,.53-.14,.91-.18,.39-.04,.88-.05,1.49-.05,.56,0,1.01,.01,1.35,.04,.34,.02,.61,.08,.81,.18,.2,.09,.34,.2,.42,.32,.08,.12,.12,.28,.12,.49Z"/><path class="c" d="M579.04,79.67c0,.19-.05,.35-.14,.47-.09,.13-.25,.24-.46,.33s-.5,.16-.88,.21c-.38,.05-.84,.07-1.4,.07s-1.07-.02-1.44-.07c-.38-.05-.67-.12-.88-.21-.21-.09-.36-.2-.46-.33-.09-.13-.14-.29-.14-.47v-18.5c0-1.8-.14-3.25-.42-4.35-.28-1.1-.69-2.05-1.23-2.84-.54-.79-1.23-1.4-2.09-1.83-.86-.42-1.84-.63-2.97-.63-1.45,0-2.9,.52-4.35,1.54-1.45,1.03-2.97,2.54-4.56,4.53v22.08c0,.19-.05,.35-.14,.47-.09,.13-.25,.24-.46,.33s-.5,.16-.88,.21c-.38,.05-.86,.07-1.44,.07s-1.03-.02-1.4-.07c-.38-.05-.67-.12-.9-.21s-.37-.2-.46-.33c-.08-.13-.12-.29-.12-.47v-31.6c0-.19,.04-.35,.11-.47,.07-.13,.21-.25,.42-.35,.21-.1,.48-.18,.81-.21,.33-.04,.76-.05,1.3-.05s.94,.02,1.28,.05c.34,.04,.6,.11,.79,.21,.19,.11,.32,.22,.4,.35,.08,.13,.12,.29,.12,.47v4.18c1.78-1.99,3.55-3.45,5.32-4.37,1.77-.92,3.55-1.39,5.35-1.39,2.11,0,3.88,.36,5.32,1.07,1.44,.71,2.6,1.67,3.49,2.86,.89,1.19,1.53,2.59,1.91,4.2s.58,3.53,.58,5.77v19.27Z"/><path class="c" d="M616.56,62.5c0,.91-.23,1.56-.69,1.95-.46,.39-.98,.58-1.57,.58h-20.81c0,1.76,.18,3.33,.53,4.74,.35,1.4,.94,2.61,1.76,3.62,.82,1.01,1.89,1.78,3.21,2.32,1.32,.54,2.93,.81,4.83,.81,1.51,0,2.85-.12,4.02-.37s2.19-.52,3.05-.83c.86-.3,1.56-.58,2.12-.82s.97-.37,1.25-.37c.17,0,.31,.04,.44,.12s.23,.21,.3,.37,.12,.39,.16,.68c.04,.29,.05,.65,.05,1.07,0,.3-.01,.57-.04,.79-.02,.22-.05,.42-.09,.6-.04,.18-.09,.33-.18,.47-.08,.14-.19,.28-.32,.4-.13,.13-.51,.34-1.14,.63-.63,.29-1.45,.58-2.46,.86s-2.17,.53-3.49,.75c-1.32,.22-2.73,.33-4.23,.33-2.6,0-4.88-.36-6.83-1.09-1.96-.73-3.6-1.8-4.93-3.23-1.33-1.43-2.34-3.22-3.02-5.37-.68-2.15-1.02-4.66-1.02-7.51s.35-5.15,1.05-7.32c.7-2.16,1.71-4,3.04-5.51,1.32-1.51,2.92-2.67,4.79-3.48,1.87-.81,3.97-1.21,6.28-1.21,2.48,0,4.59,.4,6.34,1.19,1.74,.8,3.18,1.87,4.3,3.21,1.12,1.35,1.95,2.93,2.47,4.74,.53,1.81,.79,3.75,.79,5.81v1.05Zm-5.83-1.72c.07-3.04-.61-5.43-2.03-7.16-1.42-1.73-3.54-2.6-6.34-2.6-1.44,0-2.7,.27-3.78,.81-1.08,.54-1.99,1.25-2.72,2.14-.73,.89-1.29,1.93-1.7,3.11-.4,1.18-.62,2.42-.67,3.7h17.24Z"/><path class="c" d="M652.44,79.67c0,.19-.04,.35-.12,.49-.08,.14-.22,.25-.42,.33-.2,.08-.46,.15-.79,.19-.33,.05-.72,.07-1.19,.07s-.9-.02-1.23-.07c-.33-.05-.6-.11-.81-.19-.21-.08-.36-.19-.46-.33-.09-.14-.14-.3-.14-.49v-4.18c-1.66,1.8-3.39,3.21-5.18,4.21-1.79,1.01-3.75,1.51-5.88,1.51-2.32,0-4.29-.45-5.93-1.35-1.64-.9-2.97-2.12-3.98-3.65-1.02-1.53-1.76-3.33-2.23-5.41s-.7-4.25-.7-6.55c0-2.71,.29-5.17,.88-7.35,.58-2.19,1.45-4.05,2.6-5.6,1.15-1.54,2.57-2.73,4.27-3.56,1.7-.83,3.66-1.25,5.88-1.25,1.85,0,3.54,.4,5.07,1.21s3.05,2,4.55,3.56v-18.36c0-.16,.04-.32,.12-.47,.08-.15,.24-.27,.47-.35,.23-.08,.53-.15,.9-.21,.36-.06,.82-.09,1.38-.09s1.07,.03,1.44,.09c.38,.06,.67,.13,.88,.21,.21,.08,.37,.2,.47,.35,.11,.15,.16,.31,.16,.47v46.76Zm-5.83-22.22c-1.57-1.94-3.08-3.42-4.55-4.44s-2.99-1.53-4.58-1.53c-1.47,0-2.73,.35-3.76,1.05s-1.87,1.63-2.51,2.77c-.64,1.15-1.11,2.45-1.4,3.9-.29,1.45-.44,2.93-.44,4.42,0,1.59,.12,3.15,.37,4.67,.25,1.52,.67,2.87,1.28,4.05,.61,1.18,1.42,2.13,2.42,2.84s2.27,1.07,3.79,1.07c.77,0,1.51-.11,2.23-.32,.71-.21,1.45-.56,2.19-1.05,.75-.49,1.53-1.13,2.35-1.91,.82-.78,1.68-1.75,2.6-2.9v-12.64Z"/><path class="c" d="M687.79,45.76c0,2.06-.29,3.89-.88,5.48-.59,1.59-1.4,2.95-2.46,4.07-1.05,1.12-2.32,2-3.79,2.63s-3.11,1.01-4.91,1.12l-.25,8.46c0,.35-.21,.61-.61,.79-.41,.18-1.07,.26-1.98,.26-.49,0-.91-.02-1.26-.05-.35-.03-.63-.09-.84-.18-.21-.08-.36-.19-.46-.33s-.14-.3-.14-.49l-.21-9.72c-.02-.54,.02-.98,.12-1.32,.11-.34,.26-.62,.47-.84,.21-.22,.48-.37,.81-.46s.7-.12,1.12-.12h.77c1.52,0,2.82-.24,3.9-.72,1.08-.48,1.95-1.12,2.62-1.91,.67-.8,1.15-1.73,1.46-2.81,.3-1.08,.46-2.2,.46-3.37,0-1.33-.19-2.56-.56-3.67-.38-1.11-.94-2.07-1.69-2.88-.75-.81-1.69-1.43-2.83-1.88-1.13-.44-2.47-.67-4.02-.67-1.36,0-2.54,.15-3.56,.44-1.02,.29-1.9,.61-2.65,.97-.75,.35-1.36,.67-1.84,.95s-.84,.42-1.07,.42c-.16,0-.31-.04-.44-.11s-.24-.2-.33-.4c-.09-.2-.16-.47-.21-.81s-.07-.77-.07-1.28c0-.56,.04-.99,.11-1.28,.07-.29,.22-.55,.46-.77,.23-.22,.69-.51,1.35-.88,.67-.36,1.47-.7,2.42-1,.95-.3,1.99-.56,3.12-.77,1.13-.21,2.31-.32,3.53-.32,2.5,0,4.66,.36,6.46,1.07,1.8,.71,3.29,1.68,4.46,2.9,1.17,1.22,2.04,2.65,2.6,4.28,.56,1.64,.84,3.37,.84,5.2Zm-11.09,31.14c0,.77-.05,1.41-.16,1.91-.11,.5-.3,.91-.58,1.23-.28,.32-.66,.54-1.14,.67-.48,.13-1.07,.19-1.77,.19-.75,0-1.36-.06-1.83-.19-.47-.13-.85-.35-1.14-.67-.29-.32-.49-.73-.6-1.23-.11-.5-.16-1.14-.16-1.91s.05-1.42,.16-1.95c.11-.53,.3-.94,.6-1.23,.29-.29,.67-.5,1.14-.63,.47-.13,1.08-.19,1.83-.19,.7,0,1.29,.06,1.77,.19,.48,.13,.86,.34,1.14,.63,.28,.29,.47,.7,.58,1.23,.11,.53,.16,1.18,.16,1.95Z"/></g></g></svg>