<?xml version="1.0" encoding="UTF-8"?>
<svg xmlns="http://www.w3.org/2000/svg" version="1.1" xmlns:xlink="http://www.w3.org/1999/xlink" viewBox="0 0 1200 800">
  <!-- Generator: Adobe Illustrator 29.5.1, SVG Export Plug-In . SVG Version: 2.1.0 Build 141)  -->
  <defs>
    <style>
      .st0 {
        fill: url(#linear-gradient2);
      }

      .st1 {
        fill: url(#linear-gradient10);
      }

      .st2 {
        fill: url(#linear-gradient1);
      }

      .st3 {
        fill: url(#linear-gradient9);
      }

      .st4 {
        fill: url(#linear-gradient18);
      }

      .st5 {
        fill: url(#linear-gradient8);
      }

      .st6 {
        fill: url(#linear-gradient11);
      }

      .st7 {
        fill: url(#radial-gradient);
      }

      .st8 {
        fill: url(#linear-gradient16);
      }

      .st9 {
        fill: url(#linear-gradient12);
      }

      .st10 {
        fill: url(#linear-gradient7);
      }

      .st11 {
        fill: url(#linear-gradient4);
      }

      .st12 {
        fill: url(#linear-gradient14);
      }

      .st13 {
        fill: url(#linear-gradient5);
      }

      .st14 {
        fill: url(#linear-gradient3);
      }

      .st15 {
        fill: url(#linear-gradient15);
      }

      .st16 {
        fill: url(#linear-gradient17);
      }

      .st17 {
        fill: url(#linear-gradient6);
      }

      .st18 {
        fill: url(#linear-gradient13);
      }

      .st19 {
        fill: url(#linear-gradient);
      }
    </style>
    <radialGradient id="radial-gradient" cx="84.5" cy="109.9" fx="70.8" fy="174.2" r="225.4" gradientTransform="translate(417.4 118.6) scale(2.2 2.6)" gradientUnits="userSpaceOnUse">
      <stop offset="0" stop-color="#0a2331"/>
      <stop offset=".4" stop-color="#081a24"/>
      <stop offset="1" stop-color="#030304"/>
      <stop offset="1" stop-color="#030304"/>
    </radialGradient>
    <linearGradient id="linear-gradient" x1="302.6" y1="549.3" x2="-224.3" y2="692.6" gradientTransform="translate(564 1035.6) scale(1 -1)" gradientUnits="userSpaceOnUse">
      <stop offset="0" stop-color="#1d72a7"/>
      <stop offset="1" stop-color="#c8e5f8"/>
    </linearGradient>
    <linearGradient id="linear-gradient1" x1="305.7" y1="560.7" x2="-221.2" y2="704" xlink:href="#linear-gradient"/>
    <linearGradient id="linear-gradient2" x1="312.2" y1="584.7" x2="-214.6" y2="728" xlink:href="#linear-gradient"/>
    <linearGradient id="linear-gradient3" x1="316.7" y1="601.3" x2="-210.1" y2="744.5" xlink:href="#linear-gradient"/>
    <linearGradient id="linear-gradient4" x1="325.1" y1="632" x2="-201.8" y2="775.2" xlink:href="#linear-gradient"/>
    <linearGradient id="linear-gradient5" x1="330" y1="650.1" x2="-196.9" y2="793.4" xlink:href="#linear-gradient"/>
    <linearGradient id="linear-gradient6" x1="334.2" y1="665.7" x2="-192.6" y2="808.9" xlink:href="#linear-gradient"/>
    <linearGradient id="linear-gradient7" x1="339.8" y1="686.2" x2="-187.1" y2="829.4" xlink:href="#linear-gradient"/>
    <linearGradient id="linear-gradient8" x1="344.9" y1="704.8" x2="-182" y2="848.1" xlink:href="#linear-gradient"/>
    <linearGradient id="linear-gradient9" x1="278.2" y1="459.6" x2="-248.7" y2="602.8" xlink:href="#linear-gradient"/>
    <linearGradient id="linear-gradient10" x1="284.4" y1="482.2" x2="-242.5" y2="625.4" xlink:href="#linear-gradient"/>
    <linearGradient id="linear-gradient11" x1="290.2" y1="503.9" x2="-236.6" y2="647.1" xlink:href="#linear-gradient"/>
    <linearGradient id="linear-gradient12" x1="296.4" y1="526.5" x2="-230.5" y2="669.7" xlink:href="#linear-gradient"/>
    <linearGradient id="linear-gradient13" x1="306.1" y1="562.1" x2="-220.8" y2="705.3" xlink:href="#linear-gradient"/>
    <linearGradient id="linear-gradient14" x1="273.2" y1="441.2" x2="-253.7" y2="584.5" xlink:href="#linear-gradient"/>
    <linearGradient id="linear-gradient15" x1="271.1" y1="433.5" x2="-255.8" y2="576.7" xlink:href="#linear-gradient"/>
    <linearGradient id="linear-gradient16" x1="261.2" y1="397.2" x2="-265.6" y2="540.4" xlink:href="#linear-gradient"/>
    <linearGradient id="linear-gradient17" x1="270.8" y1="432.5" x2="-256" y2="575.7" xlink:href="#linear-gradient"/>
    <linearGradient id="linear-gradient18" x1="269.8" y1="428.9" x2="-257" y2="572.1" xlink:href="#linear-gradient"/>
  </defs>
  <g id="Background_Gradient">
    <rect class="st7" width="1200" height="800"/>
  </g>
  <g id="Logo">
    <g>
      <path class="st19" d="M225,375.5l19.2-98.8h23.3l-7.6,38.8h39l7.6-38.8h23.3l-19.2,98.8h-23.3l8-41.1h-39l-8,41.1h-23.3Z"/>
      <path class="st2" d="M353.6,323.2h-22.2c4.9-18.6,19.9-28.3,40.3-28.3s30.5,10.8,30.5,25-.3,4.5-.7,7l-5.7,29.2c-1.5,7.6-1.9,12.1-1.9,15.6s.1,2.8.3,3.9h-23c-.1-.6-.1-1.3-.1-2.2,0-1.6.1-3.6.4-6-7.6,7.3-16.7,10.5-25.1,10.5-13.7,0-23.7-7.1-23.7-20.8s7.1-20.1,20.5-24.6c11.9-3.9,20.1-4.7,35.9-4.8l.3-1.7c.3-1.5.4-2.8.4-4.1,0-6-3.6-9-11.2-9s-12.8,4.2-15,10.3ZM345.6,354.7c0,5.2,3.3,7.7,9,7.7,10,0,19.2-8,21.2-18.7l.6-3.1c-24,.4-30.8,6.2-30.8,14.1Z"/>
      <path class="st0" d="M420,375.5l-12.4-78.2h23.4l5.8,51.7.3,9,3.6-9,26-51.7h23.5l-42.9,78.2h-27.5Z"/>
      <path class="st14" d="M556.1,349.8c-7.1,18.6-24.1,28.1-41.7,28.1s-33.9-11.9-33.9-32.4,18.7-50.6,46.1-50.6,32.3,12.5,32.3,31.8-.3,6.7-.9,10.2l-.7,4.1h-53.8c-.1,1.3-.1,2.5-.1,3.8,0,10.3,4.4,15.4,12.8,15.4s13.5-3.1,16.7-10.3h23.3ZM524.5,312.6c-8.3,0-14.7,6.5-18.2,15.6h30.4v-1c0-9.4-4.2-14.5-12.2-14.5Z"/>
      <path class="st11" d="M582.6,375.5l19.2-98.8h23.3l-19.2,98.8h-23.3Z"/>
      <path class="st13" d="M642.3,375.5l19.2-98.8h40.1c19.2,0,31.2,8.9,31.2,24.4s-4.9,17.7-14.5,22.2c8,3.5,12.1,10.2,12.1,18.7,0,18.7-15.4,33.4-43,33.4h-45.1ZM697.5,295.1h-16.4l-4.2,21.7h15.8c10.6,0,15.6-6,15.6-13.2s-3.6-8.4-10.8-8.4ZM694.2,333.6h-20.5l-4.5,23.4h21.1c10.8,0,16.1-6.7,16.1-14.2s-4.2-9.2-12.2-9.2Z"/>
      <path class="st17" d="M810.4,349.8c-7.1,18.6-24.1,28.1-41.7,28.1s-33.9-11.9-33.9-32.4,18.7-50.6,46.1-50.6,32.3,12.5,32.3,31.8-.3,6.7-.9,10.2l-.7,4.1h-53.8c-.1,1.3-.1,2.5-.1,3.8,0,10.3,4.4,15.4,12.8,15.4s13.5-3.1,16.7-10.3h23.3ZM778.8,312.6c-8.3,0-14.7,6.5-18.2,15.6h30.4v-1c0-9.4-4.2-14.5-12.2-14.5Z"/>
      <path class="st10" d="M891.3,349.8c-7.1,18.6-24.1,28.1-41.7,28.1s-33.9-11.9-33.9-32.4,18.7-50.6,46.1-50.6,32.3,12.5,32.3,31.8-.3,6.7-.9,10.2l-.7,4.1h-53.8c-.1,1.3-.1,2.5-.1,3.8,0,10.3,4.4,15.4,12.8,15.4s13.5-3.1,16.7-10.3h23.3ZM859.8,312.6c-8.3,0-14.7,6.5-18.2,15.6h30.4v-1c0-9.4-4.2-14.5-12.2-14.5Z"/>
      <path class="st5" d="M893.5,375.5l15.1-78.2h22.2l-1.5,7.7c6.2-6.8,14.1-10.2,23-10.2,13.5,0,22.7,8,22.7,23s-.3,5.7-.9,8.9l-9.6,48.8h-22.2l9.3-47.7c.4-1.9.6-3.6.6-5.1,0-6.5-3.2-9.9-9.9-9.9s-15,6.7-17.4,15.7l-9.2,46.9h-22.2Z"/>
      <path class="st3" d="M425.2,521l19.2-99h23.3l-19.2,99h-23.3ZM470.8,488.7h-8.6l3.6-18.5h6.9c4.4,0,8-.8,10.9-2.5,2.9-1.7,5.1-3.9,6.6-6.6,1.5-2.8,2.3-5.9,2.3-9.4s-1.1-6.2-3.4-8.2c-2.2-2-5.6-3-10.1-3h-21.1l3.5-18.5h21.1c10.5,0,18.8,2.5,25,7.4,6.2,4.9,9.3,12,9.3,21.1s-1.8,13.4-5.5,19.1c-3.6,5.7-8.9,10.3-15.8,13.8-6.9,3.5-15.1,5.2-24.7,5.2Z"/>
      <path class="st1" d="M581.4,521l-2.9-48.9.4-12.2h1l-4.5,12.2-22,48.9h-28.5l-4.8-78.3h23.7l.3,51.8-.2,13.1h-1.2l5.4-13.1,23.7-51.8h22.6l3.5,51.8.2,13.1h-1.3l4.8-13.1,20.7-51.8h22.9l-35.4,78.3h-28.4,0Z"/>
      <path class="st6" d="M634.6,521l15.1-78.3h22.3l-15.1,78.3h-22.3ZM665.4,476h-7.4c2.1-8.2,4.9-14.9,8.4-20.2,3.5-5.3,7.5-9.2,12.1-11.8,4.6-2.6,9.6-3.8,15.1-3.8s8.5.9,11.9,2.6c3.4,1.7,6,4.3,7.9,7.7,1.9,3.4,2.8,7.6,2.8,12.7s0,2.8-.2,4.3c-.2,1.5-.4,3-.7,4.6l-9.6,48.9h-22.3l9.3-47.8c.2-1,.3-1.9.4-2.7,0-.8.2-1.6.2-2.4,0-3.3-.8-5.8-2.4-7.4-1.6-1.7-4.1-2.5-7.5-2.5s-4.2.4-6.2,1.3c-2,.9-3.8,2.1-5.4,3.7-1.6,1.6-2.9,3.5-4,5.7-1.1,2.2-1.9,4.5-2.5,7.1h0Z"/>
      <path class="st9" d="M789.3,473.5l-14.3,8.2c.3-1.7.5-3.4.7-4.9.2-1.5.3-2.9.3-4.3,0-4.8-1-8.4-3.1-10.8-2.1-2.5-5.1-3.7-9.1-3.7s-6.1.9-8.7,2.7c-2.6,1.8-4.9,4.2-6.8,7.4-1.9,3.1-3.3,6.6-4.3,10.4-1,3.8-1.5,7.7-1.5,11.7s1.1,9,3.2,11.6c2.1,2.6,5.3,3.8,9.6,3.8s7-.8,9.9-2.4c2.9-1.6,5.2-4.2,6.8-7.9h23.3c-2.4,6.2-5.8,11.4-10.1,15.6-4.3,4.2-9.2,7.3-14.6,9.4-5.4,2.1-11.1,3.1-17,3.1-10.5,0-18.8-2.8-24.8-8.5-6.1-5.7-9.1-13.7-9.1-24s1.1-13.1,3.3-19.2c2.2-6.1,5.3-11.5,9.5-16.2,4.1-4.8,9-8.5,14.7-11.2,5.7-2.7,11.9-4.1,18.7-4.1,10.3,0,18.2,2.9,23.9,8.7,5.6,5.8,8.4,13.5,8.4,23.2s0,3.2-.2,4.9c-.2,1.7-.4,3.5-.7,5.2l-.7,4.1h-67.5l2.3-12.8h58Z"/>
      <path class="st18" d="M826.6,523.3c-5.3,0-10-1.3-13.9-3.8-3.9-2.5-6.9-6.1-9-10.8-2.1-4.7-3.1-10.1-3.1-16.3s1-13.5,3.1-19.7c2-6.3,4.9-11.8,8.7-16.7,3.7-4.9,8.2-8.8,13.3-11.6,5.1-2.8,10.8-4.2,17-4.2s13,2.5,16.9,7.6c3.9,5.1,5.8,12.3,5.8,21.5s-1,14.5-3.1,21c-2.1,6.5-5,12.3-8.7,17.3-3.7,4.9-7.8,8.8-12.4,11.6-4.6,2.8-9.4,4.2-14.5,4.2h0ZM834.8,505.3c3.2,0,6.1-1,8.7-3.1,2.6-2.1,4.8-4.8,6.5-8.1,1.8-3.3,3.1-6.9,4-10.7.9-3.8,1.3-7.5,1.3-11s-.9-8.1-2.8-10.5c-1.9-2.4-4.7-3.6-8.4-3.6s-5.6.9-8.1,2.8c-2.5,1.9-4.6,4.4-6.5,7.5-1.8,3.1-3.3,6.6-4.3,10.6-1,3.9-1.5,7.9-1.5,12s.9,8.1,2.8,10.5c1.8,2.4,4.6,3.6,8.3,3.6ZM846.8,521l20.4-104.8h22.3l-20.4,104.8h-22.3Z"/>
      <path class="st12" d="M424.2,488.7l3.6-18.5h-23.3l-3.6,18.5h23.3Z"/>
      <path class="st15" d="M393.5,488.7l3.6-18.5h-23.3l-3.6,18.5h23.3Z"/>
      <path class="st8" d="M356.5,521l4.8-25h-23.3l-4.8,25h23.3Z"/>
      <path class="st16" d="M332.2,488.7l9.3-48.2h-23.3l-9.3,48.2h23.3Z"/>
      <path class="st4" d="M362.8,488.7l4.8-25h-23.3l-4.8,25h23.3Z"/>
    </g>
  </g>
</svg>