<?xml version="1.0" encoding="UTF-8"?>
<svg xmlns="http://www.w3.org/2000/svg" version="1.1" xmlns:xlink="http://www.w3.org/1999/xlink" viewBox="0 0 1290 2796">
  <!-- Generator: Adobe Illustrator 29.4.0, SVG Export Plug-In . SVG Version: 2.1.0 Build 152)  -->
  <defs>
    <style>
      .st0 {
        fill: url(#linear-gradient2);
      }

      .st1 {
        fill: url(#linear-gradient10);
      }

      .st2 {
        fill: url(#linear-gradient1);
      }

      .st3 {
        fill: url(#linear-gradient9);
      }

      .st4 {
        fill: url(#linear-gradient18);
      }

      .st5 {
        fill: url(#linear-gradient8);
      }

      .st6 {
        fill: url(#linear-gradient11);
      }

      .st7 {
        fill: url(#radial-gradient);
      }

      .st8 {
        fill: url(#linear-gradient16);
      }

      .st9 {
        fill: url(#linear-gradient12);
      }

      .st10 {
        fill: url(#linear-gradient7);
      }

      .st11 {
        fill: url(#linear-gradient4);
      }

      .st12 {
        fill: url(#linear-gradient14);
      }

      .st13 {
        fill: url(#linear-gradient5);
      }

      .st14 {
        fill: url(#linear-gradient3);
      }

      .st15 {
        fill: url(#linear-gradient15);
      }

      .st16 {
        fill: url(#linear-gradient17);
      }

      .st17 {
        fill: url(#linear-gradient6);
      }

      .st18 {
        fill: url(#linear-gradient13);
      }

      .st19 {
        fill: url(#linear-gradient);
      }
    </style>
    <radialGradient id="radial-gradient" cx="129.53" cy="1107.9" fx="114.75" fy="1177.08" r="242.26" gradientTransform="translate(365.21 -7823.06) scale(2.16 8.32)" gradientUnits="userSpaceOnUse">
      <stop offset="0" stop-color="#0a2331"/>
      <stop offset=".35" stop-color="#081a24"/>
      <stop offset="1" stop-color="#030304"/>
      <stop offset="1" stop-color="#030304"/>
    </radialGradient>
    <linearGradient id="linear-gradient" x1="319.57" y1="1556.41" x2="-151.9" y2="1684.6" gradientTransform="translate(564 3031.64) scale(1 -1)" gradientUnits="userSpaceOnUse">
      <stop offset="0" stop-color="#1d72a7"/>
      <stop offset="1" stop-color="#c8e5f8"/>
    </linearGradient>
    <linearGradient id="linear-gradient1" x1="322.35" y1="1566.61" x2="-149.13" y2="1694.79" xlink:href="#linear-gradient"/>
    <linearGradient id="linear-gradient2" x1="328.19" y1="1588.1" x2="-143.29" y2="1716.29" xlink:href="#linear-gradient"/>
    <linearGradient id="linear-gradient3" x1="332.22" y1="1602.91" x2="-139.26" y2="1731.09" xlink:href="#linear-gradient"/>
    <linearGradient id="linear-gradient4" x1="339.68" y1="1630.38" x2="-131.79" y2="1758.56" xlink:href="#linear-gradient"/>
    <linearGradient id="linear-gradient5" x1="344.1" y1="1646.6" x2="-127.38" y2="1774.79" xlink:href="#linear-gradient"/>
    <linearGradient id="linear-gradient6" x1="347.88" y1="1660.51" x2="-123.6" y2="1788.7" xlink:href="#linear-gradient"/>
    <linearGradient id="linear-gradient7" x1="352.86" y1="1678.85" x2="-118.61" y2="1807.04" xlink:href="#linear-gradient"/>
    <linearGradient id="linear-gradient8" x1="357.41" y1="1695.56" x2="-114.07" y2="1823.74" xlink:href="#linear-gradient"/>
    <linearGradient id="linear-gradient9" x1="297.73" y1="1476.07" x2="-173.75" y2="1604.26" xlink:href="#linear-gradient"/>
    <linearGradient id="linear-gradient10" x1="303.24" y1="1496.34" x2="-168.24" y2="1624.52" xlink:href="#linear-gradient"/>
    <linearGradient id="linear-gradient11" x1="308.52" y1="1515.73" x2="-162.96" y2="1643.92" xlink:href="#linear-gradient"/>
    <linearGradient id="linear-gradient12" x1="314.01" y1="1535.96" x2="-157.46" y2="1664.15" xlink:href="#linear-gradient"/>
    <linearGradient id="linear-gradient13" x1="322.68" y1="1567.82" x2="-148.8" y2="1696" xlink:href="#linear-gradient"/>
    <linearGradient id="linear-gradient14" x1="293.27" y1="1459.66" x2="-178.21" y2="1587.85" xlink:href="#linear-gradient"/>
    <linearGradient id="linear-gradient15" x1="291.38" y1="1452.71" x2="-180.1" y2="1580.9" xlink:href="#linear-gradient"/>
    <linearGradient id="linear-gradient16" x1="282.55" y1="1420.24" x2="-188.93" y2="1548.42" xlink:href="#linear-gradient"/>
    <linearGradient id="linear-gradient17" x1="291.15" y1="1451.85" x2="-180.33" y2="1580.03" xlink:href="#linear-gradient"/>
    <linearGradient id="linear-gradient18" x1="290.26" y1="1448.6" x2="-181.21" y2="1576.79" xlink:href="#linear-gradient"/>
  </defs>
  <g id="Background_Gradient">
    <rect class="st7" width="1290" height="2796"/>
  </g>
  <g id="Logo">
    <g>
      <path class="st19" d="M309.43,1376.08l17.17-88.44h20.81l-6.76,34.73h34.86l6.76-34.73h20.81l-17.17,88.44h-20.81l7.15-36.81h-34.86l-7.15,36.81h-20.81Z"/>
      <path class="st2" d="M424.53,1329.26h-19.9c4.42-16.65,17.82-25.36,36.03-25.36s27.31,9.62,27.31,22.37c0,2.08-.26,4.03-.65,6.24l-5.07,26.14c-1.3,6.76-1.69,10.8-1.69,13.92,0,1.43.13,2.47.26,3.51h-20.55c-.13-.52-.13-1.17-.13-1.95,0-1.43.13-3.25.39-5.33-6.76,6.5-14.96,9.36-22.5,9.36-12.23,0-21.2-6.37-21.2-18.6,0-9.62,6.37-17.95,18.34-21.98,10.66-3.51,17.95-4.16,32.13-4.29l.26-1.56c.26-1.3.39-2.47.39-3.64,0-5.33-3.25-8.06-10.01-8.06s-11.45,3.77-13.4,9.23ZM417.37,1357.48c0,4.68,2.99,6.89,8.06,6.89,8.97,0,17.17-7.15,18.99-16.78l.52-2.73c-21.46.39-27.57,5.59-27.57,12.62Z"/>
      <path class="st0" d="M483.91,1376.08l-11.06-69.97h20.94l5.2,46.3.26,8.06,3.25-8.06,23.28-46.3h21.07l-38.37,69.97h-24.58Z"/>
      <path class="st14" d="M605.7,1353.06c-6.37,16.65-21.59,25.1-37.33,25.1-18.73,0-30.3-10.66-30.3-29,0-24.06,16.78-45.26,41.23-45.26,18.47,0,28.87,11.19,28.87,28.48,0,2.86-.26,5.98-.78,9.1l-.65,3.64h-48.12c-.13,1.17-.13,2.21-.13,3.38,0,9.23,3.9,13.79,11.45,13.79,6.63,0,12.1-2.73,14.96-9.23h20.81ZM577.48,1319.77c-7.41,0-13.14,5.85-16.26,13.92h27.18v-.91c0-8.45-3.77-13.01-10.93-13.01Z"/>
      <path class="st11" d="M629.43,1376.08l17.17-88.44h20.81l-17.17,88.44h-20.81Z"/>
      <path class="st13" d="M682.84,1376.08l17.17-88.44h35.9c17.17,0,27.96,7.93,27.96,21.85,0,8.19-4.42,15.87-13.01,19.9,7.15,3.12,10.8,9.1,10.8,16.78,0,16.78-13.79,29.91-38.5,29.91h-40.32ZM732.27,1304.16h-14.7l-3.77,19.38h14.18c9.49,0,13.92-5.33,13.92-11.84,0-4.68-3.25-7.54-9.62-7.54ZM729.27,1338.62h-18.34l-4.03,20.94h18.86c9.62,0,14.44-5.98,14.44-12.75,0-4.94-3.77-8.19-10.93-8.19Z"/>
      <path class="st17" d="M833.24,1353.06c-6.37,16.65-21.59,25.1-37.33,25.1-18.73,0-30.3-10.66-30.3-29,0-24.06,16.78-45.26,41.23-45.26,18.47,0,28.87,11.19,28.87,28.48,0,2.86-.26,5.98-.78,9.1l-.65,3.64h-48.12c-.13,1.17-.13,2.21-.13,3.38,0,9.23,3.9,13.79,11.45,13.79,6.63,0,12.1-2.73,14.96-9.23h20.81ZM805.01,1319.77c-7.41,0-13.14,5.85-16.26,13.92h27.18v-.91c0-8.45-3.77-13.01-10.93-13.01Z"/>
      <path class="st10" d="M905.67,1353.06c-6.37,16.65-21.59,25.1-37.33,25.1-18.73,0-30.3-10.66-30.3-29,0-24.06,16.78-45.26,41.23-45.26,18.47,0,28.87,11.19,28.87,28.48,0,2.86-.26,5.98-.78,9.1l-.65,3.64h-48.12c-.13,1.17-.13,2.21-.13,3.38,0,9.23,3.9,13.79,11.45,13.79,6.63,0,12.1-2.73,14.96-9.23h20.81ZM877.45,1319.77c-7.41,0-13.14,5.85-16.26,13.92h27.18v-.91c0-8.45-3.77-13.01-10.93-13.01Z"/>
      <path class="st5" d="M907.61,1376.08l13.53-69.97h19.9l-1.3,6.89c5.59-6.11,12.62-9.1,20.55-9.1,12.1,0,20.29,7.15,20.29,20.55,0,2.47-.26,5.07-.78,7.93l-8.58,43.7h-19.9l8.32-42.66c.39-1.69.52-3.25.52-4.55,0-5.85-2.86-8.84-8.84-8.84-7.41,0-13.4,5.98-15.61,14.05l-8.19,42.01h-19.9Z"/>
      <path class="st3" d="M488.6,1506.29l17.19-88.6h20.84l-17.19,88.6h-20.84ZM529.38,1477.36h-7.74l3.26-16.55h6.18c3.9,0,7.16-.73,9.77-2.22,2.61-1.48,4.58-3.45,5.92-5.92,1.34-2.48,2.02-5.28,2.02-8.4s-1-5.58-3-7.37c-2-1.78-4.99-2.66-8.99-2.66h-18.89l3.12-16.55h18.89c9.38,0,16.83,2.22,22.35,6.65,5.52,4.43,8.28,10.73,8.28,18.89,0,6.26-1.63,11.95-4.89,17.07-3.26,5.12-7.98,9.25-14.14,12.37-6.16,3.12-13.54,4.68-22.15,4.68Z"/>
      <path class="st1" d="M628.38,1506.29l-2.61-43.78.39-10.95h.92l-4.04,10.95-19.67,43.78h-25.54l-4.29-70.09h21.23l.25,46.38-.14,11.73h-1.04l4.82-11.73,21.23-46.38h20.19l3.12,46.38.14,11.73h-1.17l4.29-11.73,18.5-46.38h20.45l-31.67,70.09h-25.4.03Z"/>
      <path class="st6" d="M675.94,1506.29l13.54-70.09h19.94l-13.54,70.09h-19.94ZM703.56,1466.02h-6.65c1.9-7.3,4.41-13.3,7.48-18.04,3.09-4.73,6.69-8.25,10.81-10.56,4.12-2.31,8.62-3.44,13.49-3.44,4.09,0,7.64.78,10.69,2.34,3.04,1.56,5.41,3.87,7.09,6.91,1.7,3.04,2.55,6.82,2.55,11.34,0,1.22-.07,2.49-.2,3.84-.14,1.34-.32,2.72-.59,4.11l-8.6,43.78h-19.94l8.33-42.73c.17-.87.31-1.66.39-2.41.09-.73.14-1.46.14-2.15,0-2.95-.71-5.16-2.15-6.65-1.43-1.48-3.67-2.22-6.7-2.22-1.92,0-3.75.39-5.53,1.17-1.78.78-3.39,1.88-4.82,3.33-1.43,1.43-2.63,3.12-3.58,5.07-.95,1.95-1.7,4.06-2.22,6.31l.03.02Z"/>
      <path class="st9" d="M814.42,1463.81l-12.76,7.3c.25-1.56.48-3.02.65-4.36.17-1.34.25-2.63.25-3.85,0-4.26-.93-7.48-2.8-9.71-1.87-2.22-4.58-3.33-8.15-3.33-2.87,0-5.46.8-7.82,2.41-2.34,1.61-4.36,3.8-6.06,6.58-1.7,2.78-2.97,5.89-3.85,9.32-.87,3.43-1.31,6.92-1.31,10.49,0,4.6.95,8.06,2.87,10.35,1.92,2.31,4.77,3.44,8.6,3.44,3.29,0,6.26-.71,8.86-2.16,2.61-1.43,4.65-3.8,6.13-7.09h20.84c-2.17,5.57-5.19,10.2-9.06,13.93-3.87,3.73-8.23,6.53-13.1,8.4-4.87,1.87-9.94,2.8-15.24,2.8-9.38,0-16.78-2.55-22.21-7.62-5.43-5.07-8.15-12.22-8.15-21.43,0-5.99.98-11.71,2.94-17.14,1.95-5.43,4.77-10.27,8.47-14.53,3.68-4.26,8.08-7.6,13.15-10.03,5.07-2.43,10.66-3.65,16.75-3.65,9.2,0,16.33,2.58,21.36,7.75,5.04,5.18,7.55,12.1,7.55,20.79,0,1.39-.07,2.87-.2,4.43-.14,1.56-.32,3.12-.59,4.68l-.65,3.65h-60.45l2.09-11.47h51.86l.03.03Z"/>
      <path class="st18" d="M847.79,1508.36c-4.79,0-8.93-1.14-12.44-3.39-3.51-2.26-6.21-5.46-8.08-9.64-1.87-4.17-2.8-9.03-2.8-14.59,0-6.16.92-12.05,2.73-17.65,1.83-5.6,4.41-10.59,7.76-14.98,3.34-4.38,7.31-7.84,11.91-10.35,4.6-2.51,9.69-3.78,15.24-3.78,6.6,0,11.64,2.27,15.12,6.84,3.48,4.56,5.21,10.96,5.21,19.21,0,6.69-.93,12.97-2.8,18.82-1.87,5.85-4.45,11.01-7.75,15.44-3.31,4.43-7.01,7.87-11.13,10.35-4.12,2.48-8.45,3.72-12.97,3.72v.02ZM855.08,1492.2c2.87,0,5.45-.93,7.76-2.8,2.31-1.87,4.26-4.28,5.85-7.23,1.61-2.95,2.8-6.14,3.58-9.57.78-3.43,1.17-6.7,1.17-9.84,0-4.09-.85-7.21-2.55-9.38-1.7-2.17-4.19-3.26-7.48-3.26-2.61,0-5.02.85-7.23,2.55-2.21,1.7-4.14,3.94-5.8,6.7-1.65,2.78-2.94,5.92-3.84,9.45-.92,3.51-1.37,7.09-1.37,10.74,0,4.09.83,7.21,2.48,9.38,1.65,2.17,4.12,3.26,7.43,3.26ZM865.89,1506.29l18.24-93.81h19.94l-18.24,93.81h-19.94Z"/>
      <path class="st12" d="M487.64,1477.36l3.21-16.55h-20.86l-3.21,16.55h20.86Z"/>
      <path class="st15" d="M460.2,1477.36l3.21-16.55h-20.86l-3.21,16.55h20.86Z"/>
      <path class="st8" d="M427.14,1506.29l4.33-22.33h-20.86l-4.33,22.33h20.86Z"/>
      <path class="st16" d="M405.32,1477.36l8.37-43.12h-20.86l-8.37,43.12h20.86Z"/>
      <path class="st4" d="M432.76,1477.36l4.33-22.33h-20.86l-4.33,22.33h20.86Z"/>
    </g>
  </g>
</svg>