<?xml version="1.0" encoding="UTF-8"?>
<svg xmlns="http://www.w3.org/2000/svg" version="1.1" xmlns:xlink="http://www.w3.org/1999/xlink" viewBox="0 0 1920 1080">
  <!-- Generator: Adobe Illustrator 29.3.1, SVG Export Plug-In . SVG Version: 2.1.0 Build 151)  -->
  <defs>
    <style>
      .st0 {
        fill: url(#linear-gradient2);
      }

      .st1 {
        fill: url(#linear-gradient10);
      }

      .st2 {
        fill: url(#linear-gradient1);
      }

      .st3 {
        fill: url(#linear-gradient9);
      }

      .st4 {
        fill: url(#linear-gradient18);
      }

      .st5 {
        fill: url(#linear-gradient8);
      }

      .st6 {
        fill: url(#linear-gradient11);
      }

      .st7 {
        fill: url(#radial-gradient);
      }

      .st8 {
        fill: url(#linear-gradient16);
      }

      .st9 {
        fill: url(#linear-gradient12);
      }

      .st10 {
        fill: url(#linear-gradient7);
      }

      .st11 {
        fill: url(#linear-gradient4);
      }

      .st12 {
        fill: url(#linear-gradient14);
      }

      .st13 {
        fill: url(#linear-gradient5);
      }

      .st14 {
        fill: url(#linear-gradient3);
      }

      .st15 {
        fill: url(#linear-gradient15);
      }

      .st16 {
        fill: url(#linear-gradient17);
      }

      .st17 {
        fill: url(#linear-gradient6);
      }

      .st18 {
        fill: url(#linear-gradient13);
      }

      .st19 {
        fill: url(#linear-gradient);
      }
    </style>
    <radialGradient id="radial-gradient" cx="444.4" cy="250.1" fx="422.4" fy="353" r="360.6" gradientTransform="scale(2.2)" gradientUnits="userSpaceOnUse">
      <stop offset="0" stop-color="#0a2331"/>
      <stop offset=".4" stop-color="#081a24"/>
      <stop offset="1" stop-color="#030304"/>
      <stop offset="1" stop-color="#030304"/>
    </radialGradient>
    <linearGradient id="linear-gradient" x1="750.9" y1="660.9" x2="49.2" y2="851.7" gradientTransform="translate(564 1316) scale(1 -1)" gradientUnits="userSpaceOnUse">
      <stop offset="0" stop-color="#1d72a7"/>
      <stop offset="1" stop-color="#c8e5f8"/>
    </linearGradient>
    <linearGradient id="linear-gradient1" x1="755" y1="676" x2="53.3" y2="866.8" xlink:href="#linear-gradient"/>
    <linearGradient id="linear-gradient2" x1="763.7" y1="708" x2="62" y2="898.8" xlink:href="#linear-gradient"/>
    <linearGradient id="linear-gradient3" x1="769.7" y1="730.1" x2="68" y2="920.9" xlink:href="#linear-gradient"/>
    <linearGradient id="linear-gradient4" x1="780.9" y1="771" x2="79.1" y2="961.8" xlink:href="#linear-gradient"/>
    <linearGradient id="linear-gradient5" x1="787.4" y1="795.1" x2="85.7" y2="985.9" xlink:href="#linear-gradient"/>
    <linearGradient id="linear-gradient6" x1="793" y1="815.8" x2="91.3" y2="1006.6" xlink:href="#linear-gradient"/>
    <linearGradient id="linear-gradient7" x1="800.5" y1="843.1" x2="98.7" y2="1033.9" xlink:href="#linear-gradient"/>
    <linearGradient id="linear-gradient8" x1="807.2" y1="868" x2="105.5" y2="1058.8" xlink:href="#linear-gradient"/>
    <linearGradient id="linear-gradient9" x1="718.4" y1="541.3" x2="16.7" y2="732.1" xlink:href="#linear-gradient"/>
    <linearGradient id="linear-gradient10" x1="726.6" y1="571.5" x2="24.9" y2="762.2" xlink:href="#linear-gradient"/>
    <linearGradient id="linear-gradient11" x1="734.5" y1="600.3" x2="32.7" y2="791.1" xlink:href="#linear-gradient"/>
    <linearGradient id="linear-gradient12" x1="742.6" y1="630.4" x2="40.9" y2="821.2" xlink:href="#linear-gradient"/>
    <linearGradient id="linear-gradient13" x1="755.5" y1="677.8" x2="53.8" y2="868.6" xlink:href="#linear-gradient"/>
    <linearGradient id="linear-gradient14" x1="711.8" y1="516.9" x2="10" y2="707.7" xlink:href="#linear-gradient"/>
    <linearGradient id="linear-gradient15" x1="709" y1="506.5" x2="7.2" y2="697.3" xlink:href="#linear-gradient"/>
    <linearGradient id="linear-gradient16" x1="695.8" y1="458.2" x2="-5.9" y2="649" xlink:href="#linear-gradient"/>
    <linearGradient id="linear-gradient17" x1="708.6" y1="505.2" x2="6.9" y2="696" xlink:href="#linear-gradient"/>
    <linearGradient id="linear-gradient18" x1="707.3" y1="500.4" x2="5.6" y2="691.2" xlink:href="#linear-gradient"/>
  </defs>
  <g id="Background_Gradient">
    <rect class="st7" x="-.2" y=".2" width="1920" height="1080"/>
  </g>
  <g id="Logo">
    <g>
      <path class="st19" d="M460.4,507.6l25.6-131.6h31l-10.1,51.7h51.9l10.1-51.7h31l-25.6,131.6h-31l10.6-54.8h-51.9l-10.6,54.8h-31Z"/>
      <path class="st2" d="M631.7,437.9h-29.6c6.6-24.8,26.5-37.7,53.6-37.7s40.7,14.3,40.7,33.3-.4,6-1,9.3l-7.6,38.9c-1.9,10.1-2.5,16.1-2.5,20.7s.2,3.7.4,5.2h-30.6c-.2-.8-.2-1.7-.2-2.9,0-2.1.2-4.8.6-7.9-10.1,9.7-22.3,13.9-33.5,13.9-18.2,0-31.6-9.5-31.6-27.7s9.5-26.7,27.3-32.7c15.9-5.2,26.7-6.2,47.8-6.4l.4-2.3c.4-1.9.6-3.7.6-5.4,0-7.9-4.8-12-14.9-12s-17,5.6-19.9,13.7ZM621,479.9c0,7,4.5,10.3,12,10.3,13.4,0,25.6-10.6,28.3-25l.8-4.1c-31.9.6-41,8.3-41,18.8Z"/>
      <path class="st0" d="M720.1,507.6l-16.5-104.1h31.2l7.7,68.9.4,12,4.8-12,34.7-68.9h31.4l-57.1,104.1h-36.6Z"/>
      <path class="st14" d="M901.3,473.3c-9.5,24.8-32.1,37.4-55.6,37.4s-45.1-15.9-45.1-43.2,25-67.4,61.4-67.4,43,16.6,43,42.4-.4,8.9-1.2,13.6l-1,5.4h-71.6c-.2,1.7-.2,3.3-.2,5,0,13.7,5.8,20.5,17,20.5s18-4.1,22.3-13.7h31ZM859.3,423.7c-11,0-19.6,8.7-24.2,20.7h40.5v-1.4c0-12.6-5.6-19.4-16.3-19.4Z"/>
      <path class="st11" d="M936.7,507.6l25.6-131.6h31l-25.6,131.6h-31Z"/>
      <path class="st13" d="M1016.2,507.6l25.6-131.6h53.4c25.6,0,41.6,11.8,41.6,32.5s-6.6,23.6-19.4,29.6c10.6,4.6,16.1,13.6,16.1,25,0,25-20.5,44.5-57.3,44.5h-60ZM1089.7,400.5h-21.9l-5.6,28.8h21.1c14.1,0,20.7-7.9,20.7-17.6s-4.8-11.2-14.3-11.2ZM1085.3,451.8h-27.3l-6,31.2h28.1c14.3,0,21.5-8.9,21.5-19s-5.6-12.2-16.3-12.2Z"/>
      <path class="st17" d="M1240,473.3c-9.5,24.8-32.1,37.4-55.6,37.4s-45.1-15.9-45.1-43.2,25-67.4,61.4-67.4,43,16.6,43,42.4-.4,8.9-1.2,13.6l-1,5.4h-71.6c-.2,1.7-.2,3.3-.2,5,0,13.7,5.8,20.5,17,20.5s18-4.1,22.3-13.7h31ZM1198,423.7c-11,0-19.6,8.7-24.2,20.7h40.5v-1.4c0-12.6-5.6-19.4-16.3-19.4Z"/>
      <path class="st10" d="M1347.8,473.3c-9.5,24.8-32.1,37.4-55.6,37.4s-45.1-15.9-45.1-43.2,25-67.4,61.4-67.4,43,16.6,43,42.4-.4,8.9-1.2,13.6l-1,5.4h-71.6c-.2,1.7-.2,3.3-.2,5,0,13.7,5.8,20.5,17,20.5s18-4.1,22.3-13.7h31ZM1305.8,423.7c-11,0-19.6,8.7-24.2,20.7h40.5v-1.4c0-12.6-5.6-19.4-16.3-19.4Z"/>
      <path class="st5" d="M1350.7,507.6l20.1-104.1h29.6l-1.9,10.3c8.3-9.1,18.8-13.6,30.6-13.6,18,0,30.2,10.6,30.2,30.6s-.4,7.5-1.2,11.8l-12.8,65h-29.6l12.4-63.5c.6-2.5.8-4.8.8-6.8,0-8.7-4.3-13.2-13.2-13.2s-19.9,8.9-23.2,20.9l-12.2,62.5h-29.6Z"/>
      <path class="st3" d="M727.1,701.4l25.6-131.9h31l-25.6,131.9h-31ZM787.7,658.3h-11.5l4.9-24.6h9.2c5.8,0,10.7-1.1,14.5-3.3,3.9-2.2,6.8-5.1,8.8-8.8,2-3.7,3-7.9,3-12.5s-1.5-8.3-4.5-11c-3-2.7-7.4-4-13.4-4h-28.1l4.6-24.6h28.1c14,0,25.1,3.3,33.3,9.9,8.2,6.6,12.3,16,12.3,28.1s-2.4,17.8-7.3,25.4c-4.9,7.6-11.9,13.8-21,18.4-9.2,4.6-20.2,7-33,7Z"/>
      <path class="st1" d="M935.1,701.4l-3.9-65.2.6-16.3h1.4l-6,16.3-29.3,65.2h-38l-6.4-104.3h31.6l.4,69-.2,17.5h-1.5l7.2-17.5,31.6-69h30.1l4.6,69,.2,17.5h-1.7l6.4-17.5,27.5-69h30.4l-47.1,104.3h-37.8,0Z"/>
      <path class="st6" d="M1005.9,701.4l20.2-104.3h29.7l-20.2,104.3h-29.7ZM1047,641.4h-9.9c2.8-10.9,6.6-19.8,11.1-26.8,4.6-7,10-12.3,16.1-15.7,6.1-3.4,12.8-5.1,20.1-5.1s11.4,1.2,15.9,3.5c4.5,2.3,8.1,5.8,10.6,10.3,2.5,4.5,3.8,10.2,3.8,16.9s-.1,3.7-.3,5.7c-.2,2-.5,4-.9,6.1l-12.8,65.2h-29.7l12.4-63.6c.3-1.3.5-2.5.6-3.6.1-1.1.2-2.2.2-3.2,0-4.4-1.1-7.7-3.2-9.9-2.1-2.2-5.5-3.3-10-3.3s-5.6.6-8.2,1.7c-2.7,1.2-5.1,2.8-7.2,4.9-2.1,2.1-3.9,4.6-5.3,7.6-1.4,2.9-2.5,6-3.3,9.4h0Z"/>
      <path class="st9" d="M1212,638.1l-19,10.9c.4-2.3.7-4.5,1-6.5.3-2,.4-3.9.4-5.7,0-6.3-1.4-11.1-4.2-14.4-2.8-3.3-6.8-5-12.1-5s-8.1,1.2-11.6,3.6c-3.5,2.4-6.5,5.7-9,9.8-2.5,4.1-4.4,8.8-5.7,13.9-1.3,5.1-1.9,10.3-1.9,15.6s1.4,12,4.3,15.4c2.9,3.4,7.1,5.1,12.8,5.1s9.3-1.1,13.2-3.2c3.9-2.1,6.9-5.7,9.1-10.6h31c-3.2,8.3-7.7,15.2-13.5,20.7-5.8,5.6-12.2,9.7-19.5,12.5-7.2,2.8-14.8,4.2-22.7,4.2-14,0-25-3.8-33.1-11.3-8.1-7.6-12.1-18.2-12.1-31.9s1.5-17.4,4.4-25.5c2.9-8.1,7.1-15.3,12.6-21.6,5.5-6.3,12-11.3,19.6-14.9,7.6-3.6,15.9-5.4,24.9-5.4,13.7,0,24.3,3.8,31.8,11.5,7.5,7.7,11.2,18,11.2,30.9s-.1,4.3-.3,6.6c-.2,2.3-.5,4.6-.9,7l-1,5.4h-90l3.1-17.1h77.2Z"/>
      <path class="st18" d="M1261.7,704.4c-7.1,0-13.3-1.7-18.5-5.1-5.2-3.4-9.2-8.1-12-14.3-2.8-6.2-4.2-13.4-4.2-21.7s1.4-17.9,4.1-26.3c2.7-8.3,6.6-15.8,11.5-22.3,5-6.5,10.9-11.7,17.7-15.4,6.8-3.7,14.4-5.6,22.7-5.6s17.3,3.4,22.5,10.2c5.2,6.8,7.8,16.3,7.8,28.6s-1.4,19.3-4.2,28c-2.8,8.7-6.6,16.4-11.5,23-4.9,6.6-10.4,11.7-16.6,15.4-6.1,3.7-12.6,5.5-19.3,5.5h0ZM1272.5,680.4c4.3,0,8.1-1.4,11.5-4.2,3.4-2.8,6.3-6.4,8.7-10.8,2.4-4.4,4.2-9.1,5.3-14.2,1.2-5.1,1.7-10,1.7-14.6s-1.3-10.7-3.8-14c-2.5-3.2-6.2-4.9-11.1-4.9s-7.5,1.3-10.8,3.8c-3.3,2.5-6.2,5.9-8.6,10-2.5,4.1-4.4,8.8-5.7,14.1-1.4,5.2-2,10.6-2,16s1.2,10.7,3.7,14c2.5,3.2,6.1,4.8,11.1,4.8ZM1288.6,701.4l27.2-139.6h29.7l-27.2,139.6h-29.7Z"/>
      <path class="st12" d="M725.6,658.3l4.8-24.6h-31l-4.8,24.6h31Z"/>
      <path class="st15" d="M684.8,658.3l4.8-24.6h-31l-4.8,24.6h31Z"/>
      <path class="st8" d="M635.6,701.4l6.4-33.2h-31l-6.4,33.2h31Z"/>
      <path class="st16" d="M603.1,658.3l12.5-64.2h-31l-12.5,64.2h31Z"/>
      <path class="st4" d="M643.9,658.3l6.4-33.2h-31l-6.4,33.2h31Z"/>
    </g>
  </g>
</svg>