<?xml version="1.0" encoding="UTF-8"?>
<svg xmlns="http://www.w3.org/2000/svg" version="1.1" xmlns:xlink="http://www.w3.org/1999/xlink" viewBox="0 0 3840 2400">
  <!-- Generator: Adobe Illustrator 29.3.1, SVG Export Plug-In . SVG Version: 2.1.0 Build 151)  -->
  <defs>
    <style>
      .st0 {
        fill: url(#linear-gradient2);
      }

      .st1 {
        fill: url(#linear-gradient10);
      }

      .st2 {
        fill: url(#linear-gradient1);
      }

      .st3 {
        fill: url(#linear-gradient9);
      }

      .st4 {
        fill: url(#linear-gradient18);
      }

      .st5 {
        fill: url(#linear-gradient8);
      }

      .st6 {
        fill: url(#linear-gradient11);
      }

      .st7 {
        fill: url(#radial-gradient);
      }

      .st8 {
        fill: url(#linear-gradient16);
      }

      .st9 {
        fill: url(#linear-gradient12);
      }

      .st10 {
        fill: url(#linear-gradient7);
      }

      .st11 {
        fill: url(#linear-gradient4);
      }

      .st12 {
        fill: url(#linear-gradient14);
      }

      .st13 {
        fill: url(#linear-gradient5);
      }

      .st14 {
        fill: url(#linear-gradient3);
      }

      .st15 {
        fill: url(#linear-gradient15);
      }

      .st16 {
        fill: url(#linear-gradient17);
      }

      .st17 {
        fill: url(#linear-gradient6);
      }

      .st18 {
        fill: url(#linear-gradient13);
      }

      .st19 {
        fill: url(#linear-gradient);
      }
    </style>
    <radialGradient id="radial-gradient" cx="889" cy="534.9" fx="845" fy="740.8" r="721.2" gradientTransform="translate(-.2 -83.8) scale(2.2 2.4)" gradientUnits="userSpaceOnUse">
      <stop offset="0" stop-color="#0a2331"/>
      <stop offset=".4" stop-color="#081a24"/>
      <stop offset="1" stop-color="#030304"/>
      <stop offset="1" stop-color="#030304"/>
    </radialGradient>
    <linearGradient id="linear-gradient" x1="2066.2" y1="5.7" x2="662.7" y2="387.3" gradientTransform="translate(564 1435.6) scale(1 -1)" gradientUnits="userSpaceOnUse">
      <stop offset="0" stop-color="#1d72a7"/>
      <stop offset="1" stop-color="#c8e5f8"/>
    </linearGradient>
    <linearGradient id="linear-gradient1" x1="2074.4" y1="36.1" x2="671" y2="417.7" xlink:href="#linear-gradient"/>
    <linearGradient id="linear-gradient2" x1="2091.8" y1="100.1" x2="688.4" y2="481.6" xlink:href="#linear-gradient"/>
    <linearGradient id="linear-gradient3" x1="2103.8" y1="144.1" x2="700.3" y2="525.7" xlink:href="#linear-gradient"/>
    <linearGradient id="linear-gradient4" x1="2126" y1="225.9" x2="722.6" y2="607.5" xlink:href="#linear-gradient"/>
    <linearGradient id="linear-gradient5" x1="2139.2" y1="274.2" x2="735.7" y2="655.8" xlink:href="#linear-gradient"/>
    <linearGradient id="linear-gradient6" x1="2150.4" y1="315.6" x2="747" y2="697.2" xlink:href="#linear-gradient"/>
    <linearGradient id="linear-gradient7" x1="2165.3" y1="370.2" x2="761.8" y2="751.8" xlink:href="#linear-gradient"/>
    <linearGradient id="linear-gradient8" x1="2178.8" y1="419.9" x2="775.3" y2="801.5" xlink:href="#linear-gradient"/>
    <linearGradient id="linear-gradient9" x1="2001.2" y1="-233.4" x2="597.7" y2="148.2" xlink:href="#linear-gradient"/>
    <linearGradient id="linear-gradient10" x1="2017.6" y1="-173.1" x2="614.1" y2="208.5" xlink:href="#linear-gradient"/>
    <linearGradient id="linear-gradient11" x1="2033.3" y1="-115.3" x2="629.8" y2="266.2" xlink:href="#linear-gradient"/>
    <linearGradient id="linear-gradient12" x1="2049.6" y1="-55.1" x2="646.2" y2="326.5" xlink:href="#linear-gradient"/>
    <linearGradient id="linear-gradient13" x1="2075.4" y1="39.7" x2="671.9" y2="421.3" xlink:href="#linear-gradient"/>
    <linearGradient id="linear-gradient14" x1="1987.9" y1="-282.3" x2="584.4" y2="99.3" xlink:href="#linear-gradient"/>
    <linearGradient id="linear-gradient15" x1="1982.3" y1="-302.9" x2="578.8" y2="78.6" xlink:href="#linear-gradient"/>
    <linearGradient id="linear-gradient16" x1="1956" y1="-399.6" x2="552.5" y2="-18" xlink:href="#linear-gradient"/>
    <linearGradient id="linear-gradient17" x1="1981.5" y1="-305.5" x2="578.1" y2="76.1" xlink:href="#linear-gradient"/>
    <linearGradient id="linear-gradient18" x1="1978.9" y1="-315.2" x2="575.5" y2="66.4" xlink:href="#linear-gradient"/>
  </defs>
  <g id="Background_Gradient">
    <rect class="st7" width="3840" height="2400"/>
  </g>
  <g id="Logo">
    <g>
      <path class="st19" d="M921.1,1134.8l51.1-263.3h61.9l-20.1,103.4h103.8l20.1-103.4h61.9l-51.1,263.3h-61.9l21.3-109.6h-103.8l-21.3,109.6h-61.9Z"/>
      <path class="st2" d="M1263.7,995.4h-59.2c13.2-49.6,53-75.5,107.2-75.5s81.3,28.6,81.3,66.6-.8,12-1.9,18.6l-15.1,77.8c-3.9,20.1-5,32.1-5,41.4s.4,7.4.8,10.5h-61.2c-.4-1.5-.4-3.5-.4-5.8,0-4.3.4-9.7,1.2-15.9-20.1,19.4-44.5,27.9-67,27.9-36.4,0-63.1-19-63.1-55.4s19-53.4,54.6-65.4c31.7-10.5,53.4-12.4,95.6-12.8l.8-4.6c.8-3.9,1.2-7.4,1.2-10.8,0-15.9-9.7-24-29.8-24s-34.1,11.2-39.9,27.5ZM1242.4,1079.4c0,13.9,8.9,20.5,24,20.5,26.7,0,51.1-21.3,56.5-49.9l1.5-8.1c-63.9,1.2-82.1,16.6-82.1,37.6Z"/>
      <path class="st0" d="M1440.5,1134.8l-32.9-208.3h62.3l15.5,137.8.8,24,9.7-24,69.3-137.8h62.7l-114.2,208.3h-73.2Z"/>
      <path class="st14" d="M1803,1066.2c-19,49.6-64.3,74.7-111.1,74.7s-90.2-31.7-90.2-86.3,49.9-134.7,122.7-134.7,86,33.3,86,84.8-.8,17.8-2.3,27.1l-1.9,10.8h-143.2c-.4,3.5-.4,6.6-.4,10.1,0,27.5,11.6,41,34.1,41s36-8.1,44.5-27.5h61.9ZM1719,967.1c-22.1,0-39.1,17.4-48.4,41.4h80.9v-2.7c0-25.2-11.2-38.7-32.5-38.7Z"/>
      <path class="st11" d="M1873.6,1134.8l51.1-263.3h61.9l-51.1,263.3h-61.9Z"/>
      <path class="st13" d="M2032.6,1134.8l51.1-263.3h106.9c51.1,0,83.2,23.6,83.2,65s-13.2,47.2-38.7,59.2c21.3,9.3,32.1,27.1,32.1,49.9,0,49.9-41,89-114.6,89h-120ZM2179.8,920.7h-43.7l-11.2,57.7h42.2c28.3,0,41.4-15.9,41.4-35.2s-9.7-22.5-28.7-22.5ZM2170.9,1023.3h-54.6l-12,62.3h56.1c28.7,0,43-17.8,43-37.9s-11.2-24.4-32.5-24.4Z"/>
      <path class="st17" d="M2480.3,1066.2c-19,49.6-64.3,74.7-111.1,74.7s-90.2-31.7-90.2-86.3,49.9-134.7,122.7-134.7,85.9,33.3,85.9,84.8-.8,17.8-2.3,27.1l-1.9,10.8h-143.2c-.4,3.5-.4,6.6-.4,10.1,0,27.5,11.6,41,34.1,41s36-8.1,44.5-27.5h61.9ZM2396.3,967.1c-22.1,0-39.1,17.4-48.4,41.4h80.9v-2.7c0-25.2-11.2-38.7-32.5-38.7Z"/>
      <path class="st10" d="M2695.9,1066.2c-19,49.6-64.3,74.7-111.1,74.7s-90.2-31.7-90.2-86.3,49.9-134.7,122.7-134.7,86,33.3,86,84.8-.8,17.8-2.3,27.1l-1.9,10.8h-143.2c-.4,3.5-.4,6.6-.4,10.1,0,27.5,11.6,41,34.1,41s36-8.1,44.5-27.5h61.9ZM2611.9,967.1c-22.1,0-39.1,17.4-48.4,41.4h80.9v-2.7c0-25.2-11.2-38.7-32.5-38.7Z"/>
      <path class="st5" d="M2701.7,1134.8l40.3-208.3h59.2l-3.9,20.5c16.6-18.2,37.6-27.1,61.2-27.1,36,0,60.4,21.3,60.4,61.2s-.8,15.1-2.3,23.6l-25.6,130.1h-59.2l24.8-127c1.2-5,1.5-9.7,1.5-13.6,0-17.4-8.5-26.3-26.3-26.3s-39.9,17.8-46.5,41.8l-24.4,125.1h-59.2Z"/>
      <path class="st3" d="M1454.4,1522.4l51.2-263.7h62l-51.2,263.7h-62ZM1575.8,1436.2h-23l9.7-49.3h18.4c11.6,0,21.3-2.2,29.1-6.6,7.8-4.4,13.6-10.3,17.6-17.6,4-7.4,6-15.7,6-25s-3-16.6-8.9-21.9c-6-5.3-14.9-7.9-26.8-7.9h-56.2l9.3-49.3h56.2c27.9,0,50.1,6.6,66.5,19.8,16.4,13.2,24.7,31.9,24.7,56.2s-4.8,35.6-14.5,50.8c-9.7,15.3-23.7,27.5-42.1,36.8-18.3,9.3-40.3,13.9-65.9,13.9Z"/>
      <path class="st1" d="M1870.5,1522.4l-7.8-130.3,1.2-32.6h2.7l-12,32.6-58.5,130.3h-76l-12.8-208.6h63.2l.8,138.1-.4,34.9h-3.1l14.3-34.9,63.2-138.1h60.1l9.3,138.1.4,34.9h-3.5l12.8-34.9,55.1-138.1h60.9l-94.3,208.6h-75.6,0Z"/>
      <path class="st6" d="M2012.1,1522.4l40.3-208.6h59.4l-40.3,208.6h-59.4ZM2094.3,1402.5h-19.8c5.7-21.7,13.1-39.6,22.3-53.7,9.2-14.1,19.9-24.6,32.2-31.4,12.3-6.9,25.7-10.3,40.2-10.3s22.7,2.3,31.8,7c9,4.6,16.1,11.5,21.1,20.6,5.1,9,7.6,20.3,7.6,33.7s-.2,7.4-.6,11.4c-.4,4-1,8.1-1.8,12.2l-25.6,130.3h-59.4l24.8-127.2c.5-2.6.9-5,1.2-7.2.3-2.2.4-4.3.4-6.4,0-8.8-2.1-15.4-6.4-19.8-4.2-4.4-10.9-6.6-20-6.6s-11.2,1.2-16.5,3.5c-5.3,2.3-10.1,5.6-14.3,9.9-4.2,4.2-7.8,9.3-10.7,15.1-2.8,5.8-5,12.1-6.6,18.8h0Z"/>
      <path class="st9" d="M2424.3,1395.9l-38,21.7c.8-4.6,1.4-9,1.9-13,.5-4,.8-7.8.8-11.5,0-12.7-2.8-22.3-8.3-28.9-5.6-6.6-13.6-9.9-24.2-9.9s-16.3,2.4-23.3,7.2c-7,4.8-13,11.3-18,19.6-5.1,8.3-8.8,17.5-11.5,27.7-2.6,10.2-3.9,20.6-3.9,31.2s2.8,24,8.5,30.8c5.7,6.9,14.2,10.3,25.6,10.3s18.6-2.1,26.4-6.4c7.8-4.2,13.8-11.3,18.2-21.1h62c-6.5,16.6-15.5,30.4-27,41.5-11.5,11.1-24.5,19.4-39,25-14.5,5.6-29.6,8.3-45.4,8.3-27.9,0-50-7.6-66.1-22.7-16.2-15.1-24.2-36.4-24.2-63.8s2.9-34.9,8.7-51c5.8-16.2,14.2-30.6,25.2-43.2,11-12.7,24-22.6,39.2-29.9,15.1-7.2,31.7-10.9,49.9-10.9,27.4,0,48.6,7.7,63.6,23.1,15,15.4,22.5,36,22.5,61.9s-.2,8.5-.6,13.2c-.4,4.6-1,9.3-1.8,13.9l-1.9,10.9h-179.9l6.2-34.1h154.5Z"/>
      <path class="st18" d="M2523.6,1528.5c-14.2,0-26.6-3.4-37-10.1-10.5-6.7-18.5-16.3-24-28.7-5.6-12.4-8.3-26.9-8.3-43.4s2.7-35.9,8.1-52.5c5.5-16.7,13.1-31.5,23.1-44.6,10-13,21.8-23.3,35.5-30.8,13.7-7.5,28.8-11.3,45.4-11.3s34.7,6.8,45,20.4c10.4,13.6,15.5,32.6,15.5,57.2s-2.8,38.6-8.3,56c-5.6,17.4-13.2,32.8-23.1,46-9.9,13.2-20.9,23.4-33.1,30.8-12.3,7.4-25.2,11.1-38.6,11.1h0ZM2545.4,1480.4c8.5,0,16.2-2.8,23.1-8.3,6.9-5.6,12.7-12.7,17.4-21.5,4.8-8.8,8.3-18.3,10.7-28.5,2.3-10.2,3.5-20,3.5-29.3s-2.5-21.5-7.6-27.9c-5.1-6.5-12.5-9.7-22.3-9.7s-15,2.5-21.5,7.6c-6.6,5.1-12.3,11.7-17.3,20-4.9,8.3-8.7,17.6-11.4,28.1-2.7,10.5-4.1,21.1-4.1,32s2.5,21.5,7.4,27.9c4.9,6.5,12.3,9.7,22.1,9.7ZM2577.5,1522.4l54.3-279.2h59.4l-54.3,279.2h-59.4Z"/>
      <path class="st12" d="M1451.6,1436.2l9.5-49.3h-62.1l-9.5,49.3h62.1Z"/>
      <path class="st15" d="M1369.9,1436.2l9.5-49.3h-62.1l-9.5,49.3h62.1Z"/>
      <path class="st8" d="M1271.5,1522.4l12.9-66.5h-62.1l-12.9,66.5h62.1Z"/>
      <path class="st16" d="M1206.5,1436.2l24.9-128.4h-62.1l-24.9,128.4h62.1Z"/>
      <path class="st4" d="M1288.2,1436.2l12.9-66.5h-62.1l-12.9,66.5h62.1Z"/>
    </g>
  </g>
</svg>