<?xml version="1.0" encoding="UTF-8"?>
<svg xmlns="http://www.w3.org/2000/svg" version="1.1" xmlns:xlink="http://www.w3.org/1999/xlink" viewBox="0 0 3840 2160">
  <!-- Generator: Adobe Illustrator 29.4.0, SVG Export Plug-In . SVG Version: 2.1.0 Build 152)  -->
  <defs>
    <style>
      .st0 {
        fill: url(#linear-gradient2);
      }

      .st1 {
        fill: url(#linear-gradient10);
      }

      .st2 {
        fill: url(#linear-gradient1);
      }

      .st3 {
        fill: url(#linear-gradient9);
      }

      .st4 {
        fill: url(#linear-gradient18);
      }

      .st5 {
        fill: url(#linear-gradient8);
      }

      .st6 {
        fill: url(#linear-gradient11);
      }

      .st7 {
        fill: url(#radial-gradient);
      }

      .st8 {
        fill: url(#linear-gradient16);
      }

      .st9 {
        fill: url(#linear-gradient12);
      }

      .st10 {
        fill: url(#linear-gradient7);
      }

      .st11 {
        fill: url(#linear-gradient4);
      }

      .st12 {
        fill: url(#linear-gradient14);
      }

      .st13 {
        fill: url(#linear-gradient5);
      }

      .st14 {
        fill: url(#linear-gradient3);
      }

      .st15 {
        fill: url(#linear-gradient15);
      }

      .st16 {
        fill: url(#linear-gradient17);
      }

      .st17 {
        fill: url(#linear-gradient6);
      }

      .st18 {
        fill: url(#linear-gradient13);
      }

      .st19 {
        fill: url(#linear-gradient);
      }
    </style>
    <radialGradient id="radial-gradient" cx="1404.53" cy="789.9" fx="1360.52" fy="995.81" r="721.15" gradientTransform="translate(-1113.79 -626.19) scale(2.16)" gradientUnits="userSpaceOnUse">
      <stop offset="0" stop-color="#0a2331"/>
      <stop offset=".35" stop-color="#081a24"/>
      <stop offset="1" stop-color="#030304"/>
      <stop offset="1" stop-color="#030304"/>
    </radialGradient>
    <linearGradient id="linear-gradient" x1="2066.18" y1="1085.74" x2="662.71" y2="1467.32" gradientTransform="translate(564 2395.64) scale(1 -1)" gradientUnits="userSpaceOnUse">
      <stop offset="0" stop-color="#1d72a7"/>
      <stop offset="1" stop-color="#c8e5f8"/>
    </linearGradient>
    <linearGradient id="linear-gradient1" x1="2074.43" y1="1116.09" x2="670.96" y2="1497.67" xlink:href="#linear-gradient"/>
    <linearGradient id="linear-gradient2" x1="2091.82" y1="1180.07" x2="688.36" y2="1561.65" xlink:href="#linear-gradient"/>
    <linearGradient id="linear-gradient3" x1="2103.81" y1="1224.15" x2="700.34" y2="1605.73" xlink:href="#linear-gradient"/>
    <linearGradient id="linear-gradient4" x1="2126.04" y1="1305.92" x2="722.57" y2="1687.5" xlink:href="#linear-gradient"/>
    <linearGradient id="linear-gradient5" x1="2139.17" y1="1354.22" x2="735.7" y2="1735.8" xlink:href="#linear-gradient"/>
    <linearGradient id="linear-gradient6" x1="2150.43" y1="1395.62" x2="746.96" y2="1777.2" xlink:href="#linear-gradient"/>
    <linearGradient id="linear-gradient7" x1="2165.27" y1="1450.21" x2="761.8" y2="1831.79" xlink:href="#linear-gradient"/>
    <linearGradient id="linear-gradient8" x1="2178.79" y1="1499.94" x2="775.32" y2="1881.52" xlink:href="#linear-gradient"/>
    <linearGradient id="linear-gradient9" x1="2001.15" y1="846.59" x2="597.69" y2="1228.17" xlink:href="#linear-gradient"/>
    <linearGradient id="linear-gradient10" x1="2017.55" y1="906.91" x2="614.09" y2="1288.49" xlink:href="#linear-gradient"/>
    <linearGradient id="linear-gradient11" x1="2033.25" y1="964.66" x2="629.79" y2="1346.24" xlink:href="#linear-gradient"/>
    <linearGradient id="linear-gradient12" x1="2049.63" y1="1024.87" x2="646.16" y2="1406.45" xlink:href="#linear-gradient"/>
    <linearGradient id="linear-gradient13" x1="2075.41" y1="1119.69" x2="671.94" y2="1501.27" xlink:href="#linear-gradient"/>
    <linearGradient id="linear-gradient14" x1="1987.87" y1="797.74" x2="584.41" y2="1179.32" xlink:href="#linear-gradient"/>
    <linearGradient id="linear-gradient15" x1="1982.25" y1="777.06" x2="578.78" y2="1158.64" xlink:href="#linear-gradient"/>
    <linearGradient id="linear-gradient16" x1="1955.97" y1="680.39" x2="552.5" y2="1061.97" xlink:href="#linear-gradient"/>
    <linearGradient id="linear-gradient17" x1="1981.55" y1="774.48" x2="578.08" y2="1156.06" xlink:href="#linear-gradient"/>
    <linearGradient id="linear-gradient18" x1="1978.92" y1="764.83" x2="575.46" y2="1146.41" xlink:href="#linear-gradient"/>
  </defs>
  <g id="Background_Gradient">
    <rect class="st7" width="3840" height="2160"/>
  </g>
  <g id="Logo">
    <g>
      <path class="st19" d="M921.08,1014.76l51.11-263.27h61.95l-20.13,103.37h103.76l20.13-103.37h61.95l-51.1,263.27h-61.95l21.29-109.57h-103.76l-21.29,109.57h-61.95Z"/>
      <path class="st2" d="M1263.71,875.38h-59.24c13.16-49.56,53.04-75.5,107.24-75.5s81.3,28.65,81.3,66.59c0,6.19-.77,12-1.94,18.58l-15.1,77.82c-3.87,20.13-5.03,32.13-5.03,41.43,0,4.26.39,7.36.77,10.45h-61.17c-.39-1.55-.39-3.48-.39-5.81,0-4.26.39-9.68,1.16-15.87-20.13,19.36-44.52,27.87-66.98,27.87-36.39,0-63.11-18.97-63.11-55.36,0-28.65,18.97-53.43,54.59-65.43,31.75-10.45,53.43-12.39,95.63-12.78l.78-4.65c.77-3.87,1.16-7.36,1.16-10.84,0-15.87-9.68-24-29.81-24s-34.07,11.23-39.88,27.49ZM1242.41,959.39c0,13.94,8.9,20.52,24,20.52,26.71,0,51.1-21.29,56.53-49.94l1.55-8.13c-63.88,1.16-82.08,16.65-82.08,37.56Z"/>
      <path class="st0" d="M1440.46,1014.76l-32.91-208.29h62.33l15.49,137.83.77,24,9.68-24,69.3-137.83h62.72l-114.21,208.29h-73.17Z"/>
      <path class="st14" d="M1803.02,946.23c-18.97,49.56-64.27,74.72-111.11,74.72-55.75,0-90.21-31.75-90.21-86.34,0-71.63,49.94-134.73,122.73-134.73,54.98,0,85.95,33.3,85.95,84.79,0,8.52-.77,17.81-2.32,27.1l-1.94,10.84h-143.25c-.39,3.48-.39,6.58-.39,10.07,0,27.49,11.62,41.04,34.07,41.04,19.74,0,36.01-8.13,44.52-27.49h61.95ZM1719.01,847.12c-22.07,0-39.1,17.42-48.39,41.43h80.92v-2.71c0-25.17-11.23-38.72-32.52-38.72Z"/>
      <path class="st11" d="M1873.64,1014.76l51.11-263.27h61.95l-51.11,263.27h-61.95Z"/>
      <path class="st13" d="M2032.65,1014.76l51.11-263.27h106.86c51.11,0,83.24,23.62,83.24,65.04,0,24.39-13.16,47.23-38.72,59.24,21.29,9.29,32.14,27.1,32.14,49.94,0,49.94-41.04,89.05-114.6,89.05h-120.02ZM2179.77,800.66h-43.75l-11.23,57.69h42.2c28.26,0,41.43-15.87,41.43-35.23,0-13.94-9.68-22.46-28.65-22.46ZM2170.86,903.25h-54.59l-12,62.33h56.14c28.65,0,42.98-17.81,42.98-37.94,0-14.71-11.23-24.39-32.52-24.39Z"/>
      <path class="st17" d="M2480.33,946.23c-18.97,49.56-64.27,74.72-111.11,74.72-55.75,0-90.21-31.75-90.21-86.34,0-71.63,49.94-134.73,122.73-134.73,54.98,0,85.95,33.3,85.95,84.79,0,8.52-.77,17.81-2.32,27.1l-1.94,10.84h-143.25c-.39,3.48-.39,6.58-.39,10.07,0,27.49,11.62,41.04,34.07,41.04,19.75,0,36.01-8.13,44.52-27.49h61.95ZM2396.32,847.12c-22.07,0-39.1,17.42-48.39,41.43h80.92v-2.71c0-25.17-11.23-38.72-32.52-38.72Z"/>
      <path class="st10" d="M2695.95,946.23c-18.97,49.56-64.27,74.72-111.12,74.72-55.75,0-90.21-31.75-90.21-86.34,0-71.63,49.94-134.73,122.73-134.73,54.98,0,85.95,33.3,85.95,84.79,0,8.52-.78,17.81-2.32,27.1l-1.94,10.84h-143.25c-.39,3.48-.39,6.58-.39,10.07,0,27.49,11.62,41.04,34.07,41.04,19.74,0,36.01-8.13,44.52-27.49h61.95ZM2611.93,847.12c-22.07,0-39.1,17.42-48.39,41.43h80.92v-2.71c0-25.17-11.23-38.72-32.52-38.72Z"/>
      <path class="st5" d="M2701.72,1014.76l40.26-208.29h59.24l-3.87,20.52c16.65-18.2,37.55-27.1,61.17-27.1,36.01,0,60.4,21.29,60.4,61.17,0,7.36-.78,15.1-2.32,23.62l-25.55,130.09h-59.24l24.78-126.99c1.16-5.03,1.55-9.68,1.55-13.55,0-17.42-8.52-26.33-26.33-26.33-22.07,0-39.88,17.81-46.46,41.81l-24.39,125.05h-59.23Z"/>
      <path class="st3" d="M1454.44,1402.35l51.17-263.74h62.03l-51.17,263.74h-62.03ZM1575.83,1316.22h-23.04l9.7-49.25h18.39c11.62,0,21.32-2.17,29.1-6.62,7.78-4.4,13.64-10.26,17.63-17.63,3.99-7.38,6.01-15.71,6.01-25.01s-2.98-16.62-8.94-21.92c-5.96-5.3-14.85-7.93-26.77-7.93h-56.22l9.29-49.25h56.22c27.93,0,50.11,6.62,66.53,19.8,16.42,13.18,24.65,31.93,24.65,56.22,0,18.64-4.85,35.56-14.55,50.82-9.7,15.25-23.74,27.53-42.08,36.82-18.34,9.3-40.31,13.94-65.92,13.94Z"/>
      <path class="st1" d="M1870.54,1402.35l-7.78-130.33,1.16-32.58h2.73l-12.02,32.58-58.55,130.33h-76.03l-12.78-208.63h63.19l.76,138.06-.4,34.91h-3.08l14.35-34.91,63.2-138.06h60.11l9.3,138.06.4,34.91h-3.49l12.78-34.91,55.06-138.06h60.87l-94.26,208.63h-75.62.1Z"/>
      <path class="st6" d="M2012.09,1402.35l40.31-208.63h59.36l-40.31,208.63h-59.35ZM2094.33,1282.48h-19.8c5.66-21.72,13.13-39.6,22.28-53.7,9.19-14.09,19.9-24.55,32.18-31.42,12.27-6.87,25.66-10.25,40.16-10.25,12.17,0,22.73,2.32,31.82,6.97,9.04,4.65,16.11,11.52,21.12,20.56,5.05,9.04,7.58,20.31,7.58,33.74,0,3.64-.2,7.42-.61,11.42-.4,3.99-.96,8.08-1.77,12.22l-25.61,130.33h-59.35l24.8-127.2c.51-2.58.91-4.95,1.16-7.17.25-2.17.4-4.34.4-6.41,0-8.79-2.12-15.36-6.41-19.8-4.24-4.4-10.91-6.62-19.95-6.62-5.71,0-11.16,1.16-16.47,3.49-5.3,2.32-10.1,5.61-14.35,9.9-4.24,4.24-7.83,9.3-10.66,15.1-2.83,5.81-5.05,12.07-6.62,18.79l.1.05Z"/>
      <path class="st9" d="M2424.33,1275.91l-37.99,21.72c.76-4.65,1.42-8.99,1.92-12.98.51-3.99.76-7.83.76-11.47,0-12.68-2.78-22.28-8.33-28.89-5.56-6.62-13.64-9.9-24.25-9.9-8.54,0-16.27,2.37-23.29,7.17-6.97,4.8-12.98,11.32-18.03,19.6-5.05,8.28-8.84,17.53-11.47,27.73-2.58,10.2-3.89,20.61-3.89,31.22,0,13.69,2.83,24,8.54,30.82,5.71,6.87,14.2,10.25,25.61,10.25,9.8,0,18.64-2.12,26.37-6.42,7.78-4.24,13.84-11.32,18.24-21.12h62.03c-6.47,16.57-15.46,30.36-26.98,41.47-11.52,11.11-24.5,19.45-39,25-14.5,5.56-29.6,8.34-45.36,8.34-27.93,0-49.96-7.58-66.12-22.68-16.17-15.1-24.25-36.37-24.25-63.8,0-17.83,2.93-34.86,8.74-51.02,5.81-16.17,14.19-30.56,25.21-43.24,10.96-12.68,24.05-22.63,39.15-29.85,15.1-7.22,31.72-10.86,49.86-10.86,27.38,0,48.6,7.68,63.6,23.08,15,15.41,22.48,36.02,22.48,61.88,0,4.14-.2,8.54-.61,13.18-.4,4.65-.96,9.3-1.77,13.94l-1.92,10.86h-179.93l6.21-34.15h154.38l.1.1Z"/>
      <path class="st18" d="M2523.64,1408.51c-14.25,0-26.57-3.38-37.03-10.1-10.46-6.72-18.49-16.27-24.05-28.69-5.56-12.43-8.33-26.87-8.33-43.44,0-18.34,2.73-35.87,8.13-52.54,5.46-16.67,13.13-31.52,23.09-44.6,9.95-13.03,21.77-23.34,35.46-30.81,13.69-7.48,28.84-11.27,45.36-11.27,19.65,0,34.65,6.77,45.01,20.36,10.36,13.59,15.51,32.63,15.51,57.18,0,19.9-2.78,38.59-8.34,56.02-5.56,17.43-13.23,32.78-23.08,45.97-9.85,13.18-20.86,23.44-33.14,30.81-12.28,7.37-25.16,11.06-38.59,11.06v.05ZM2545.36,1360.42c8.54,0,16.22-2.78,23.09-8.33,6.87-5.56,12.68-12.73,17.43-21.52,4.8-8.79,8.34-18.29,10.66-28.49,2.32-10.2,3.49-19.95,3.49-29.3,0-12.17-2.53-21.47-7.58-27.93-5.05-6.47-12.48-9.7-22.28-9.7-7.78,0-14.95,2.53-21.52,7.58-6.57,5.05-12.33,11.72-17.28,19.95-4.9,8.28-8.74,17.63-11.42,28.14-2.73,10.46-4.09,21.12-4.09,31.98,0,12.17,2.48,21.47,7.38,27.94,4.9,6.47,12.27,9.7,22.12,9.7ZM2577.54,1402.35l54.3-279.25h59.35l-54.3,279.25h-59.35Z"/>
      <path class="st12" d="M1451.58,1316.23l9.55-49.25h-62.08l-9.55,49.25h62.08Z"/>
      <path class="st15" d="M1369.89,1316.23l9.55-49.25h-62.08l-9.55,49.25h62.08Z"/>
      <path class="st8" d="M1271.48,1402.36l12.88-66.48h-62.08l-12.88,66.48h62.08Z"/>
      <path class="st16" d="M1206.53,1316.23l24.9-128.36h-62.08l-24.9,128.36h62.08Z"/>
      <path class="st4" d="M1288.21,1316.23l12.88-66.48h-62.08l-12.88,66.48h62.08Z"/>
    </g>
  </g>
</svg>