<?xml version="1.0" encoding="UTF-8"?>
<svg xmlns="http://www.w3.org/2000/svg" version="1.1" xmlns:xlink="http://www.w3.org/1999/xlink" viewBox="0 0 5760 1080">
  <!-- Generator: Adobe Illustrator 29.3.1, SVG Export Plug-In . SVG Version: 2.1.0 Build 151)  -->
  <defs>
    <style>
      .st0 {
        fill: url(#linear-gradient2);
      }

      .st1 {
        fill: url(#linear-gradient10);
      }

      .st2 {
        fill: url(#linear-gradient1);
      }

      .st3 {
        fill: url(#linear-gradient9);
      }

      .st4 {
        fill: url(#linear-gradient18);
      }

      .st5 {
        fill: url(#linear-gradient8);
      }

      .st6 {
        fill: url(#linear-gradient11);
      }

      .st7 {
        fill: url(#radial-gradient);
      }

      .st8 {
        fill: url(#linear-gradient16);
      }

      .st9 {
        fill: url(#linear-gradient12);
      }

      .st10 {
        fill: url(#linear-gradient7);
      }

      .st11 {
        fill: url(#linear-gradient4);
      }

      .st12 {
        fill: url(#linear-gradient14);
      }

      .st13 {
        fill: url(#linear-gradient5);
      }

      .st14 {
        fill: url(#linear-gradient3);
      }

      .st15 {
        fill: url(#linear-gradient15);
      }

      .st16 {
        fill: url(#linear-gradient17);
      }

      .st17 {
        fill: url(#linear-gradient6);
      }

      .st18 {
        fill: url(#linear-gradient13);
      }

      .st19 {
        fill: url(#linear-gradient);
      }
    </style>
    <radialGradient id="radial-gradient" cx="309.1" cy="419.9" fx="276.1" fy="574.3" r="540.9" gradientTransform="translate(1544.8 -64.7) scale(4.3 1.4)" gradientUnits="userSpaceOnUse">
      <stop offset="0" stop-color="#0a2331"/>
      <stop offset=".4" stop-color="#081a24"/>
      <stop offset="1" stop-color="#030304"/>
      <stop offset="1" stop-color="#030304"/>
    </radialGradient>
    <linearGradient id="linear-gradient" x1="2773.7" y1="781.3" x2="1869.2" y2="1027.2" gradientTransform="translate(564 1469.4) scale(1 -1)" gradientUnits="userSpaceOnUse">
      <stop offset="0" stop-color="#1d72a7"/>
      <stop offset="1" stop-color="#c8e5f8"/>
    </linearGradient>
    <linearGradient id="linear-gradient1" x1="2779" y1="800.8" x2="1874.5" y2="1046.8" xlink:href="#linear-gradient"/>
    <linearGradient id="linear-gradient2" x1="2790.2" y1="842.1" x2="1885.7" y2="1088" xlink:href="#linear-gradient"/>
    <linearGradient id="linear-gradient3" x1="2797.9" y1="870.5" x2="1893.4" y2="1116.4" xlink:href="#linear-gradient"/>
    <linearGradient id="linear-gradient4" x1="2812.3" y1="923.2" x2="1907.8" y2="1169.1" xlink:href="#linear-gradient"/>
    <linearGradient id="linear-gradient5" x1="2820.7" y1="954.3" x2="1916.2" y2="1200.2" xlink:href="#linear-gradient"/>
    <linearGradient id="linear-gradient6" x1="2828" y1="981" x2="1923.5" y2="1226.9" xlink:href="#linear-gradient"/>
    <linearGradient id="linear-gradient7" x1="2837.5" y1="1016.2" x2="1933.1" y2="1262.1" xlink:href="#linear-gradient"/>
    <linearGradient id="linear-gradient8" x1="2846.3" y1="1048.2" x2="1941.8" y2="1294.1" xlink:href="#linear-gradient"/>
    <linearGradient id="linear-gradient9" x1="2731.8" y1="627.1" x2="1827.3" y2="873.1" xlink:href="#linear-gradient"/>
    <linearGradient id="linear-gradient10" x1="2742.4" y1="666" x2="1837.9" y2="911.9" xlink:href="#linear-gradient"/>
    <linearGradient id="linear-gradient11" x1="2752.5" y1="703.2" x2="1848" y2="949.2" xlink:href="#linear-gradient"/>
    <linearGradient id="linear-gradient12" x1="2763" y1="742" x2="1858.5" y2="988" xlink:href="#linear-gradient"/>
    <linearGradient id="linear-gradient13" x1="2779.6" y1="803.2" x2="1875.1" y2="1049.1" xlink:href="#linear-gradient"/>
    <linearGradient id="linear-gradient14" x1="2723.2" y1="595.7" x2="1818.7" y2="841.6" xlink:href="#linear-gradient"/>
    <linearGradient id="linear-gradient15" x1="2719.6" y1="582.3" x2="1815.1" y2="828.3" xlink:href="#linear-gradient"/>
    <linearGradient id="linear-gradient16" x1="2702.7" y1="520" x2="1798.2" y2="766" xlink:href="#linear-gradient"/>
    <linearGradient id="linear-gradient17" x1="2719.1" y1="580.7" x2="1814.7" y2="826.6" xlink:href="#linear-gradient"/>
    <linearGradient id="linear-gradient18" x1="2717.5" y1="574.5" x2="1813" y2="820.4" xlink:href="#linear-gradient"/>
  </defs>
  <g id="Background_Gradient">
    <rect class="st7" width="5760" height="1080"/>
  </g>
  <g id="Logo">
    <g>
      <path class="st19" d="M2236.2,498l32.9-169.7h39.9l-13,66.6h66.9l13-66.6h39.9l-32.9,169.7h-39.9l13.7-70.6h-66.9l-13.7,70.6h-39.9Z"/>
      <path class="st2" d="M2457,408.1h-38.2c8.5-31.9,34.2-48.7,69.1-48.7s52.4,18.5,52.4,42.9-.5,7.7-1.2,12l-9.7,50.2c-2.5,13-3.2,20.7-3.2,26.7s.2,4.7.5,6.7h-39.4c-.3-1-.3-2.2-.3-3.7,0-2.7.3-6.2.7-10.2-13,12.5-28.7,18-43.2,18-23.5,0-40.7-12.2-40.7-35.7s12.2-34.4,35.2-42.2c20.5-6.7,34.4-8,61.6-8.2l.5-3c.5-2.5.7-4.7.7-7,0-10.2-6.2-15.5-19.2-15.5s-22,7.2-25.7,17.7ZM2443.3,462.3c0,9,5.7,13.2,15.5,13.2,17.2,0,32.9-13.7,36.4-32.2l1-5.2c-41.2.7-52.9,10.7-52.9,24.2Z"/>
      <path class="st0" d="M2571,498l-21.2-134.2h40.2l10,88.8.5,15.5,6.2-15.5,44.7-88.8h40.4l-73.6,134.2h-47.2Z"/>
      <path class="st14" d="M2804.6,453.8c-12.2,31.9-41.4,48.2-71.6,48.2s-58.1-20.5-58.1-55.6,32.2-86.8,79.1-86.8,55.4,21.5,55.4,54.6-.5,11.5-1.5,17.5l-1.2,7h-92.3c-.3,2.2-.3,4.2-.3,6.5,0,17.7,7.5,26.4,22,26.4s23.2-5.2,28.7-17.7h39.9ZM2750.5,389.9c-14.2,0-25.2,11.2-31.2,26.7h52.1v-1.7c0-16.2-7.2-25-21-25Z"/>
      <path class="st11" d="M2850.1,498l32.9-169.7h39.9l-32.9,169.7h-39.9Z"/>
      <path class="st13" d="M2952.6,498l32.9-169.7h68.9c32.9,0,53.6,15.2,53.6,41.9s-8.5,30.4-25,38.2c13.7,6,20.7,17.5,20.7,32.2,0,32.2-26.4,57.4-73.9,57.4h-77.3ZM3047.4,360h-28.2l-7.2,37.2h27.2c18.2,0,26.7-10.2,26.7-22.7s-6.2-14.5-18.5-14.5ZM3041.7,426.1h-35.2l-7.7,40.2h36.2c18.5,0,27.7-11.5,27.7-24.5s-7.2-15.7-21-15.7Z"/>
      <path class="st17" d="M3241.1,453.8c-12.2,31.9-41.4,48.2-71.6,48.2s-58.1-20.5-58.1-55.6,32.2-86.8,79.1-86.8,55.4,21.5,55.4,54.6-.5,11.5-1.5,17.5l-1.2,7h-92.3c-.3,2.2-.3,4.2-.3,6.5,0,17.7,7.5,26.4,22,26.4s23.2-5.2,28.7-17.7h39.9ZM3187,389.9c-14.2,0-25.2,11.2-31.2,26.7h52.1v-1.7c0-16.2-7.2-25-21-25Z"/>
      <path class="st10" d="M3380.1,453.8c-12.2,31.9-41.4,48.2-71.6,48.2s-58.1-20.5-58.1-55.6,32.2-86.8,79.1-86.8,55.4,21.5,55.4,54.6-.5,11.5-1.5,17.5l-1.2,7h-92.3c-.3,2.2-.3,4.2-.3,6.5,0,17.7,7.5,26.4,22,26.4s23.2-5.2,28.7-17.7h39.9ZM3325.9,389.9c-14.2,0-25.2,11.2-31.2,26.7h52.1v-1.7c0-16.2-7.2-25-21-25Z"/>
      <path class="st5" d="M3383.8,498l25.9-134.2h38.2l-2.5,13.2c10.7-11.7,24.2-17.5,39.4-17.5,23.2,0,38.9,13.7,38.9,39.4s-.5,9.7-1.5,15.2l-16.5,83.8h-38.2l16-81.8c.7-3.2,1-6.2,1-8.7,0-11.2-5.5-17-17-17s-25.7,11.5-29.9,26.9l-15.7,80.6h-38.2Z"/>
      <path class="st3" d="M2580,747.7l33-170h40l-33,170h-40ZM2658.2,692.2h-14.8l6.3-31.7h11.9c7.5,0,13.7-1.4,18.8-4.3,5-2.8,8.8-6.6,11.4-11.4,2.6-4.8,3.9-10.1,3.9-16.1s-1.9-10.7-5.8-14.1c-3.8-3.4-9.6-5.1-17.3-5.1h-36.2l6-31.7h36.2c18,0,32.3,4.3,42.9,12.8,10.6,8.5,15.9,20.6,15.9,36.2s-3.1,22.9-9.4,32.8c-6.3,9.8-15.3,17.7-27.1,23.7-11.8,6-26,9-42.5,9Z"/>
      <path class="st1" d="M2848.1,747.7l-5-84,.7-21h1.8l-7.7,21-37.7,84h-49l-8.2-134.5h40.7l.5,89-.3,22.5h-2l9.2-22.5,40.7-89h38.7l6,89,.3,22.5h-2.2l8.2-22.5,35.5-89h39.2l-60.7,134.5h-48.7,0Z"/>
      <path class="st6" d="M2939.3,747.7l26-134.5h38.3l-26,134.5h-38.3ZM2992.3,670.5h-12.8c3.6-14,8.5-25.5,14.4-34.6,5.9-9.1,12.8-15.8,20.7-20.3,7.9-4.4,16.5-6.6,25.9-6.6s14.7,1.5,20.5,4.5c5.8,3,10.4,7.4,13.6,13.3,3.3,5.8,4.9,13.1,4.9,21.7s-.1,4.8-.4,7.4c-.3,2.6-.6,5.2-1.1,7.9l-16.5,84h-38.3l16-82c.3-1.7.6-3.2.7-4.6.2-1.4.3-2.8.3-4.1,0-5.7-1.4-9.9-4.1-12.8-2.7-2.8-7-4.3-12.9-4.3s-7.2.7-10.6,2.2c-3.4,1.5-6.5,3.6-9.2,6.4-2.7,2.7-5,6-6.9,9.7-1.8,3.7-3.3,7.8-4.3,12.1h0Z"/>
      <path class="st9" d="M3205,666.3l-24.5,14c.5-3,.9-5.8,1.2-8.4.3-2.6.5-5,.5-7.4,0-8.2-1.8-14.4-5.4-18.6-3.6-4.3-8.8-6.4-15.6-6.4s-10.5,1.5-15,4.6c-4.5,3.1-8.4,7.3-11.6,12.6-3.3,5.3-5.7,11.3-7.4,17.9-1.7,6.6-2.5,13.3-2.5,20.1s1.8,15.5,5.5,19.9c3.7,4.4,9.1,6.6,16.5,6.6s12-1.4,17-4.1c5-2.7,8.9-7.3,11.8-13.6h40c-4.2,10.7-10,19.6-17.4,26.7-7.4,7.2-15.8,12.5-25.1,16.1-9.3,3.6-19.1,5.4-29.2,5.4-18,0-32.2-4.9-42.6-14.6-10.4-9.7-15.6-23.4-15.6-41.1s1.9-22.5,5.6-32.9c3.7-10.4,9.1-19.7,16.2-27.9,7.1-8.2,15.5-14.6,25.2-19.2,9.7-4.7,20.4-7,32.1-7,17.6,0,31.3,4.9,41,14.9,9.7,9.9,14.5,23.2,14.5,39.9s-.1,5.5-.4,8.5c-.3,3-.6,6-1.1,9l-1.2,7h-116l4-22h99.6Z"/>
      <path class="st18" d="M3269,751.7c-9.2,0-17.1-2.2-23.9-6.5-6.7-4.3-11.9-10.5-15.5-18.5-3.6-8-5.4-17.3-5.4-28s1.8-23.1,5.2-33.9c3.5-10.7,8.5-20.3,14.9-28.7,6.4-8.4,14-15,22.9-19.9,8.8-4.8,18.6-7.3,29.2-7.3s22.3,4.4,29,13.1c6.7,8.8,10,21,10,36.9s-1.8,24.9-5.4,36.1c-3.6,11.2-8.5,21.1-14.9,29.6-6.3,8.5-13.4,15.1-21.4,19.9-7.9,4.8-16.2,7.1-24.9,7.1h0ZM3283,720.7c5.5,0,10.5-1.8,14.9-5.4,4.4-3.6,8.2-8.2,11.2-13.9,3.1-5.7,5.4-11.8,6.9-18.4,1.5-6.6,2.2-12.9,2.2-18.9s-1.6-13.8-4.9-18c-3.3-4.2-8-6.3-14.4-6.3s-9.6,1.6-13.9,4.9c-4.2,3.3-7.9,7.6-11.1,12.9-3.2,5.3-5.6,11.4-7.4,18.1-1.8,6.7-2.6,13.6-2.6,20.6s1.6,13.8,4.8,18c3.2,4.2,7.9,6.3,14.3,6.3ZM3303.8,747.7l35-180h38.3l-35,180h-38.3Z"/>
      <path class="st12" d="M2578.1,692.2l6.2-31.7h-40l-6.2,31.7h40Z"/>
      <path class="st15" d="M2525.5,692.2l6.2-31.7h-40l-6.2,31.7h40Z"/>
      <path class="st8" d="M2462,747.8l8.3-42.8h-40l-8.3,42.8h40Z"/>
      <path class="st16" d="M2420.2,692.2l16-82.7h-40l-16,82.7h40Z"/>
      <path class="st4" d="M2472.8,692.2l8.3-42.8h-40l-8.3,42.8h40Z"/>
    </g>
  </g>
</svg>