<?xml version="1.0" encoding="UTF-8"?>
<svg xmlns="http://www.w3.org/2000/svg" version="1.1" xmlns:xlink="http://www.w3.org/1999/xlink" viewBox="0 0 2000 500">
  <!-- Generator: Adobe Illustrator 29.3.1, SVG Export Plug-In . SVG Version: 2.1.0 Build 151)  -->
  <defs>
    <style>
      .st0 {
        fill: url(#linear-gradient2);
      }

      .st1 {
        fill: url(#linear-gradient10);
      }

      .st2 {
        fill: url(#linear-gradient1);
      }

      .st3 {
        fill: url(#linear-gradient9);
      }

      .st4 {
        fill: url(#linear-gradient18);
      }

      .st5 {
        fill: url(#linear-gradient8);
      }

      .st6 {
        fill: url(#linear-gradient11);
      }

      .st7 {
        fill: url(#radial-gradient);
      }

      .st8 {
        fill: url(#linear-gradient16);
      }

      .st9 {
        fill: url(#linear-gradient12);
      }

      .st10 {
        fill: url(#linear-gradient7);
      }

      .st11 {
        fill: url(#linear-gradient4);
      }

      .st12 {
        fill: url(#linear-gradient14);
      }

      .st13 {
        fill: url(#linear-gradient5);
      }

      .st14 {
        fill: url(#linear-gradient3);
      }

      .st15 {
        fill: url(#linear-gradient15);
      }

      .st16 {
        fill: url(#linear-gradient17);
      }

      .st17 {
        fill: url(#linear-gradient6);
      }

      .st18 {
        fill: url(#linear-gradient13);
      }

      .st19 {
        fill: url(#linear-gradient);
      }
    </style>
    <radialGradient id="radial-gradient" cx="442.3" cy="249.9" fx="420.3" fy="352.9" r="360.6" gradientTransform="translate(4.9 0) scale(2.2 1)" gradientUnits="userSpaceOnUse">
      <stop offset="0" stop-color="#0a2331"/>
      <stop offset=".4" stop-color="#081a24"/>
      <stop offset="1" stop-color="#030304"/>
      <stop offset="1" stop-color="#030304"/>
    </radialGradient>
    <linearGradient id="linear-gradient" x1="704.7" y1="996.5" x2="173.7" y2="1140.9" gradientTransform="translate(564 1333.5) scale(1 -1)" gradientUnits="userSpaceOnUse">
      <stop offset="0" stop-color="#1d72a7"/>
      <stop offset="1" stop-color="#c8e5f8"/>
    </linearGradient>
    <linearGradient id="linear-gradient1" x1="707.9" y1="1008" x2="176.8" y2="1152.4" xlink:href="#linear-gradient"/>
    <linearGradient id="linear-gradient2" x1="714.4" y1="1032.2" x2="183.4" y2="1176.6" xlink:href="#linear-gradient"/>
    <linearGradient id="linear-gradient3" x1="719" y1="1048.9" x2="187.9" y2="1193.3" xlink:href="#linear-gradient"/>
    <linearGradient id="linear-gradient4" x1="727.4" y1="1079.8" x2="196.3" y2="1224.2" xlink:href="#linear-gradient"/>
    <linearGradient id="linear-gradient5" x1="732.4" y1="1098.1" x2="201.3" y2="1242.5" xlink:href="#linear-gradient"/>
    <linearGradient id="linear-gradient6" x1="736.6" y1="1113.8" x2="205.5" y2="1258.2" xlink:href="#linear-gradient"/>
    <linearGradient id="linear-gradient7" x1="742.2" y1="1134.4" x2="211.1" y2="1278.8" xlink:href="#linear-gradient"/>
    <linearGradient id="linear-gradient8" x1="747.4" y1="1153.2" x2="216.3" y2="1297.6" xlink:href="#linear-gradient"/>
    <linearGradient id="linear-gradient9" x1="680.1" y1="906" x2="149" y2="1050.4" xlink:href="#linear-gradient"/>
    <linearGradient id="linear-gradient10" x1="686.3" y1="928.8" x2="155.3" y2="1073.2" xlink:href="#linear-gradient"/>
    <linearGradient id="linear-gradient11" x1="692.3" y1="950.7" x2="161.2" y2="1095.1" xlink:href="#linear-gradient"/>
    <linearGradient id="linear-gradient12" x1="698.5" y1="973.5" x2="167.4" y2="1117.9" xlink:href="#linear-gradient"/>
    <linearGradient id="linear-gradient13" x1="708.2" y1="1009.4" x2="177.1" y2="1153.8" xlink:href="#linear-gradient"/>
    <linearGradient id="linear-gradient14" x1="675.1" y1="887.5" x2="144" y2="1031.9" xlink:href="#linear-gradient"/>
    <linearGradient id="linear-gradient15" x1="673" y1="879.7" x2="141.9" y2="1024.1" xlink:href="#linear-gradient"/>
    <linearGradient id="linear-gradient16" x1="663" y1="843.1" x2="131.9" y2="987.5" xlink:href="#linear-gradient"/>
    <linearGradient id="linear-gradient17" x1="672.7" y1="878.7" x2="141.6" y2="1023.1" xlink:href="#linear-gradient"/>
    <linearGradient id="linear-gradient18" x1="671.7" y1="875.1" x2="140.6" y2="1019.5" xlink:href="#linear-gradient"/>
  </defs>
  <g id="Background_Gradient">
    <rect class="st7" width="2000" height="500"/>
  </g>
  <g id="Logo">
    <g>
      <path class="st19" d="M622,225.3l19.3-99.6h23.4l-7.6,39.1h39.3l7.6-39.1h23.4l-19.3,99.6h-23.4l8.1-41.5h-39.3l-8.1,41.5h-23.4Z"/>
      <path class="st2" d="M751.7,172.6h-22.4c5-18.8,20.1-28.6,40.6-28.6s30.8,10.8,30.8,25.2-.3,4.5-.7,7l-5.7,29.4c-1.5,7.6-1.9,12.2-1.9,15.7s.1,2.8.3,4h-23.1c-.1-.6-.1-1.3-.1-2.2,0-1.6.1-3.7.4-6-7.6,7.3-16.8,10.5-25.3,10.5-13.8,0-23.9-7.2-23.9-21s7.2-20.2,20.7-24.8c12-4,20.2-4.7,36.2-4.8l.3-1.8c.3-1.5.4-2.8.4-4.1,0-6-3.7-9.1-11.3-9.1s-12.9,4.2-15.1,10.4ZM743.6,204.4c0,5.3,3.4,7.8,9.1,7.8,10.1,0,19.3-8.1,21.4-18.9l.6-3.1c-24.2.4-31.1,6.3-31.1,14.2Z"/>
      <path class="st0" d="M818.5,225.3l-12.5-78.8h23.6l5.9,52.2.3,9.1,3.7-9.1,26.2-52.2h23.7l-43.2,78.8h-27.7Z"/>
      <path class="st14" d="M955.7,199.4c-7.2,18.8-24.3,28.3-42,28.3s-34.1-12-34.1-32.7,18.9-51,46.4-51,32.5,12.6,32.5,32.1-.3,6.7-.9,10.3l-.7,4.1h-54.2c-.1,1.3-.1,2.5-.1,3.8,0,10.4,4.4,15.5,12.9,15.5s13.6-3.1,16.8-10.4h23.4ZM923.9,161.9c-8.4,0-14.8,6.6-18.3,15.7h30.6v-1c0-9.5-4.2-14.7-12.3-14.7Z"/>
      <path class="st11" d="M982.5,225.3l19.3-99.6h23.4l-19.3,99.6h-23.4Z"/>
      <path class="st13" d="M1042.6,225.3l19.3-99.6h40.4c19.3,0,31.5,8.9,31.5,24.6s-5,17.9-14.7,22.4c8.1,3.5,12.2,10.3,12.2,18.9,0,18.9-15.5,33.7-43.4,33.7h-45.4ZM1098.3,144.3h-16.6l-4.2,21.8h16c10.7,0,15.7-6,15.7-13.3s-3.7-8.5-10.8-8.5ZM1094.9,183.1h-20.7l-4.5,23.6h21.2c10.8,0,16.3-6.7,16.3-14.4s-4.2-9.2-12.3-9.2Z"/>
      <path class="st17" d="M1212,199.4c-7.2,18.8-24.3,28.3-42,28.3s-34.1-12-34.1-32.7,18.9-51,46.4-51,32.5,12.6,32.5,32.1-.3,6.7-.9,10.3l-.7,4.1h-54.2c-.1,1.3-.1,2.5-.1,3.8,0,10.4,4.4,15.5,12.9,15.5s13.6-3.1,16.8-10.4h23.4ZM1180.2,161.9c-8.4,0-14.8,6.6-18.3,15.7h30.6v-1c0-9.5-4.2-14.7-12.3-14.7Z"/>
      <path class="st10" d="M1293.6,199.4c-7.2,18.8-24.3,28.3-42,28.3s-34.1-12-34.1-32.7,18.9-51,46.4-51,32.5,12.6,32.5,32.1-.3,6.7-.9,10.3l-.7,4.1h-54.2c-.1,1.3-.1,2.5-.1,3.8,0,10.4,4.4,15.5,12.9,15.5s13.6-3.1,16.8-10.4h23.4ZM1261.8,161.9c-8.4,0-14.8,6.6-18.3,15.7h30.6v-1c0-9.5-4.2-14.7-12.3-14.7Z"/>
      <path class="st5" d="M1295.8,225.3l15.2-78.8h22.4l-1.5,7.8c6.3-6.9,14.2-10.3,23.1-10.3,13.6,0,22.9,8.1,22.9,23.1s-.3,5.7-.9,8.9l-9.7,49.2h-22.4l9.4-48.1c.4-1.9.6-3.7.6-5.1,0-6.6-3.2-10-10-10s-15.1,6.7-17.6,15.8l-9.2,47.3h-22.4Z"/>
      <path class="st3" d="M823.8,372l19.4-99.8h23.5l-19.4,99.8h-23.5ZM869.8,339.4h-8.7l3.7-18.6h7c4.4,0,8.1-.8,11-2.5,2.9-1.7,5.2-3.9,6.7-6.7,1.5-2.8,2.3-5.9,2.3-9.5s-1.1-6.3-3.4-8.3c-2.3-2-5.6-3-10.1-3h-21.3l3.5-18.6h21.3c10.6,0,19,2.5,25.2,7.5,6.2,5,9.3,12.1,9.3,21.3s-1.8,13.5-5.5,19.2c-3.7,5.8-9,10.4-15.9,13.9-6.9,3.5-15.3,5.3-24.9,5.3Z"/>
      <path class="st1" d="M981.3,372l-2.9-49.3.4-12.3h1l-4.5,12.3-22.2,49.3h-28.8l-4.8-78.9h23.9l.3,52.2-.2,13.2h-1.2l5.4-13.2,23.9-52.2h22.7l3.5,52.2.2,13.2h-1.3l4.8-13.2,20.8-52.2h23l-35.7,78.9h-28.6,0Z"/>
      <path class="st6" d="M1034.8,372l15.3-78.9h22.5l-15.3,78.9h-22.5ZM1066,326.6h-7.5c2.1-8.2,5-15,8.4-20.3,3.5-5.3,7.5-9.3,12.2-11.9,4.6-2.6,9.7-3.9,15.2-3.9s8.6.9,12,2.6c3.4,1.8,6.1,4.4,8,7.8,1.9,3.4,2.9,7.7,2.9,12.8s0,2.8-.2,4.3c-.2,1.5-.4,3.1-.7,4.6l-9.7,49.3h-22.5l9.4-48.1c.2-1,.3-1.9.4-2.7,0-.8.2-1.6.2-2.4,0-3.3-.8-5.8-2.4-7.5-1.6-1.7-4.1-2.5-7.6-2.5s-4.2.4-6.2,1.3c-2,.9-3.8,2.1-5.4,3.7-1.6,1.6-3,3.5-4,5.7-1.1,2.2-1.9,4.6-2.5,7.1h0Z"/>
      <path class="st9" d="M1190.8,324.1l-14.4,8.2c.3-1.8.5-3.4.7-4.9.2-1.5.3-3,.3-4.3,0-4.8-1.1-8.4-3.2-10.9-2.1-2.5-5.2-3.7-9.2-3.7s-6.2.9-8.8,2.7c-2.6,1.8-4.9,4.3-6.8,7.4-1.9,3.1-3.3,6.6-4.3,10.5-1,3.9-1.5,7.8-1.5,11.8s1.1,9.1,3.2,11.7c2.2,2.6,5.4,3.9,9.7,3.9s7.1-.8,10-2.4c2.9-1.6,5.2-4.3,6.9-8h23.5c-2.4,6.3-5.8,11.5-10.2,15.7-4.4,4.2-9.3,7.4-14.8,9.5-5.5,2.1-11.2,3.2-17.2,3.2-10.6,0-18.9-2.9-25-8.6-6.1-5.7-9.2-13.8-9.2-24.1s1.1-13.2,3.3-19.3c2.2-6.1,5.4-11.6,9.5-16.4,4.1-4.8,9.1-8.6,14.8-11.3,5.7-2.7,12-4.1,18.9-4.1,10.4,0,18.4,2.9,24.1,8.7,5.7,5.8,8.5,13.6,8.5,23.4s0,3.2-.2,5c-.2,1.8-.4,3.5-.7,5.3l-.7,4.1h-68.1l2.4-12.9h58.5Z"/>
      <path class="st18" d="M1228.4,374.3c-5.4,0-10.1-1.3-14-3.8-4-2.5-7-6.2-9.1-10.9-2.1-4.7-3.2-10.2-3.2-16.4s1-13.6,3.1-19.9c2.1-6.3,5-11.9,8.7-16.9,3.8-4.9,8.2-8.8,13.4-11.7,5.2-2.8,10.9-4.3,17.2-4.3s13.1,2.6,17,7.7c3.9,5.1,5.9,12.3,5.9,21.6s-1.1,14.6-3.2,21.2c-2.1,6.6-5,12.4-8.7,17.4-3.7,5-7.9,8.9-12.5,11.7-4.6,2.8-9.5,4.2-14.6,4.2h0ZM1236.6,356.1c3.2,0,6.1-1.1,8.7-3.2,2.6-2.1,4.8-4.8,6.6-8.1,1.8-3.3,3.2-6.9,4-10.8.9-3.9,1.3-7.6,1.3-11.1s-1-8.1-2.9-10.6c-1.9-2.4-4.7-3.7-8.4-3.7s-5.7,1-8.1,2.9c-2.5,1.9-4.7,4.4-6.5,7.6-1.9,3.1-3.3,6.7-4.3,10.6-1,4-1.5,8-1.5,12.1s.9,8.1,2.8,10.6,4.6,3.7,8.4,3.7ZM1248.8,372l20.5-105.7h22.5l-20.5,105.7h-22.5Z"/>
      <path class="st12" d="M822.7,339.4l3.6-18.6h-23.5l-3.6,18.6h23.5Z"/>
      <path class="st15" d="M791.8,339.4l3.6-18.6h-23.5l-3.6,18.6h23.5Z"/>
      <path class="st8" d="M754.6,372l4.9-25.2h-23.5l-4.9,25.2h23.5Z"/>
      <path class="st16" d="M730,339.4l9.4-48.6h-23.5l-9.4,48.6h23.5Z"/>
      <path class="st4" d="M760.9,339.4l4.9-25.2h-23.5l-4.9,25.2h23.5Z"/>
    </g>
  </g>
</svg>