<?xml version="1.0" encoding="UTF-8"?>
<svg xmlns="http://www.w3.org/2000/svg" version="1.1" xmlns:xlink="http://www.w3.org/1999/xlink" viewBox="0 0 5120 720">
  <!-- Generator: Adobe Illustrator 29.3.1, SVG Export Plug-In . SVG Version: 2.1.0 Build 151)  -->
  <defs>
    <style>
      .st0 {
        fill: url(#linear-gradient2);
      }

      .st1 {
        fill: url(#linear-gradient10);
      }

      .st2 {
        fill: url(#linear-gradient1);
      }

      .st3 {
        fill: url(#linear-gradient9);
      }

      .st4 {
        fill: url(#linear-gradient18);
      }

      .st5 {
        fill: url(#linear-gradient8);
      }

      .st6 {
        fill: url(#linear-gradient11);
      }

      .st7 {
        fill: url(#radial-gradient);
      }

      .st8 {
        fill: url(#linear-gradient16);
      }

      .st9 {
        fill: url(#linear-gradient12);
      }

      .st10 {
        fill: url(#linear-gradient7);
      }

      .st11 {
        fill: url(#linear-gradient4);
      }

      .st12 {
        fill: url(#linear-gradient14);
      }

      .st13 {
        fill: url(#linear-gradient5);
      }

      .st14 {
        fill: url(#linear-gradient3);
      }

      .st15 {
        fill: url(#linear-gradient15);
      }

      .st16 {
        fill: url(#linear-gradient17);
      }

      .st17 {
        fill: url(#linear-gradient6);
      }

      .st18 {
        fill: url(#linear-gradient13);
      }

      .st19 {
        fill: url(#linear-gradient);
      }
    </style>
    <radialGradient id="radial-gradient" cx="455.7" cy="294.9" fx="433.7" fy="397.9" r="360.6" gradientTransform="translate(-65 -64.7) scale(5.8 1.4)" gradientUnits="userSpaceOnUse">
      <stop offset="0" stop-color="#0a2331"/>
      <stop offset=".4" stop-color="#081a24"/>
      <stop offset="1" stop-color="#030304"/>
      <stop offset="1" stop-color="#030304"/>
    </radialGradient>
    <linearGradient id="linear-gradient" x1="2301.1" y1="1010.7" x2="1698.1" y2="1174.6" gradientTransform="translate(564 1469.4) scale(1 -1)" gradientUnits="userSpaceOnUse">
      <stop offset="0" stop-color="#1d72a7"/>
      <stop offset="1" stop-color="#c8e5f8"/>
    </linearGradient>
    <linearGradient id="linear-gradient1" x1="2304.7" y1="1023.7" x2="1701.7" y2="1187.6" xlink:href="#linear-gradient"/>
    <linearGradient id="linear-gradient2" x1="2312.1" y1="1051.2" x2="1709.1" y2="1215.1" xlink:href="#linear-gradient"/>
    <linearGradient id="linear-gradient3" x1="2317.3" y1="1070.1" x2="1714.3" y2="1234.1" xlink:href="#linear-gradient"/>
    <linearGradient id="linear-gradient4" x1="2326.8" y1="1105.3" x2="1723.9" y2="1269.2" xlink:href="#linear-gradient"/>
    <linearGradient id="linear-gradient5" x1="2332.5" y1="1126" x2="1729.5" y2="1290" xlink:href="#linear-gradient"/>
    <linearGradient id="linear-gradient6" x1="2337.3" y1="1143.8" x2="1734.3" y2="1307.7" xlink:href="#linear-gradient"/>
    <linearGradient id="linear-gradient7" x1="2343.7" y1="1167.3" x2="1740.7" y2="1331.2" xlink:href="#linear-gradient"/>
    <linearGradient id="linear-gradient8" x1="2349.5" y1="1188.6" x2="1746.5" y2="1352.6" xlink:href="#linear-gradient"/>
    <linearGradient id="linear-gradient9" x1="2273.2" y1="907.9" x2="1670.2" y2="1071.9" xlink:href="#linear-gradient"/>
    <linearGradient id="linear-gradient10" x1="2280.2" y1="933.8" x2="1677.2" y2="1097.8" xlink:href="#linear-gradient"/>
    <linearGradient id="linear-gradient11" x1="2287" y1="958.6" x2="1684" y2="1122.6" xlink:href="#linear-gradient"/>
    <linearGradient id="linear-gradient12" x1="2294" y1="984.5" x2="1691" y2="1148.5" xlink:href="#linear-gradient"/>
    <linearGradient id="linear-gradient13" x1="2305.1" y1="1025.3" x2="1702.1" y2="1189.2" xlink:href="#linear-gradient"/>
    <linearGradient id="linear-gradient14" x1="2267.5" y1="886.9" x2="1664.5" y2="1050.9" xlink:href="#linear-gradient"/>
    <linearGradient id="linear-gradient15" x1="2265.1" y1="878" x2="1662.1" y2="1042" xlink:href="#linear-gradient"/>
    <linearGradient id="linear-gradient16" x1="2253.8" y1="836.5" x2="1650.8" y2="1000.4" xlink:href="#linear-gradient"/>
    <linearGradient id="linear-gradient17" x1="2264.8" y1="876.9" x2="1661.8" y2="1040.9" xlink:href="#linear-gradient"/>
    <linearGradient id="linear-gradient18" x1="2263.6" y1="872.8" x2="1660.6" y2="1036.7" xlink:href="#linear-gradient"/>
  </defs>
  <g id="Background_Gradient">
    <rect class="st7" width="5120" height="720"/>
  </g>
  <g id="Logo">
    <g>
      <path class="st19" d="M2130.8,332l22-113.1h26.6l-8.6,44.4h44.6l8.6-44.4h26.6l-22,113.1h-26.6l9.1-47.1h-44.6l-9.1,47.1h-26.6Z"/>
      <path class="st2" d="M2278,272.1h-25.5c5.7-21.3,22.8-32.4,46.1-32.4s34.9,12.3,34.9,28.6-.3,5.2-.8,8l-6.5,33.4c-1.7,8.6-2.2,13.8-2.2,17.8s.2,3.2.3,4.5h-26.3c-.2-.7-.2-1.5-.2-2.5,0-1.8.2-4.2.5-6.8-8.6,8.3-19.1,12-28.8,12-15.6,0-27.1-8.2-27.1-23.8s8.2-23,23.5-28.1c13.6-4.5,23-5.3,41.1-5.5l.3-2c.3-1.7.5-3.2.5-4.7,0-6.8-4.2-10.3-12.8-10.3s-14.6,4.8-17.1,11.8ZM2268.9,308.2c0,6,3.8,8.8,10.3,8.8,11.5,0,22-9.1,24.3-21.5l.7-3.5c-27.4.5-35.3,7.2-35.3,16.1Z"/>
      <path class="st0" d="M2354,332l-14.1-89.5h26.8l6.7,59.2.3,10.3,4.2-10.3,29.8-59.2h26.9l-49.1,89.5h-31.4Z"/>
      <path class="st14" d="M2509.7,302.5c-8.2,21.3-27.6,32.1-47.7,32.1s-38.8-13.6-38.8-37.1,21.5-57.9,52.7-57.9,36.9,14.3,36.9,36.4-.3,7.7-1,11.6l-.8,4.7h-61.5c-.2,1.5-.2,2.8-.2,4.3,0,11.8,5,17.6,14.6,17.6s15.5-3.5,19.1-11.8h26.6ZM2473.6,259.9c-9.5,0-16.8,7.5-20.8,17.8h34.8v-1.2c0-10.8-4.8-16.6-14-16.6Z"/>
      <path class="st11" d="M2540.1,332l22-113.1h26.6l-22,113.1h-26.6Z"/>
      <path class="st13" d="M2608.4,332l22-113.1h45.9c22,0,35.8,10.1,35.8,27.9s-5.7,20.3-16.6,25.5c9.1,4,13.8,11.6,13.8,21.5,0,21.5-17.6,38.3-49.2,38.3h-51.6ZM2671.6,240h-18.8l-4.8,24.8h18.1c12.1,0,17.8-6.8,17.8-15.1s-4.2-9.6-12.3-9.6ZM2667.8,284.1h-23.5l-5.2,26.8h24.1c12.3,0,18.5-7.7,18.5-16.3s-4.8-10.5-14-10.5Z"/>
      <path class="st17" d="M2800.7,302.5c-8.2,21.3-27.6,32.1-47.7,32.1s-38.8-13.6-38.8-37.1,21.5-57.9,52.7-57.9,36.9,14.3,36.9,36.4-.3,7.7-1,11.6l-.8,4.7h-61.5c-.2,1.5-.2,2.8-.2,4.3,0,11.8,5,17.6,14.6,17.6s15.5-3.5,19.1-11.8h26.6ZM2764.6,259.9c-9.5,0-16.8,7.5-20.8,17.8h34.8v-1.2c0-10.8-4.8-16.6-14-16.6Z"/>
      <path class="st10" d="M2893.4,302.5c-8.2,21.3-27.6,32.1-47.7,32.1s-38.8-13.6-38.8-37.1,21.5-57.9,52.7-57.9,36.9,14.3,36.9,36.4-.3,7.7-1,11.6l-.8,4.7h-61.5c-.2,1.5-.2,2.8-.2,4.3,0,11.8,5,17.6,14.6,17.6s15.5-3.5,19.1-11.8h26.6ZM2857.3,259.9c-9.5,0-16.8,7.5-20.8,17.8h34.8v-1.2c0-10.8-4.8-16.6-14-16.6Z"/>
      <path class="st5" d="M2895.9,332l17.3-89.5h25.5l-1.7,8.8c7.2-7.8,16.1-11.6,26.3-11.6,15.5,0,25.9,9.1,25.9,26.3s-.3,6.5-1,10.1l-11,55.9h-25.5l10.6-54.6c.5-2.2.7-4.2.7-5.8,0-7.5-3.7-11.3-11.3-11.3s-17.1,7.7-20,18l-10.5,53.7h-25.4Z"/>
      <path class="st3" d="M2360,498.5l22-113.3h26.7l-22,113.3h-26.7ZM2412.1,461.5h-9.9l4.2-21.2h7.9c5,0,9.2-.9,12.5-2.8,3.3-1.9,5.9-4.4,7.6-7.6,1.7-3.2,2.6-6.7,2.6-10.7s-1.3-7.1-3.8-9.4c-2.6-2.3-6.4-3.4-11.5-3.4h-24.2l4-21.2h24.2c12,0,21.5,2.8,28.6,8.5,7.1,5.7,10.6,13.7,10.6,24.2s-2.1,15.3-6.3,21.8c-4.2,6.6-10.2,11.8-18.1,15.8-7.9,4-17.3,6-28.3,6Z"/>
      <path class="st1" d="M2538.7,498.5l-3.3-56,.5-14h1.2l-5.2,14-25.2,56h-32.7l-5.5-89.6h27.2l.3,59.3-.2,15h-1.3l6.2-15,27.2-59.3h25.8l4,59.3.2,15h-1.5l5.5-15,23.7-59.3h26.2l-40.5,89.6h-32.5,0Z"/>
      <path class="st6" d="M2599.6,498.5l17.3-89.6h25.5l-17.3,89.6h-25.5ZM2634.9,447h-8.5c2.4-9.3,5.6-17,9.6-23.1,4-6.1,8.6-10.5,13.8-13.5,5.3-3,11-4.4,17.3-4.4s9.8,1,13.7,3c3.9,2,6.9,4.9,9.1,8.8,2.2,3.9,3.3,8.7,3.3,14.5s0,3.2-.3,4.9c-.2,1.7-.4,3.5-.8,5.3l-11,56h-25.5l10.7-54.7c.2-1.1.4-2.1.5-3.1.1-.9.2-1.9.2-2.8,0-3.8-.9-6.6-2.8-8.5-1.8-1.9-4.7-2.8-8.6-2.8s-4.8.5-7.1,1.5c-2.3,1-4.3,2.4-6.2,4.3-1.8,1.8-3.4,4-4.6,6.5-1.2,2.5-2.2,5.2-2.8,8.1h0Z"/>
      <path class="st9" d="M2776.7,444.2l-16.3,9.3c.3-2,.6-3.9.8-5.6.2-1.7.3-3.4.3-4.9,0-5.4-1.2-9.6-3.6-12.4-2.4-2.8-5.9-4.3-10.4-4.3s-7,1-10,3.1c-3,2.1-5.6,4.9-7.7,8.4-2.2,3.6-3.8,7.5-4.9,11.9-1.1,4.4-1.7,8.9-1.7,13.4s1.2,10.3,3.7,13.2c2.5,3,6.1,4.4,11,4.4s8-.9,11.3-2.8c3.3-1.8,5.9-4.9,7.8-9.1h26.7c-2.8,7.1-6.6,13-11.6,17.8s-10.5,8.4-16.8,10.7c-6.2,2.4-12.7,3.6-19.5,3.6-12,0-21.5-3.3-28.4-9.7-6.9-6.5-10.4-15.6-10.4-27.4s1.3-15,3.8-21.9c2.5-6.9,6.1-13.1,10.8-18.6,4.7-5.4,10.3-9.7,16.8-12.8,6.5-3.1,13.6-4.7,21.4-4.7,11.8,0,20.9,3.3,27.3,9.9,6.4,6.6,9.7,15.5,9.7,26.6s0,3.7-.3,5.7c-.2,2-.4,4-.8,6l-.8,4.7h-77.3l2.7-14.7h66.4Z"/>
      <path class="st18" d="M2819.4,501.1c-6.1,0-11.4-1.5-15.9-4.3-4.5-2.9-7.9-7-10.3-12.3-2.4-5.3-3.6-11.5-3.6-18.7s1.2-15.4,3.5-22.6c2.3-7.2,5.6-13.5,9.9-19.2,4.3-5.6,9.4-10,15.2-13.2,5.9-3.2,12.4-4.8,19.5-4.8s14.9,2.9,19.3,8.7c4.4,5.8,6.7,14,6.7,24.6s-1.2,16.6-3.6,24.1c-2.4,7.5-5.7,14.1-9.9,19.8-4.2,5.7-9,10.1-14.2,13.2-5.3,3.2-10.8,4.8-16.6,4.8h0ZM2828.7,480.5c3.7,0,7-1.2,9.9-3.6,3-2.4,5.4-5.5,7.5-9.2,2.1-3.8,3.6-7.9,4.6-12.2,1-4.4,1.5-8.6,1.5-12.6s-1.1-9.2-3.3-12c-2.2-2.8-5.4-4.2-9.6-4.2s-6.4,1.1-9.2,3.3c-2.8,2.2-5.3,5-7.4,8.6-2.1,3.6-3.8,7.6-4.9,12.1-1.2,4.5-1.8,9.1-1.8,13.7s1.1,9.2,3.2,12,5.3,4.2,9.5,4.2ZM2842.5,498.5l23.3-120h25.5l-23.3,120h-25.5Z"/>
      <path class="st12" d="M2358.7,461.5l4.1-21.2h-26.7l-4.1,21.2h26.7Z"/>
      <path class="st15" d="M2323.6,461.5l4.1-21.2h-26.7l-4.1,21.2h26.7Z"/>
      <path class="st8" d="M2281.4,498.5l5.5-28.6h-26.7l-5.5,28.6h26.7Z"/>
      <path class="st16" d="M2253.5,461.5l10.7-55.1h-26.7l-10.7,55.1h26.7Z"/>
      <path class="st4" d="M2288.6,461.5l5.5-28.6h-26.7l-5.5,28.6h26.7Z"/>
    </g>
  </g>
</svg>