<?xml version="1.0" encoding="UTF-8"?>
<svg id="Layer_1" xmlns="http://www.w3.org/2000/svg" version="1.1" viewBox="0 0 1281.6 421.5">
  <!-- Generator: Adobe Illustrator 29.3.1, SVG Export Plug-In . SVG Version: 2.1.0 Build 151)  -->
  <defs>
    <style>
      .st0 {
        fill: #030304;
      }
    </style>
  </defs>
  <path class="st0" d="M0,168.9L32.8,0h39.7l-12.9,66.3h66.6L139.1,0h39.7l-32.8,168.9h-39.7l13.7-70.3H53.4l-13.7,70.3H0Z"/>
  <path class="st0" d="M219.8,79.5h-38c8.4-31.8,34-48.4,68.8-48.4s52.2,18.4,52.2,42.7-.5,7.7-1.2,11.9l-9.7,49.9c-2.5,12.9-3.2,20.6-3.2,26.6s.2,4.7.5,6.7h-39.2c-.2-1-.2-2.2-.2-3.7,0-2.7.2-6.2.7-10.2-12.9,12.4-28.6,17.9-43,17.9-23.3,0-40.5-12.2-40.5-35.5s12.2-34.3,35-42c20.4-6.7,34.3-7.9,61.3-8.2l.5-3c.5-2.5.7-4.7.7-7,0-10.2-6.2-15.4-19.1-15.4s-21.9,7.2-25.6,17.6ZM206.1,133.4c0,8.9,5.7,13.2,15.4,13.2,17.1,0,32.8-13.7,36.3-32l1-5.2c-41,.7-52.7,10.7-52.7,24.1Z"/>
  <path class="st0" d="M333.2,168.9l-21.1-133.6h40l9.9,88.4.5,15.4,6.2-15.4,44.5-88.4h40.2l-73.3,133.6h-46.9Z"/>
  <path class="st0" d="M565.8,124.9c-12.2,31.8-41.2,47.9-71.3,47.9s-57.9-20.4-57.9-55.4,32-86.4,78.7-86.4,55.1,21.4,55.1,54.4-.5,11.4-1.5,17.4l-1.2,7h-91.9c-.2,2.2-.2,4.2-.2,6.5,0,17.6,7.5,26.3,21.9,26.3s23.1-5.2,28.6-17.6h39.7ZM511.9,61.3c-14.2,0-25.1,11.2-31,26.6h51.9v-1.7c0-16.1-7.2-24.8-20.9-24.8Z"/>
  <path class="st0" d="M611.1,168.9L643.9,0h39.7l-32.8,168.9h-39.7Z"/>
  <path class="st0" d="M713.1,168.9L745.9,0h68.5c32.8,0,53.4,15.2,53.4,41.7s-8.4,30.3-24.8,38c13.7,6,20.6,17.4,20.6,32,0,32-26.3,57.1-73.5,57.1h-77ZM807.5,31.5h-28.1l-7.2,37h27.1c18.1,0,26.6-10.2,26.6-22.6s-6.2-14.4-18.4-14.4ZM801.7,97.4h-35l-7.7,40h36c18.4,0,27.6-11.4,27.6-24.3s-7.2-15.6-20.9-15.6Z"/>
  <path class="st0" d="M1000.3,124.9c-12.2,31.8-41.2,47.9-71.3,47.9s-57.9-20.4-57.9-55.4,32-86.4,78.7-86.4,55.1,21.4,55.1,54.4-.5,11.4-1.5,17.4l-1.2,7h-91.9c-.2,2.2-.2,4.2-.2,6.5,0,17.6,7.5,26.3,21.9,26.3s23.1-5.2,28.6-17.6h39.7ZM946.4,61.3c-14.2,0-25.1,11.2-31,26.6h51.9v-1.7c0-16.1-7.2-24.8-20.9-24.8Z"/>
  <path class="st0" d="M1138.6,124.9c-12.2,31.8-41.2,47.9-71.3,47.9s-57.9-20.4-57.9-55.4,32-86.4,78.7-86.4,55.1,21.4,55.1,54.4-.5,11.4-1.5,17.4l-1.2,7h-91.9c-.2,2.2-.2,4.2-.2,6.5,0,17.6,7.5,26.3,21.9,26.3s23.1-5.2,28.6-17.6h39.7ZM1084.7,61.3c-14.2,0-25.1,11.2-31,26.6h51.9v-1.7c0-16.1-7.2-24.8-20.9-24.8Z"/>
  <path class="st0" d="M1142.3,168.9l25.8-133.6h38l-2.5,13.2c10.7-11.7,24.1-17.4,39.2-17.4,23.1,0,38.7,13.7,38.7,39.2s-.5,9.7-1.5,15.2l-16.4,83.5h-38l15.9-81.5c.7-3.2,1-6.2,1-8.7,0-11.2-5.5-16.9-16.9-16.9s-25.6,11.4-29.8,26.8l-15.6,80.2h-38Z"/>
  <path class="st0" d="M342.2,417.5l32.8-169.2h39.8l-32.8,169.2h-39.8ZM420,362.3h-14.8l6.2-31.6h11.8c7.5,0,13.7-1.4,18.7-4.2,5-2.8,8.8-6.6,11.3-11.3,2.6-4.7,3.9-10.1,3.9-16s-1.9-10.7-5.7-14.1c-3.8-3.4-9.5-5.1-17.2-5.1h-36.1l6-31.6h36.1c17.9,0,32.1,4.2,42.7,12.7,10.5,8.5,15.8,20.5,15.8,36.1s-3.1,22.8-9.3,32.6c-6.2,9.8-15.2,17.7-27,23.6-11.8,6-25.9,8.9-42.3,8.9Z"/>
  <path class="st0" d="M609.1,417.5l-5-83.6.7-20.9h1.8l-7.7,20.9-37.6,83.6h-48.8l-8.2-133.8h40.5l.5,88.6-.3,22.4h-2l9.2-22.4,40.5-88.6h38.6l6,88.6.3,22.4h-2.2l8.2-22.4,35.3-88.6h39l-60.5,133.8h-48.5,0Z"/>
  <path class="st0" d="M699.9,417.5l25.9-133.8h38.1l-25.9,133.8h-38.1ZM752.6,340.6h-12.7c3.6-13.9,8.4-25.4,14.3-34.4,5.9-9,12.8-15.8,20.6-20.2,7.9-4.4,16.5-6.6,25.8-6.6s14.6,1.5,20.4,4.5c5.8,3,10.3,7.4,13.5,13.2,3.2,5.8,4.9,13,4.9,21.6s-.1,4.8-.4,7.3c-.3,2.6-.6,5.2-1.1,7.8l-16.4,83.6h-38.1l15.9-81.6c.3-1.7.6-3.2.7-4.6.2-1.4.3-2.8.3-4.1,0-5.6-1.4-9.9-4.1-12.7-2.7-2.8-7-4.2-12.8-4.2s-7.2.7-10.6,2.2c-3.4,1.5-6.5,3.6-9.2,6.4-2.7,2.7-5,6-6.8,9.7-1.8,3.7-3.2,7.7-4.2,12.1h0Z"/>
  <path class="st0" d="M964.3,336.4l-24.4,13.9c.5-3,.9-5.8,1.2-8.3.3-2.6.5-5,.5-7.4,0-8.1-1.8-14.3-5.3-18.5-3.6-4.2-8.7-6.4-15.6-6.4s-10.4,1.5-14.9,4.6c-4.5,3.1-8.3,7.3-11.6,12.6-3.2,5.3-5.7,11.2-7.4,17.8-1.7,6.5-2.5,13.2-2.5,20s1.8,15.4,5.5,19.8c3.7,4.4,9.1,6.6,16.4,6.6s12-1.4,16.9-4.1c5-2.7,8.9-7.3,11.7-13.5h39.8c-4.1,10.6-9.9,19.5-17.3,26.6-7.4,7.1-15.7,12.5-25,16-9.3,3.6-19,5.3-29.1,5.3-17.9,0-32-4.9-42.4-14.6-10.4-9.7-15.6-23.3-15.6-40.9s1.9-22.4,5.6-32.7c3.7-10.4,9.1-19.6,16.2-27.7,7-8.1,15.4-14.5,25.1-19.2,9.7-4.6,20.4-7,32-7,17.6,0,31.2,4.9,40.8,14.8,9.6,9.9,14.4,23.1,14.4,39.7s-.1,5.5-.4,8.5c-.3,3-.6,6-1.1,8.9l-1.2,7h-115.4l4-21.9h99.1Z"/>
  <path class="st0" d="M1028.1,421.5c-9.1,0-17-2.2-23.8-6.5-6.7-4.3-11.9-10.4-15.4-18.4-3.6-8-5.3-17.2-5.3-27.9s1.8-23,5.2-33.7c3.5-10.7,8.4-20.2,14.8-28.6,6.4-8.4,14-15,22.7-19.8,8.8-4.8,18.5-7.2,29.1-7.2s22.2,4.3,28.9,13.1c6.6,8.7,9.9,20.9,9.9,36.7s-1.8,24.8-5.3,35.9c-3.6,11.2-8.5,21-14.8,29.5-6.3,8.5-13.4,15-21.3,19.8-7.9,4.7-16.1,7.1-24.8,7.1h0ZM1042,390.6c5.5,0,10.4-1.8,14.8-5.3,4.4-3.6,8.1-8.2,11.2-13.8,3.1-5.6,5.3-11.7,6.8-18.3,1.5-6.5,2.2-12.8,2.2-18.8s-1.6-13.8-4.9-17.9c-3.2-4.1-8-6.2-14.3-6.2s-9.6,1.6-13.8,4.9c-4.2,3.2-7.9,7.5-11.1,12.8-3.1,5.3-5.6,11.3-7.3,18-1.7,6.7-2.6,13.5-2.6,20.5s1.6,13.8,4.7,17.9c3.1,4.1,7.9,6.2,14.2,6.2ZM1062.6,417.5l34.8-179.1h38.1l-34.8,179.1h-38.1Z"/>
  <path class="st0" d="M340.3,362.3l6.1-31.6h-39.8l-6.1,31.6h39.8Z"/>
  <path class="st0" d="M287.9,362.3l6.1-31.6h-39.8l-6.1,31.6h39.8Z"/>
  <path class="st0" d="M224.8,417.5l8.3-42.6h-39.8l-8.3,42.6h39.8Z"/>
  <path class="st0" d="M183.1,362.3l16-82.3h-39.8l-16,82.3h39.8Z"/>
  <path class="st0" d="M235.5,362.3l8.3-42.6h-39.8l-8.3,42.6h39.8Z"/>
</svg>