<?xml version="1.0" encoding="UTF-8"?>
<svg id="Layer_1" xmlns="http://www.w3.org/2000/svg" version="1.1" xmlns:xlink="http://www.w3.org/1999/xlink" viewBox="0 0 995.4 262">
  <!-- Generator: Adobe Illustrator 29.3.1, SVG Export Plug-In . SVG Version: 2.1.0 Build 151)  -->
  <defs>
    <style>
      .st0 {
        fill: none;
      }

      .st1 {
        fill: #030304;
      }

      .st2 {
        clip-path: url(#clippath);
      }
    </style>
    <clipPath id="clippath">
      <rect class="st0" x="0" width="995.4" height="185.5"/>
    </clipPath>
  </defs>
  <g class="st2">
    <g>
      <path class="st1" d="M201.5,181.5L234.7,10.1h40.3l-33.3,171.4h-40.3ZM280.4,125.5h-15l6.3-32h11.9c7.6,0,13.9-1.4,18.9-4.3,5.1-2.9,8.9-6.7,11.5-11.5,2.6-4.8,3.9-10.2,3.9-16.3s-1.9-10.8-5.8-14.2c-3.9-3.4-9.7-5.2-17.4-5.2h-36.5l6-32h36.5c18.2,0,32.6,4.3,43.2,12.9,10.7,8.6,16,20.7,16,36.5s-3.2,23.1-9.5,33c-6.3,9.9-15.4,17.9-27.3,23.9-11.9,6-26.2,9.1-42.8,9.1Z"/>
      <path class="st1" d="M471.9,181.5l-5.1-84.7.8-21.2h1.8l-7.8,21.2-38,84.7h-49.4l-8.3-135.6h41.1l.5,89.7-.3,22.7h-2l9.3-22.7,41.1-89.7h39.1l6,89.7.3,22.7h-2.3l8.3-22.7,35.8-89.7h39.6l-61.3,135.6h-49.1,0Z"/>
      <path class="st1" d="M562.1,181.5l26.2-135.6h38.6l-26.2,135.6h-38.6ZM615.5,103.6h-12.9c3.7-14.1,8.5-25.7,14.5-34.9,6-9.2,12.9-16,20.9-20.4,8-4.5,16.7-6.7,26.1-6.7s14.8,1.5,20.7,4.5c5.9,3,10.5,7.5,13.7,13.4,3.3,5.9,4.9,13.2,4.9,21.9s-.1,4.8-.4,7.4c-.3,2.6-.6,5.3-1.1,7.9l-16.6,84.7h-38.6l16.1-82.7c.3-1.7.6-3.2.8-4.7.2-1.4.3-2.8.3-4.2,0-5.7-1.4-10-4.2-12.9-2.8-2.9-7.1-4.3-13-4.3s-7.3.8-10.7,2.3c-3.4,1.5-6.6,3.6-9.3,6.4-2.8,2.8-5.1,6-6.9,9.8-1.8,3.8-3.3,7.8-4.3,12.2h0Z"/>
      <path class="st1" d="M823.4,99.3l-24.7,14.1c.5-3,.9-5.8,1.2-8.4.3-2.6.5-5.1.5-7.5,0-8.2-1.8-14.5-5.4-18.8-3.6-4.3-8.9-6.4-15.8-6.4s-10.6,1.5-15.1,4.7c-4.5,3.1-8.4,7.4-11.7,12.7-3.3,5.4-5.7,11.4-7.5,18-1.7,6.6-2.5,13.4-2.5,20.3s1.8,15.6,5.5,20c3.7,4.5,9.2,6.7,16.6,6.7s12.1-1.4,17.1-4.2c5.1-2.8,9-7.4,11.9-13.7h40.3c-4.2,10.8-10,19.7-17.5,27-7.5,7.2-15.9,12.6-25.3,16.3-9.4,3.6-19.2,5.4-29.5,5.4-18.2,0-32.5-4.9-43-14.7-10.5-9.8-15.8-23.6-15.8-41.5s1.9-22.7,5.7-33.2c3.8-10.5,9.2-19.9,16.4-28.1,7.1-8.2,15.6-14.7,25.4-19.4,9.8-4.7,20.6-7.1,32.4-7.1,17.8,0,31.6,5,41.3,15,9.7,10,14.6,23.4,14.6,40.2s-.1,5.5-.4,8.6c-.3,3-.6,6-1.1,9.1l-1.2,7.1h-116.9l4-22.2h100.4Z"/>
      <path class="st1" d="M886.5,185.5c-9.3,0-17.3-2.2-24.1-6.6-6.8-4.4-12-10.6-15.6-18.6-3.6-8.1-5.4-17.5-5.4-28.2s1.8-23.3,5.3-34.1c3.5-10.8,8.5-20.5,15-29,6.5-8.5,14.1-15.2,23-20,8.9-4.9,18.7-7.3,29.5-7.3s22.5,4.4,29.2,13.2c6.7,8.8,10.1,21.2,10.1,37.2s-1.8,25.1-5.4,36.4c-3.6,11.3-8.6,21.3-15,29.9-6.4,8.6-13.6,15.2-21.5,20-8,4.8-16.3,7.2-25.1,7.2h0ZM900.6,154.2c5.5,0,10.5-1.8,15-5.4,4.5-3.6,8.2-8.3,11.3-14,3.1-5.7,5.4-11.9,6.9-18.5,1.5-6.6,2.3-13,2.3-19s-1.6-14-4.9-18.2c-3.3-4.2-8.1-6.3-14.5-6.3s-9.7,1.6-14,4.9c-4.3,3.3-8,7.6-11.2,13-3.2,5.4-5.7,11.5-7.4,18.3-1.8,6.8-2.7,13.7-2.7,20.8s1.6,14,4.8,18.2c3.2,4.2,8,6.3,14.4,6.3ZM921.5,181.5L956.8,0h38.6l-35.3,181.5h-38.6,0Z"/>
      <path class="st1" d="M199.6,125.5l6.2-32h-40.3l-6.2,32h40.3Z"/>
      <path class="st1" d="M146.5,125.5l6.2-32h-40.3l-6.2,32h40.3Z"/>
      <path class="st1" d="M82.6,181.5l8.4-43.2h-40.3l-8.4,43.2h40.3Z"/>
      <path class="st1" d="M40.3,125.5l16.2-83.4H16.2L0,125.5h40.3Z"/>
      <path class="st1" d="M93.4,125.5l8.4-43.2h-40.3l-8.4,43.2h40.3Z"/>
    </g>
  </g>
  <path class="st1" d="M883.8,260.7l8.1-41.8h11.9l-8.1,41.8h-11.9ZM900.2,236.7h-4c1.1-4.3,2.6-7.9,4.3-10.7,1.8-2.8,3.8-4.9,6.1-6.3,2.3-1.4,4.9-2.1,7.7-2.1s4.1.5,5.7,1.4c1.7.9,3,2.3,4,4.1,1,1.8,1.5,4,1.5,6.6s0,1.5-.2,2.3c0,.8-.2,1.7-.3,2.6l-5.1,26.1h-11.8l5-25.5c.1-.6.2-1.1.2-1.6,0-.5,0-1,0-1.5,0-1.6-.4-2.8-1.2-3.6-.7-.9-1.8-1.3-3.3-1.3s-2.1.2-3,.7c-.9.5-1.8,1.1-2.6,2-.8.8-1.4,1.8-1.9,3-.5,1.1-.9,2.4-1.2,3.7ZM924.6,236.7h-6.2c1.1-4.4,2.6-8,4.5-10.8,1.9-2.8,4.2-4.9,6.8-6.3,2.6-1.3,5.4-2,8.5-2s6.3,1,8.5,3.1c2.2,2.1,3.3,5.1,3.3,9.2s0,1.4-.2,2.3c0,.8-.2,1.6-.3,2.5l-5.1,26.1h-11.9l5-25.5c.1-.6.2-1.1.2-1.6,0-.5,0-1,0-1.5,0-1.6-.4-2.8-1.2-3.6-.7-.9-1.8-1.3-3.3-1.3s-2.1.2-3,.7c-.9.5-1.8,1.1-2.6,2-.8.8-1.4,1.8-1.9,3-.5,1.1-.9,2.4-1.2,3.7Z"/>
  <path class="st1" d="M861,262c-5.4,0-9.7-1.5-12.8-4.6-3.1-3.1-4.7-7.4-4.7-12.8s.6-6.9,1.7-10.1c1.2-3.3,2.8-6.1,5-8.6,2.2-2.5,4.8-4.5,7.8-6,3.1-1.5,6.5-2.3,10.2-2.3,5.4,0,9.6,1.6,12.7,4.7,3.2,3.1,4.7,7.3,4.7,12.7s-.6,6.9-1.8,10.2c-1.1,3.2-2.8,6.1-5,8.6-2.2,2.5-4.8,4.5-7.8,6-3,1.4-6.4,2.2-10.2,2.2ZM862.3,252.3c1.7,0,3.2-.5,4.5-1.5,1.4-1,2.6-2.4,3.6-4,1-1.7,1.7-3.5,2.3-5.5.6-2.1.9-4.1.9-6.2s-.5-4.5-1.6-5.8c-1.1-1.3-2.7-2-4.8-2s-3.3.5-4.7,1.6c-1.3,1-2.5,2.3-3.5,4-.9,1.7-1.7,3.5-2.3,5.5-.5,2-.8,4.1-.8,6.2s.5,4.4,1.6,5.7c1.1,1.3,2.7,2,4.8,2Z"/>
  <path class="st1" d="M844.4,234h-11.8c0-2.4-.5-4.1-1.6-5.1-1-1.1-2.5-1.6-4.3-1.6s-3.1.5-4.4,1.5c-1.3,1-2.4,2.3-3.3,4-.9,1.7-1.7,3.5-2.2,5.6-.5,2-.8,4.1-.8,6.3s.5,4.4,1.6,5.7c1.1,1.3,2.7,2,4.7,2s3.3-.5,4.7-1.5c1.4-1,2.6-2.5,3.3-4.4h11.9c-1.2,3.5-2.9,6.4-5.1,8.7-2.2,2.3-4.7,4-7.5,5.1-2.8,1.1-5.7,1.7-8.8,1.7-5.3,0-9.5-1.5-12.7-4.6-3.1-3.1-4.6-7.3-4.6-12.7s.6-6.8,1.7-10c1.1-3.3,2.8-6.2,4.9-8.7,2.1-2.5,4.7-4.6,7.6-6.1,2.9-1.5,6.2-2.3,9.8-2.3,5.2,0,9.3,1.4,12.2,4.3,3,2.8,4.5,6.9,4.5,12Z"/>
  <path class="st1" d="M786.5,260.7l2.4-12.5h12.5l-2.5,12.5h-12.4Z"/>
  <path class="st1" d="M770.5,260.7l10.9-55.9h11.9l-10.9,55.9h-11.9ZM759.7,262c-2.8,0-5.3-.7-7.5-2-2.1-1.3-3.7-3.3-4.8-5.7-1.1-2.5-1.6-5.4-1.6-8.7s.5-7.2,1.6-10.5c1.1-3.4,2.6-6.3,4.6-8.9,2-2.6,4.4-4.7,7.1-6.2,2.7-1.5,5.8-2.3,9.1-2.3s6.9,1.4,9,4.1c2.1,2.7,3.1,6.5,3.1,11.4s-.6,7.7-1.7,11.3c-1.1,3.5-2.6,6.5-4.6,9.2-2,2.6-4.2,4.7-6.7,6.2-2.4,1.4-5,2.2-7.7,2.2ZM764.1,252.3c1.7,0,3.2-.5,4.6-1.6,1.4-1.1,2.6-2.6,3.5-4.3,1-1.8,1.7-3.6,2.2-5.7.5-2.1.7-4,.7-5.9s-.5-4.3-1.6-5.6c-1-1.3-2.5-1.9-4.4-1.9s-3,.5-4.3,1.6c-1.3,1-2.4,2.3-3.4,4-1,1.7-1.8,3.5-2.3,5.7-.5,2.1-.8,4.2-.8,6.4s.5,4.3,1.5,5.6c1,1.3,2.5,1.9,4.4,1.9Z"/>
  <path class="st1" d="M741.2,235.4l-7.6,4.3c.2-.9.3-1.8.4-2.6.1-.8.2-1.6.2-2.3,0-2.5-.6-4.5-1.7-5.7-1.1-1.3-2.7-2-4.8-2s-3.3.5-4.7,1.5c-1.4.9-2.6,2.2-3.6,3.9-1,1.7-1.7,3.5-2.3,5.6-.5,2-.8,4.1-.8,6.2s.6,4.8,1.7,6.2c1.1,1.3,2.8,2,5.1,2s3.7-.4,5.3-1.2c1.6-.9,2.8-2.3,3.6-4.3h12.4c-1.3,3.3-3.1,6.1-5.4,8.3-2.3,2.2-4.9,3.9-7.8,5-2.9,1.1-5.9,1.6-9.1,1.6-5.6,0-10-1.5-13.3-4.5-3.2-3.1-4.8-7.3-4.8-12.8s.6-7,1.7-10.2c1.2-3.3,2.9-6.2,5-8.7,2.2-2.5,4.8-4.5,7.8-6,3.1-1.4,6.4-2.2,10-2.2,5.5,0,9.7,1.6,12.7,4.7,3,3.1,4.5,7.2,4.5,12.3s0,1.7-.2,2.6c0,.9-.2,1.9-.3,2.8l-.4,2.2h-36l1.2-6.8h30.9Z"/>
  <path class="st1" d="M660,260.7l8.1-41.8h11.9l-8.1,41.8h-11.9ZM676.4,236.7h-4c1.1-4.3,2.6-7.9,4.4-10.7,1.9-2.8,4-4.9,6.4-6.3,2.5-1.4,5.2-2.1,8.1-2.1s4.6.5,6.4,1.4c1.8.9,3.2,2.3,4.2,4.1,1,1.8,1.6,4.1,1.6,6.8s0,1.5-.2,2.3c0,.8-.2,1.6-.3,2.4l-5.1,26.1h-11.9l5-25.5c.1-.5.2-1,.2-1.4,0-.5,0-.9,0-1.3,0-1.8-.4-3.1-1.3-4-.8-.9-2.1-1.3-4-1.3s-2.3.2-3.3.7c-1,.5-2,1.1-2.9,2-.8.8-1.5,1.8-2.1,3-.6,1.1-1,2.4-1.3,3.7Z"/>
  <path class="st1" d="M633,260.7l-1.6-26.1.2-6.5h.5l-2.4,6.5-11.7,26.1h-15.2l-2.6-41.8h12.7l.2,27.6v7h-.7l2.9-7,12.7-27.6h12l1.9,27.6v7c0,0-.6,0-.6,0l2.6-7,11-27.6h12.2l-18.9,41.8h-15.1Z"/>
  <path class="st1" d="M551,260.7l10.2-52.8h12.4l-10.2,52.8h-12.4ZM575.3,243.5h-11.9l1.9-9.9h10.9c2.3,0,4.3-.4,5.8-1.3,1.6-.9,2.7-2,3.5-3.5.8-1.5,1.2-3.2,1.2-5s-.6-3.3-1.8-4.3c-1.2-1.1-3-1.6-5.4-1.6h-11.3l1.9-9.9h11.3c5.6,0,10,1.3,13.3,4,3.3,2.6,5,6.4,5,11.3s-1,7.1-3,10.2c-1.9,3.1-4.7,5.5-8.4,7.4-3.7,1.9-8.1,2.8-13.2,2.8Z"/>
  <path class="st1" d="M507.9,260.7l8.1-41.8h11.9l-8.1,41.8h-11.9ZM524.3,236.7h-4c1.1-4.3,2.6-7.9,4.4-10.7,1.9-2.8,4-4.9,6.4-6.3,2.5-1.4,5.2-2.1,8.1-2.1s4.6.5,6.4,1.4c1.8.9,3.2,2.3,4.2,4.1,1,1.8,1.6,4.1,1.6,6.8s0,1.5-.2,2.3c0,.8-.2,1.6-.3,2.4l-5.1,26.1h-11.9l5-25.5c.1-.5.2-1,.2-1.4,0-.5,0-.9,0-1.3,0-1.8-.4-3.1-1.3-4-.8-.9-2.1-1.3-4-1.3s-2.3.2-3.3.7c-1,.5-2,1.1-2.9,2-.8.8-1.5,1.8-2.1,3-.6,1.1-1,2.4-1.3,3.7Z"/>
  <path class="st1" d="M504.8,235.4l-7.6,4.3c.2-.9.3-1.8.4-2.6.1-.8.2-1.6.2-2.3,0-2.5-.6-4.5-1.7-5.7-1.1-1.3-2.7-2-4.8-2s-3.3.5-4.7,1.5c-1.4.9-2.6,2.2-3.6,3.9-1,1.7-1.7,3.5-2.3,5.6-.5,2-.8,4.1-.8,6.2s.6,4.8,1.7,6.2c1.1,1.3,2.8,2,5.1,2s3.7-.4,5.3-1.2c1.6-.9,2.8-2.3,3.6-4.3h12.4c-1.3,3.3-3.1,6.1-5.4,8.3-2.3,2.2-4.9,3.9-7.8,5-2.9,1.1-5.9,1.6-9.1,1.6-5.6,0-10-1.5-13.3-4.5-3.2-3.1-4.8-7.3-4.8-12.8s.6-7,1.7-10.2c1.2-3.3,2.9-6.2,5-8.7,2.2-2.5,4.8-4.5,7.8-6,3.1-1.4,6.4-2.2,10-2.2,5.5,0,9.7,1.6,12.7,4.7,3,3.1,4.5,7.2,4.5,12.3s0,1.7-.2,2.6c0,.9-.2,1.9-.3,2.8l-.4,2.2h-36l1.2-6.8h30.9Z"/>
  <path class="st1" d="M462.9,235.4l-7.6,4.3c.2-.9.3-1.8.4-2.6.1-.8.2-1.6.2-2.3,0-2.5-.6-4.5-1.7-5.7-1.1-1.3-2.7-2-4.8-2s-3.3.5-4.7,1.5c-1.4.9-2.6,2.2-3.6,3.9-1,1.7-1.7,3.5-2.3,5.6-.5,2-.8,4.1-.8,6.2s.6,4.8,1.7,6.2c1.1,1.3,2.8,2,5.1,2s3.7-.4,5.3-1.2c1.6-.9,2.8-2.3,3.6-4.3h12.4c-1.3,3.3-3.1,6.1-5.4,8.3-2.3,2.2-4.9,3.9-7.8,5-2.9,1.1-5.9,1.6-9.1,1.6-5.6,0-10-1.5-13.3-4.5-3.2-3.1-4.8-7.3-4.8-12.8s.6-7,1.7-10.2c1.2-3.3,2.9-6.2,5-8.7,2.2-2.5,4.8-4.5,7.8-6,3.1-1.4,6.4-2.2,10-2.2,5.5,0,9.7,1.6,12.7,4.7,3,3.1,4.5,7.2,4.5,12.3s0,1.7-.2,2.6c0,.9-.2,1.9-.3,2.8l-.4,2.2h-36l1.2-6.8h30.9Z"/>
  <path class="st1" d="M377.7,260.7l10.2-52.8h12.4l-10.2,52.8h-12.4ZM401.7,260.7h-15l1.9-9.9h14.6c2,0,3.6-.3,4.8-1,1.2-.7,2.2-1.7,2.8-2.9.7-1.2,1-2.4,1-3.7s-.5-2.6-1.6-3.5c-1.1-.9-2.7-1.4-4.9-1.4h-14.3l1.8-9h11.7c1.9,0,3.5-.3,4.7-.9,1.2-.7,2.1-1.6,2.7-2.6.6-1.1.9-2.3.9-3.5s-.5-2.5-1.5-3.3c-.9-.8-2.4-1.2-4.3-1.2h-12l1.9-9.9h12.3c5.1,0,9.2,1.1,12.2,3.4s4.5,5.5,4.5,9.6-.5,4-1.4,5.9c-.9,1.9-2.4,3.5-4.3,4.8-1.9,1.3-4.2,2.3-7,2.7l.5-2.6c3.6.4,6.3,1.6,8.1,3.6,1.8,2,2.7,4.5,2.7,7.5s-.9,6.3-2.7,9.1c-1.8,2.7-4.3,4.8-7.8,6.4-3.4,1.6-7.6,2.3-12.5,2.3Z"/>
  <path class="st1" d="M359.4,260.7l10.2-52.8h12.4l-10.2,52.8h-12.4Z"/>
  <path class="st1" d="M355.6,235.4l-7.6,4.3c.2-.9.3-1.8.4-2.6.1-.8.2-1.6.2-2.3,0-2.5-.6-4.5-1.7-5.7-1.1-1.3-2.7-2-4.8-2s-3.3.5-4.7,1.5c-1.4.9-2.6,2.2-3.6,3.9-1,1.7-1.7,3.5-2.3,5.6-.5,2-.8,4.1-.8,6.2s.6,4.8,1.7,6.2c1.1,1.3,2.8,2,5.1,2s3.7-.4,5.3-1.2c1.6-.9,2.8-2.3,3.6-4.3h12.4c-1.3,3.3-3.1,6.1-5.4,8.3-2.3,2.2-4.9,3.9-7.8,5-2.9,1.1-5.9,1.6-9.1,1.6-5.6,0-10-1.5-13.3-4.5-3.2-3.1-4.8-7.3-4.8-12.8s.6-7,1.7-10.2c1.2-3.3,2.9-6.2,5-8.7,2.2-2.5,4.8-4.5,7.8-6,3.1-1.4,6.4-2.2,10-2.2,5.5,0,9.7,1.6,12.7,4.7,3,3.1,4.5,7.2,4.5,12.3s0,1.7-.2,2.6c0,.9-.2,1.9-.3,2.8l-.4,2.2h-36l1.2-6.8h30.9Z"/>
  <path class="st1" d="M287.4,260.7l-6.6-41.8h12.5l3.1,27.6.3,8.9h-1.8l3.6-8.9,13.9-27.6h12.6l-22.9,41.8h-14.7Z"/>
  <path class="st1" d="M253.2,232.8h-11.9c1.3-5,3.9-8.7,7.7-11.3,3.8-2.6,8.4-3.9,13.8-3.9s6.7.6,9.1,1.8c2.4,1.1,4.2,2.7,5.4,4.7,1.2,2,1.8,4.3,1.8,6.8s0,1.2-.2,1.9c0,.6-.1,1.2-.2,1.9l-3,15.6c-.4,2-.6,3.7-.8,5-.2,1.3-.2,2.4-.2,3.3v1.1c0,.3.1.6.2,1h-12.3c0-.2,0-.4,0-.5v-.6c0-1,.1-2.1.3-3.5.2-1.3.4-2.8.7-4.3l3.4-17.5c.1-.4.2-.7.2-1.1,0-.4,0-.8,0-1.1,0-1.6-.5-2.8-1.5-3.6-1-.8-2.5-1.2-4.5-1.2s-3.8.5-5.1,1.6c-1.3,1-2.3,2.3-2.9,4ZM268.3,235.2l-1.3,6.9c-3.5,0-6.4.2-8.8.5-2.3.4-4.2.9-5.5,1.6-1.3.7-2.3,1.5-2.9,2.4-.6.9-.9,1.9-.9,3s.4,2.4,1.2,3.1c.9.7,2.1,1,3.6,1s3.5-.4,5-1.2c1.6-.9,3-2.1,4-3.6,1.1-1.6,1.9-3.3,2.3-5.2h4.7c-1.1,4.3-2.7,7.8-5,10.6-2.2,2.7-4.7,4.7-7.5,5.9-2.7,1.2-5.4,1.8-8.1,1.8s-6.7-.9-9.1-2.8c-2.4-1.9-3.6-4.7-3.6-8.3s.9-5.4,2.8-7.8c1.9-2.3,4.6-4.1,8.2-5.4,2.2-.8,4.3-1.3,6.2-1.7,2-.4,4.1-.6,6.3-.7,2.3-.1,5-.2,8.2-.2Z"/>
  <path class="st1" d="M185.8,260.7l10.2-52.8h12.4l-10.2,52.8h-12.4ZM219.1,260.7l10.2-52.8h12.4l-10.2,52.8h-12.4ZM199.2,238.7l1.9-10.1h26.6l-1.9,10.1h-26.6Z"/>
</svg>