<svg width="1455" height="464" viewBox="0 0 1455 464" fill="none" xmlns="http://www.w3.org/2000/svg">
<path fill-rule="evenodd" clip-rule="evenodd" d="M1360.71 463.2C1362.62 463.2 1364.27 461.844 1364.63 459.966C1393.73 311.24 1421.99 165.481 1453.27 4.77392C1453.75 2.30448 1451.86 0 1449.35 0H1284.5C1282.58 0 1280.94 1.35899 1280.57 3.24036L1271.21 51.6462C1270.85 53.4885 1269.26 54.8294 1267.39 54.9205C1245.97 55.9614 1225.68 61.7032 1207.2 71.7999C1201.79 74.7598 1196.6 78.0275 1191.61 81.6029C1190.12 82.6686 1188.11 82.6342 1186.66 81.5235C1168.61 67.7252 1141.3 55 1102 55C1077.6 55 1054.6 60.2 1033.6 70.2C1028.94 72.3952 1024.41 74.7996 1020.02 77.406C1018.57 78.2675 1016.74 78.158 1015.39 77.1461C1010.71 73.6372 1005.71 70.5105 1000.4 67.7997C984 59.3997 965.6 55.1997 945.8 55.1997C932.809 55.1997 920.013 56.943 907.981 60.6203C907.596 60.7382 907.195 60.7997 906.791 60.7997L581.436 60.7998C580.236 60.7998 579.103 60.2584 578.328 59.3429C573.088 53.153 567.613 48.0122 562.4 43.8C537.6 23.8 505.8 13.6001 468 13.6001H335.099C333.183 13.6001 331.537 14.958 331.172 16.8384L311.13 120.162C310.765 122.042 309.118 123.4 307.203 123.4H211.457C208.94 123.4 207.049 121.103 207.531 118.633L218.869 60.5664C219.352 58.0963 217.46 55.7998 214.943 55.7998H47.7006C45.7843 55.7998 44.1372 57.1589 43.7733 59.0404L0.920381 280.64C0.443107 283.108 2.33384 285.4 4.84763 285.4H64.867C67.3826 285.4 69.2738 287.694 68.7933 290.164L56.3268 354.236C55.8464 356.705 57.7375 359 60.2532 359H227.5C229.416 359 231.063 357.641 231.427 355.759L244.41 288.64C244.774 286.759 246.421 285.4 248.337 285.4H273.894C276.41 285.4 278.301 287.694 277.821 290.163L245.126 458.437C244.646 460.906 246.539 463.2 249.054 463.2C621.542 463.2 988.943 463.2 1360.71 463.2Z" fill="#131A20"/>
<path d="M533.6 182C541.8 169 546 154.6 546 138.6C546 122.6 539 101.8 525 90.5999C511 79.3999 492 73.5999 468.2 73.5999H381.4L337.6 299H390.6L426.2 115.8H460.2C470.4 115.8 478 118 483 122.6C488 127.2 490.6 133.4 490.6 141.4C490.6 149.4 488.8 156.4 485.4 162.8C482 169.2 477 174.2 470.4 177.8C463.8 181.6 455.4 183.4 445.6 183.4H429.8L421.6 225.4H441.2C463 225.4 481.8 221.4 497.6 213.4C513.4 205.4 525.2 195 533.6 182Z" fill="url(#paint0_linear_125_551)"/>
<path d="M629.6 299L679.6 187.6L687.2 166.8L686.6 187.6L693.2 299H757.8L838.2 120.8H786.2L739.2 238.6L731.2 260.6L731 238.6L723 120.8H671.6L617.6 238.6L608 262L608.4 238.6L607.6 120.8H553.6L564.6 299H629.6Z" fill="url(#paint1_linear_125_551)"/>
<path d="M862.6 299L883.2 192C884.4 188 885.8 184.2 887.6 180.4C890 175.4 893 171.2 896.8 167.4C900.4 163.8 904.6 161 909 159C913.6 157 918.2 156 923 156C930.8 156 936.4 157.8 940 161.6C943.6 165.4 945.4 171 945.4 178.6C945.4 186.2 945.4 182.2 945 184C944.8 185.8 944.4 188 944 190.2L922.8 298.8H973.6L995.4 187.4C996 183.8 996.6 180.4 997 177C997.4 173.6 997.6 170.4 997.6 167.2C997.6 155.8 995.4 146 991.2 138.4C987 130.6 980.8 124.8 973.2 120.8C965.4 116.8 956.4 114.8 946 114.8C935.6 114.8 922.2 117.6 911.6 123.6C905 127.2 899 132.2 893.4 138.2L896.8 120.4H846L811.6 298.6H862.4L862.6 299Z" fill="url(#paint2_linear_125_551)"/>
<path d="M1017.6 284.8C1031.4 297.8 1050.2 304.2 1074.2 304.2C1098.2 304.2 1100.6 301.8 1113 297C1125.4 292.2 1136.4 285.2 1146.4 275.6C1156.4 266 1164 254.4 1169.4 240.2H1116.4C1112.6 248.6 1107.4 254.6 1100.8 258.2C1094.2 261.8 1086.6 263.6 1078.2 263.6C1069.8 263.6 1061.2 260.8 1056.4 254.8C1051.6 249 1049.2 240.2 1049.2 228.4C1049.2 216.6 1049.2 222.6 1049.6 219.8H1172.2L1173.8 210.6C1174.4 206.6 1175 202.6 1175.4 198.6C1175.8 194.6 1176 190.8 1176 187.4C1176 165.2 1169.6 147.6 1156.8 134.6C1144 121.4 1125.8 114.8 1102.4 114.8C1079 114.8 1072.8 118 1059.8 124C1046.8 130.2 1035.8 138.6 1026.4 149.6C1017 160.4 1009.8 172.8 1004.8 186.6C999.8 200.4 997.4 215 997.4 230.2C997.4 253.6 1004.4 271.8 1018.2 284.8H1017.6ZM1062.2 178.4C1066.6 171.4 1071.6 165.8 1077.6 161.6C1083.6 157.4 1090.2 155.4 1097.6 155.4C1105 155.4 1113.6 158.2 1118.4 163.8C1123.2 169.4 1125.6 177.6 1125.6 188.4C1125.6 199.2 1125.6 189.8 1125.6 190.6H1056.4C1058.2 186.2 1060.2 182 1062.6 178L1062.2 178.4Z" fill="url(#paint3_linear_125_551)"/>
<path d="M1330.8 60.3997L1316 136.6C1315.2 135.2 1314.2 133.8 1313.2 132.6C1304.4 121 1291.6 115.2 1274.8 115.2C1258 115.2 1247.8 118.4 1236 124.8C1224.4 131.2 1214.2 140 1205.6 151.2C1197 162.4 1190.6 175 1185.8 189.4C1181.2 203.6 1178.8 218.6 1178.8 234.2C1178.8 249.8 1181.2 260.8 1186 271.4C1190.8 282 1197.6 290.2 1206.6 296C1215.6 301.8 1226 304.6 1238.2 304.6C1249.6 304.6 1260.6 301.4 1271.2 295.2C1277 291.8 1282.4 287.4 1287.6 282.4L1284.2 299.4H1334.8L1381.2 60.7997H1330.4L1330.8 60.3997ZM1276.6 256C1270.8 260.8 1264.2 263.2 1256.8 263.2C1249.4 263.2 1242 260.4 1237.8 255C1233.6 249.4 1231.4 241.6 1231.4 231.2C1231.4 220.8 1232.6 212.8 1234.8 203.8C1237 194.8 1240.4 186.8 1244.6 179.8C1248.8 172.8 1253.8 167 1259.4 162.8C1265 158.6 1271.2 156.4 1277.8 156.4C1284.4 156.4 1292.6 159.2 1296.8 164.6C1301.2 170.2 1303.2 178 1303.2 188.4C1303.2 198.8 1302.2 204.8 1300.2 213.4C1298.2 222.2 1295.2 230.2 1291 237.8C1287 245.4 1282 251.4 1276.2 256.2L1276.6 256Z" fill="url(#paint4_linear_125_551)"/>
<path d="M343.4 183.4H290.2L282 225.4H335.2L343.4 183.4Z" fill="url(#paint5_linear_125_551)"/>
<path d="M212.2 225.4H265.4L273.6 183.4H220.4L212.2 225.4Z" fill="url(#paint6_linear_125_551)"/>
<path d="M128.2 299H181.2L192.2 242.2H139.2L128.2 299Z" fill="url(#paint7_linear_125_551)"/>
<path d="M94.0001 115.8L72.6001 225.4H125.8L147 115.8H94.0001Z" fill="url(#paint8_linear_125_551)"/>
<path d="M142.4 225.4H195.6L206.6 168.6H153.6L142.4 225.4Z" fill="url(#paint9_linear_125_551)"/>
<path d="M374.2 333.8L369 361H341.6L346.8 333.8H330.6L317 403.2H333.4L339 374.4H366.4L360.8 403.2H377L390.6 333.8H374.2Z" fill="url(#paint10_linear_125_551)"/>
<path d="M430.2 348.8C427 347.2 423 346.4 418.2 346.4C411 346.4 405 348.2 400 351.6C395 355 391.6 359.8 389.8 366.4H405.4C406.2 364.2 407.4 362.4 409.2 361.2C411 359.8 413.2 359.2 416 359.2C418.8 359.2 420.6 359.8 422 360.8C423.2 361.8 424 363.4 424 365.4C424 367.4 424 366.2 424 366.8C424 367.2 424 367.8 423.8 368.2V369.4C420.2 369.4 417.4 369.4 414.8 369.4C411.8 369.4 409.2 369.8 406.6 370.4C404 370.8 401.4 371.6 398.4 372.6C393.8 374.2 390.2 376.6 387.6 379.6C385.2 382.6 384 386 384 389.8C384 393.6 385.6 398.2 388.6 400.8C391.8 403.2 395.8 404.4 400.6 404.4C405.4 404.4 407.6 403.6 411.2 402C413.8 400.8 416 399.2 418.2 397.2C418 398.8 417.8 400.2 417.8 401.2V402C417.8 402.2 417.8 402.4 417.8 402.8H434C434 402.4 434 401.8 433.8 401.4V400C433.8 398.8 433.8 397.4 434.2 395.6C434.6 393.8 434.8 391.8 435.2 389L439.2 368.4C439.2 367.6 439.4 366.6 439.6 366C439.6 365.2 439.8 364.4 439.8 363.6C439.8 360.2 439 357.2 437.4 354.6C435.8 352 433.4 349.8 430.2 348.4V348.8ZM413 392.4C411 393.4 408.8 394 406.4 394C404 394 402.8 393.6 401.8 392.6C400.8 391.8 400.2 390.4 400.2 388.6C400.2 386.8 400.6 385.8 401.4 384.8C402.2 383.6 403.4 382.6 405.2 381.6C407 380.6 409.4 380 412.4 379.4C415 379 418.2 378.8 422 378.8L421.6 381C421.2 383.6 420.2 385.8 418.6 387.8C417.2 389.8 415.4 391.4 413.2 392.4H413Z" fill="url(#paint11_linear_125_551)"/>
<path d="M483.6 348.2L465.2 384.599L462.8 391L462.6 384.599L458.4 348.2H442L450.6 403.2H470L500 348.2H483.6Z" fill="url(#paint12_linear_125_551)"/>
<path d="M523.4 390.8C521.4 391.8 519 392.4 516.4 392.4C513.8 392.4 511.2 391.6 509.6 389.8C508.2 388 507.4 385.2 507.4 381.6C507.4 378 507.4 379.8 507.4 379H545.2L545.8 376.2C546 375 546.2 373.8 546.2 372.6C546.2 371.4 546.4 370.2 546.4 369.2C546.4 362.4 544.4 357 540.4 353C536.4 349 530.8 346.8 523.6 346.8C516.4 346.8 514.4 347.8 510.4 349.6C506.4 351.6 503 354.2 500 357.4C497.2 360.8 495 364.6 493.4 368.8C492 373 491.2 377.4 491.2 382.2C491.2 389.4 493.4 395 497.6 399C501.8 403 507.8 405 515 405C522.2 405 523.2 404.2 527 402.8C530.8 401.4 534.2 399 537.2 396.2C540.2 393.2 542.6 389.6 544.4 385.2H528C526.8 387.8 525.2 389.6 523.2 390.8H523.4ZM511.4 366C512.8 363.8 514.4 362.2 516.2 360.8C518 359.6 520 358.8 522.4 358.8C524.8 358.8 527.2 359.6 528.8 361.4C530.2 363.2 531 365.6 531 369C531 372.4 531 369.4 531 369.8H509.6C510.2 368.4 510.8 367.2 511.4 366Z" fill="url(#paint13_linear_125_551)"/>
<path d="M558.8 333.8L545.2 403.2H561.6L575 333.8H558.8Z" fill="url(#paint14_linear_125_551)"/>
<path d="M622.8 366.6C623.8 366.2 624.6 365.6 625.4 365C628 363.2 629.8 361.2 631 358.6C632.2 356.2 632.8 353.6 632.8 350.8C632.8 345.4 630.8 341.2 626.8 338.2C622.8 335.2 617.6 333.8 610.8 333.8H582.6L569.2 403.2H600.8C607.2 403.2 612.8 402.2 617.2 400.2C621.6 398 625 395.2 627.4 391.8C629.8 388.2 631 384.2 631 379.8C631 375.4 629.8 372.6 627.4 370C626.2 368.6 624.6 367.4 622.6 366.6H622.8ZM613 385.2C612.2 386.8 611 388 609.4 389C607.8 389.8 605.6 390.4 603 390.4H588.2L591.4 374H605.8C608.6 374 610.8 374.6 612.2 375.8C613.6 377 614.4 378.4 614.4 380.4C614.4 382.4 614 383.8 613 385.2ZM614.4 357.2C613.6 358.6 612.4 359.8 610.8 360.6C609.2 361.4 607.2 361.8 604.6 361.8H593.6L596.6 346.6H608.2C610.8 346.6 612.6 347.2 613.8 348.2C615 349.2 615.8 350.6 615.8 352.4C615.8 354.2 615.4 355.6 614.6 357L614.4 357.2Z" fill="url(#paint15_linear_125_551)"/>
<path d="M664.8 346.6C660 346.6 655.6 347.6 651.6 349.4C647.6 351.4 644.2 354 641.2 357.2C638.4 360.6 636.2 364.4 634.6 368.6C633.2 372.8 632.4 377.2 632.4 382C632.4 389.2 634.6 394.8 638.8 398.8C643 402.8 649 404.8 656.2 404.8C663.4 404.8 664.4 404 668.2 402.6C672 401.2 675.4 398.8 678.4 396C681.4 393 683.8 389.4 685.6 385H669.2C668 387.6 666.4 389.4 664.4 390.6C662.4 391.6 660 392.2 657.4 392.2C654.8 392.2 652.2 391.4 650.6 389.6C649.2 387.8 648.4 385 648.4 381.4C648.4 377.8 648.4 379.6 648.4 378.8H686.2L686.8 376C687 374.8 687.2 373.6 687.2 372.4C687.2 371.2 687.4 370 687.4 369C687.4 362.2 685.4 356.8 681.4 352.8C677.4 348.8 671.8 346.6 664.6 346.6H664.8ZM652.6 366C654 363.8 655.6 362.2 657.4 360.8C659.2 359.6 661.2 358.8 663.6 358.8C666 358.8 668.4 359.6 670 361.4C671.4 363.2 672.2 365.6 672.2 369C672.2 372.4 672.2 369.4 672.2 369.8H650.8C651.4 368.4 652 367.2 652.6 366Z" fill="url(#paint16_linear_125_551)"/>
<path d="M724.4 385.2C723.2 387.8 721.6 389.6 719.6 390.8C717.6 391.8 715.2 392.4 712.6 392.4C710 392.4 707.4 391.6 705.8 389.8C704.4 388 703.6 385.2 703.6 381.6C703.6 378 703.6 379.8 703.6 379H741.4L742 376.2C742.2 375 742.4 373.8 742.4 372.6C742.4 371.4 742.6 370.2 742.6 369.2C742.6 362.4 740.6 357 736.6 353C732.6 349 727 346.8 719.8 346.8C712.6 346.8 710.6 347.8 706.6 349.6C702.6 351.6 699.2 354.2 696.2 357.4C693.4 360.8 691.2 364.6 689.6 368.8C688.2 373 687.4 377.4 687.4 382.2C687.4 389.4 689.6 395 693.8 399C698 403 704 405 711.2 405C718.4 405 719.4 404.2 723.2 402.8C727 401.4 730.4 399 733.4 396.2C736.4 393.2 738.8 389.6 740.6 385.2H724.2H724.4ZM707.6 366C709 363.8 710.6 362.2 712.4 360.8C714.2 359.6 716.2 358.8 718.6 358.8C721 358.8 723.4 359.6 725 361.4C726.4 363.2 727.2 365.6 727.2 369C727.2 372.4 727.2 369.4 727.2 369.8H705.8C706.4 368.4 707 367.2 707.6 366Z" fill="url(#paint17_linear_125_551)"/>
<path d="M797.6 365.8C797.6 364.8 797.8 363.6 797.8 362.8C797.8 359.2 797.2 356.4 795.8 354C794.6 351.6 792.6 349.8 790.2 348.6C787.8 347.4 785 346.8 781.8 346.8C778.6 346.8 774.4 347.8 771.2 349.6C769.2 350.8 767.4 352.2 765.6 354.2L766.6 348.6H751L740.4 403.6H756L762.2 371.2C762.6 369.8 763 368.4 763.8 367C764.6 365.4 765.4 364.2 766.6 363C767.8 361.8 769 361 770.4 360.4C771.8 359.8 773.2 359.4 774.8 359.4C777.2 359.4 779 360 780 361.2C781.2 362.4 781.8 364 781.8 366.4C781.8 368.8 781.8 367.6 781.8 368.2C781.8 368.8 781.8 369.4 781.4 370L774.8 403.4H790.4L797.2 369C797.4 368 797.6 366.8 797.6 365.8Z" fill="url(#paint18_linear_125_551)"/>
<path d="M854.8 339C850.6 335.6 844.6 333.8 837.4 333.8H810.6L797.2 403.2H813.6L818 380.6H829.2C836 380.6 841.8 379.4 846.6 377C851.4 374.6 855.2 371.4 857.6 367.4C860.2 363.4 861.4 359 861.4 354C861.4 349 859.2 342.6 854.8 339.2V339ZM842.8 361.2C841.8 363.2 840.2 364.6 838.2 365.8C836.2 367 833.6 367.6 830.6 367.6H820.6L824.6 346.8H835C838.2 346.8 840.4 347.6 842 349C843.6 350.4 844.4 352.2 844.4 354.8C844.4 357.4 843.8 359.4 842.8 361.4V361.2Z" fill="url(#paint19_linear_125_551)"/>
<path d="M933.6 348.2L919.2 384.599L916.6 391.399V384.599L914.2 348.2H898.4L881.8 384.599L878.8 391.8V384.599L878.6 348.2H862L865.4 403.2H885.4L900.8 368.8L903.2 362.399L903 368.8L905 403.2H924.8L949.6 348.2H933.6Z" fill="url(#paint20_linear_125_551)"/>
<path d="M990.2 348.4C987.8 347.2 985 346.6 981.8 346.6C978.6 346.6 974.4 347.6 971.2 349.4C969.2 350.6 967.4 352 965.6 354L966.6 348.4H951L940.4 403.4H956L962.2 371C962.6 369.6 963 368.2 963.8 366.8C964.6 365.2 965.4 364 966.6 362.8C967.8 361.6 969 360.8 970.4 360.2C971.8 359.6 973.2 359.2 974.8 359.2C977.2 359.2 979 359.8 980 361C981.2 362.2 981.8 363.8 981.8 366.2C981.8 368.6 981.8 367.4 981.8 368C981.8 368.6 981.8 369.2 981.4 369.8L974.8 403.2H990.4L997.2 368.8C997.4 367.8 997.6 366.6 997.6 365.6C997.6 364.6 997.8 363.4 997.8 362.6C997.8 359 997.2 356.2 995.8 353.8C994.6 351.4 992.6 349.6 990.2 348.4Z" fill="url(#paint21_linear_125_551)"/>
<path d="M1047.6 352.6C1043.6 348.6 1038 346.4 1030.8 346.4C1023.6 346.4 1021.6 347.4 1017.6 349.2C1013.6 351.2 1010.2 353.8 1007.2 357C1004.4 360.4 1002.2 364.2 1000.6 368.4C999.2 372.6 998.4 377 998.4 381.8C998.4 389 1000.6 394.6 1004.8 398.6C1009 402.6 1015 404.6 1022.2 404.6C1029.4 404.6 1030.4 403.8 1034.2 402.4C1038 401 1041.4 398.6 1044.4 395.8C1047.4 392.8 1049.8 389.2 1051.6 384.8H1035.2C1034 387.4 1032.4 389.2 1030.4 390.4C1028.4 391.4 1026 392 1023.4 392C1020.8 392 1018.2 391.2 1016.6 389.4C1015.2 387.6 1014.4 384.8 1014.4 381.2C1014.4 377.6 1014.4 379.4 1014.4 378.6H1052.2L1052.8 375.8C1053 374.6 1053.2 373.4 1053.2 372.2C1053.2 371 1053.4 369.8 1053.4 368.8C1053.4 362 1051.4 356.6 1047.4 352.6H1047.6ZM1018.4 366C1019.8 363.8 1021.4 362.2 1023.2 360.8C1025 359.6 1027 358.8 1029.4 358.8C1031.8 358.8 1034.2 359.6 1035.8 361.4C1037.2 363.2 1038 365.6 1038 369C1038 372.4 1038 369.4 1038 369.8H1016.6C1017.2 368.4 1017.8 367.2 1018.4 366Z" fill="url(#paint22_linear_125_551)"/>
<path d="M1100.2 329.6L1095.6 353C1095.4 352.6 1095 352.2 1094.8 351.8C1092 348.2 1088.2 346.4 1083 346.4C1077.8 346.4 1074.6 347.4 1071 349.4C1067.4 351.4 1064.2 354 1061.6 357.6C1059 361 1057 365 1055.6 369.4C1054.2 373.8 1053.4 378.4 1053.4 383.2C1053.4 388 1054.2 391.4 1055.6 394.6C1057 397.8 1059.2 400.4 1062 402.2C1064.8 404 1068 404.8 1071.8 404.8C1075.6 404.8 1078.8 403.8 1082 402C1083.8 401 1085.4 399.6 1087 398L1086 403.2H1101.6L1115.8 329.6H1100.2ZM1083.4 390C1081.6 391.4 1079.6 392.2 1077.4 392.2C1075.2 392.2 1072.8 391.4 1071.6 389.6C1070.4 387.8 1069.6 385.4 1069.6 382.2C1069.6 379 1070 376.6 1070.6 373.8C1071.4 371 1072.4 368.6 1073.6 366.4C1074.8 364.2 1076.4 362.4 1078 361.2C1079.8 359.8 1081.6 359.2 1083.8 359.2C1086 359.2 1088.4 360 1089.6 361.8C1091 363.6 1091.6 366 1091.6 369.2C1091.6 372.4 1091.2 374.2 1090.6 377C1090 379.6 1089 382.2 1087.8 384.4C1086.6 386.8 1085 388.6 1083.2 390.2L1083.4 390Z" fill="url(#paint23_linear_125_551)"/>
<path d="M1106.8 403.2H1123.2L1126.4 386.8H1110L1106.8 403.2Z" fill="url(#paint24_linear_125_551)"/>
<path d="M1160.2 390.2C1158.4 391.4 1156.2 392.2 1154 392.2C1151.8 392.2 1149.2 391.4 1147.8 389.6C1146.4 387.8 1145.6 385.4 1145.6 382C1145.6 378.6 1146 376.4 1146.6 373.8C1147.2 371 1148.2 368.6 1149.4 366.4C1150.6 364.2 1152 362.4 1153.8 361.2C1155.6 360 1157.6 359.2 1159.6 359.2C1161.6 359.2 1163.8 360 1165.2 361.4C1166.6 362.8 1167.4 365 1167.4 368.2H1183C1183 361.4 1181 356.2 1177 352.4C1173.2 348.6 1167.8 346.6 1161 346.6C1154.2 346.6 1152 347.6 1148.2 349.6C1144.4 351.6 1141 354.2 1138.2 357.6C1135.4 361 1133.2 364.8 1131.8 369C1130.4 373.2 1129.6 377.6 1129.6 382.2C1129.6 389.4 1131.6 395 1135.6 399C1139.6 403 1145.2 405 1152.2 405C1159.2 405 1160 404.2 1163.8 402.8C1167.4 401.4 1170.8 399 1173.6 396C1176.6 393 1178.8 389.2 1180.4 384.6H1164.8C1163.8 387.2 1162.4 389.2 1160.4 390.4L1160.2 390.2Z" fill="url(#paint25_linear_125_551)"/>
<path d="M1237.4 369.4C1237.4 362.2 1235.4 356.6 1231.2 352.6C1227.2 348.6 1221.6 346.4 1214.4 346.4C1207.2 346.4 1205 347.4 1201 349.4C1197 351.4 1193.6 354 1190.8 357.2C1188 360.4 1185.8 364.2 1184.2 368.6C1182.8 372.8 1182 377.2 1182 381.8C1182 389 1184 394.6 1188.2 398.6C1192.4 402.6 1198 404.6 1205 404.6C1212 404.6 1214.4 403.6 1218.4 401.8C1222.4 399.8 1225.8 397.2 1228.6 394C1231.4 390.6 1233.6 386.8 1235.2 382.6C1236.8 378.4 1237.6 373.8 1237.6 369.2L1237.4 369.4ZM1220 377.6C1219.4 380.2 1218.4 382.6 1217 384.8C1215.8 387 1214.2 388.8 1212.4 390.2C1210.6 391.4 1208.6 392.2 1206.4 392.2C1204.2 392.2 1201.6 391.4 1200 389.6C1198.6 387.8 1197.8 385.4 1197.8 382C1197.8 378.6 1198.2 376.4 1198.8 373.8C1199.6 371.2 1200.6 368.8 1201.8 366.6C1203 364.4 1204.6 362.6 1206.4 361.2C1208.2 359.8 1210.2 359.2 1212.6 359.2C1215 359.2 1217.4 360 1219 361.8C1220.4 363.6 1221.2 366 1221.2 369.4C1221.2 372.8 1220.8 374.8 1220 377.6Z" fill="url(#paint26_linear_125_551)"/>
<path d="M1306.2 346.6C1302.2 346.6 1298.4 347.4 1295 349.2C1292.4 350.6 1290.2 352.4 1288.2 354.8C1288.2 354.4 1288 354 1287.8 353.8C1286.6 351.4 1284.8 349.6 1282.6 348.4C1280.4 347.2 1278 346.6 1275 346.6C1272 346.6 1268 347.6 1264.8 349.4C1263 350.4 1261.4 351.8 1260 353.4L1261 348.4H1245.4L1234.8 403.4H1250.4L1256.6 371C1257 369.6 1257.4 368.2 1258 367C1258.6 365.4 1259.6 364.2 1260.6 363C1261.6 361.8 1262.8 361 1264 360.4C1265.2 359.8 1266.6 359.4 1268 359.4C1269.4 359.4 1271.4 360 1272.2 361.2C1273.2 362.2 1273.8 363.8 1273.8 366C1273.8 368.2 1273.8 367.2 1273.8 368C1273.8 368.6 1273.8 369.2 1273.4 370L1266.8 403.4H1282.4L1288.8 371C1289.2 369.6 1289.6 368.2 1290.2 367C1290.8 365.4 1291.8 364.2 1292.8 363C1293.8 361.8 1295 361 1296.2 360.4C1297.4 359.8 1298.8 359.4 1300.2 359.4C1301.6 359.4 1303.6 360 1304.4 361.2C1305.4 362.2 1306 363.8 1306 366C1306 368.2 1306 367.2 1306 368C1306 368.6 1306 369.2 1305.6 370L1299 403.4H1314.6L1321.4 369C1321.6 367.8 1321.8 366.8 1321.8 365.8C1321.8 364.8 1322 363.8 1322 362.8C1322 357.4 1320.6 353.4 1317.6 350.8C1314.8 348 1311 346.8 1306.4 346.8L1306.2 346.6Z" fill="url(#paint27_linear_125_551)"/>
<defs>
<linearGradient id="paint0_linear_125_551" x1="1186.95" y1="368.349" x2="301.772" y2="67.7906" gradientUnits="userSpaceOnUse">
<stop stop-color="#1D72A7"/>
<stop offset="1" stop-color="#C8E5F8"/>
</linearGradient>
<linearGradient id="paint1_linear_125_551" x1="1186.95" y1="368.349" x2="301.772" y2="67.7906" gradientUnits="userSpaceOnUse">
<stop stop-color="#1D72A7"/>
<stop offset="1" stop-color="#C8E5F8"/>
</linearGradient>
<linearGradient id="paint2_linear_125_551" x1="1186.95" y1="368.349" x2="301.772" y2="67.7906" gradientUnits="userSpaceOnUse">
<stop stop-color="#1D72A7"/>
<stop offset="1" stop-color="#C8E5F8"/>
</linearGradient>
<linearGradient id="paint3_linear_125_551" x1="1186.95" y1="368.349" x2="301.772" y2="67.7906" gradientUnits="userSpaceOnUse">
<stop stop-color="#1D72A7"/>
<stop offset="1" stop-color="#C8E5F8"/>
</linearGradient>
<linearGradient id="paint4_linear_125_551" x1="1186.95" y1="368.349" x2="301.772" y2="67.7906" gradientUnits="userSpaceOnUse">
<stop stop-color="#1D72A7"/>
<stop offset="1" stop-color="#C8E5F8"/>
</linearGradient>
<linearGradient id="paint5_linear_125_551" x1="1186.95" y1="368.349" x2="301.772" y2="67.7906" gradientUnits="userSpaceOnUse">
<stop stop-color="#1D72A7"/>
<stop offset="1" stop-color="#C8E5F8"/>
</linearGradient>
<linearGradient id="paint6_linear_125_551" x1="1186.95" y1="368.349" x2="301.772" y2="67.7906" gradientUnits="userSpaceOnUse">
<stop stop-color="#1D72A7"/>
<stop offset="1" stop-color="#C8E5F8"/>
</linearGradient>
<linearGradient id="paint7_linear_125_551" x1="1186.95" y1="368.349" x2="301.772" y2="67.7906" gradientUnits="userSpaceOnUse">
<stop stop-color="#1D72A7"/>
<stop offset="1" stop-color="#C8E5F8"/>
</linearGradient>
<linearGradient id="paint8_linear_125_551" x1="1186.95" y1="368.349" x2="301.772" y2="67.7906" gradientUnits="userSpaceOnUse">
<stop stop-color="#1D72A7"/>
<stop offset="1" stop-color="#C8E5F8"/>
</linearGradient>
<linearGradient id="paint9_linear_125_551" x1="1186.95" y1="368.349" x2="301.772" y2="67.7906" gradientUnits="userSpaceOnUse">
<stop stop-color="#1D72A7"/>
<stop offset="1" stop-color="#C8E5F8"/>
</linearGradient>
<linearGradient id="paint10_linear_125_551" x1="1186.95" y1="368.349" x2="301.772" y2="67.7906" gradientUnits="userSpaceOnUse">
<stop stop-color="#1D72A7"/>
<stop offset="1" stop-color="#C8E5F8"/>
</linearGradient>
<linearGradient id="paint11_linear_125_551" x1="1186.95" y1="368.349" x2="301.772" y2="67.7906" gradientUnits="userSpaceOnUse">
<stop stop-color="#1D72A7"/>
<stop offset="1" stop-color="#C8E5F8"/>
</linearGradient>
<linearGradient id="paint12_linear_125_551" x1="1186.95" y1="368.349" x2="301.772" y2="67.7906" gradientUnits="userSpaceOnUse">
<stop stop-color="#1D72A7"/>
<stop offset="1" stop-color="#C8E5F8"/>
</linearGradient>
<linearGradient id="paint13_linear_125_551" x1="1186.95" y1="368.349" x2="301.772" y2="67.7906" gradientUnits="userSpaceOnUse">
<stop stop-color="#1D72A7"/>
<stop offset="1" stop-color="#C8E5F8"/>
</linearGradient>
<linearGradient id="paint14_linear_125_551" x1="1186.95" y1="368.349" x2="301.772" y2="67.7906" gradientUnits="userSpaceOnUse">
<stop stop-color="#1D72A7"/>
<stop offset="1" stop-color="#C8E5F8"/>
</linearGradient>
<linearGradient id="paint15_linear_125_551" x1="1186.95" y1="368.349" x2="301.772" y2="67.7906" gradientUnits="userSpaceOnUse">
<stop stop-color="#1D72A7"/>
<stop offset="1" stop-color="#C8E5F8"/>
</linearGradient>
<linearGradient id="paint16_linear_125_551" x1="1186.95" y1="368.349" x2="301.772" y2="67.7906" gradientUnits="userSpaceOnUse">
<stop stop-color="#1D72A7"/>
<stop offset="1" stop-color="#C8E5F8"/>
</linearGradient>
<linearGradient id="paint17_linear_125_551" x1="1186.95" y1="368.349" x2="301.772" y2="67.7906" gradientUnits="userSpaceOnUse">
<stop stop-color="#1D72A7"/>
<stop offset="1" stop-color="#C8E5F8"/>
</linearGradient>
<linearGradient id="paint18_linear_125_551" x1="1186.95" y1="368.349" x2="301.772" y2="67.7906" gradientUnits="userSpaceOnUse">
<stop stop-color="#1D72A7"/>
<stop offset="1" stop-color="#C8E5F8"/>
</linearGradient>
<linearGradient id="paint19_linear_125_551" x1="1186.95" y1="368.349" x2="301.772" y2="67.7906" gradientUnits="userSpaceOnUse">
<stop stop-color="#1D72A7"/>
<stop offset="1" stop-color="#C8E5F8"/>
</linearGradient>
<linearGradient id="paint20_linear_125_551" x1="1186.95" y1="368.349" x2="301.772" y2="67.7906" gradientUnits="userSpaceOnUse">
<stop stop-color="#1D72A7"/>
<stop offset="1" stop-color="#C8E5F8"/>
</linearGradient>
<linearGradient id="paint21_linear_125_551" x1="1186.95" y1="368.349" x2="301.772" y2="67.7906" gradientUnits="userSpaceOnUse">
<stop stop-color="#1D72A7"/>
<stop offset="1" stop-color="#C8E5F8"/>
</linearGradient>
<linearGradient id="paint22_linear_125_551" x1="1186.95" y1="368.349" x2="301.772" y2="67.7906" gradientUnits="userSpaceOnUse">
<stop stop-color="#1D72A7"/>
<stop offset="1" stop-color="#C8E5F8"/>
</linearGradient>
<linearGradient id="paint23_linear_125_551" x1="1186.95" y1="368.349" x2="301.772" y2="67.7906" gradientUnits="userSpaceOnUse">
<stop stop-color="#1D72A7"/>
<stop offset="1" stop-color="#C8E5F8"/>
</linearGradient>
<linearGradient id="paint24_linear_125_551" x1="1186.95" y1="368.349" x2="301.772" y2="67.7906" gradientUnits="userSpaceOnUse">
<stop stop-color="#1D72A7"/>
<stop offset="1" stop-color="#C8E5F8"/>
</linearGradient>
<linearGradient id="paint25_linear_125_551" x1="1186.95" y1="368.349" x2="301.772" y2="67.7906" gradientUnits="userSpaceOnUse">
<stop stop-color="#1D72A7"/>
<stop offset="1" stop-color="#C8E5F8"/>
</linearGradient>
<linearGradient id="paint26_linear_125_551" x1="1186.95" y1="368.349" x2="301.772" y2="67.7906" gradientUnits="userSpaceOnUse">
<stop stop-color="#1D72A7"/>
<stop offset="1" stop-color="#C8E5F8"/>
</linearGradient>
<linearGradient id="paint27_linear_125_551" x1="1186.95" y1="368.349" x2="301.772" y2="67.7906" gradientUnits="userSpaceOnUse">
<stop stop-color="#1D72A7"/>
<stop offset="1" stop-color="#C8E5F8"/>
</linearGradient>
</defs>
</svg>
